{
.appVersion = "1286";
DisplayStrings = (
"ABCD/acutecomb.case ÉEFGHHIJKLMNOPQRSTUVWXYZ\012HH1H2H3HH4HH5HH6HH7HH8HH9HH0HH2180 3215 2438 14718 2761 2568 23 2141 7239 7428\012HHHHHHHHOHHOHOOOO\012OOOOOOO\012HHHAHOAOO H-H-A-H Atado\012HHBHOBOO feo ACME fós foto\012HHCHOCOO C-C Comodo CATARRO\012HHDHODOO HH-HH Dorado\012HHEHOEOO H-E-H MUR\012HHFHOFOO FOSFORO HF-H Fa Fe Fu\012HHGHOGOO\012HHIHOIOO HOLOGRAMA Lamana\012HHJHOJOO Jamon Jo Jumin\012HHKHOKOO HK-H Ka Ko Ku KQ\012HHLHOLOO La Lu\012HHMHOMOO ATAN ATMÓSFERA ATOMO AMTO TOTO\012HHNHONOO Fa Farmaco\012HHPHOPOO HP-H-H Palo Pel Po\012HHQHOQOO H. H, P. F. V. T. W. Y. A?\012P, P. P; F, F; P: P/ellipsis  V, V; W, T, O, O. Y,\012HHRHOROO ARQUOEO HR-H\012HHSHHOSOO ASUSELO H-S-H\012HHTHOTOO TOTO ALTO ALURO AJUAR Ta Tomate\012HHUHOUOO ASADERO AFANADOR\012HHAHHOOAOO\012HHHVHOVOO H-V/emdash H ALWAYS ATADURA Va Voltaje Volumen Ve Vulcano KOLMA Mo\012HHWHOWOO H/endash W/emdash H Walk We Wã OVOIDE AVARO RaRoma AWAY AMAYA HAYACA\012AWARNESS OWO OWNER ALVARO AMAYA\012HHYHOYOO H-H-Y-HPVCZHOZOO H-Z-H\012HHZHHOZOO Za Zu  HHSHOSOO\012VlVlANA MONSALVE HAMACA HAN HENCHO DAÑO\012",
"\012abcdefghijklmnopqrstuvwxyz\012nnnnnnononooooooooonnnnn \012nnanoaoo\012nnbnndnnoboo\012nncnocoo\012nndnodoo\012nnenoeoo\012nndnnfnofoo afaro feo fosforo falso\012nngnnogoo\012nnhnnohoo\012nn/idotless innoiooa\012nn/idotless nno/idotless ooa\012nnnjnnojoo\012nnknnokoo ka ke kc\012nnlnnoloo an\012nnmnnomoo\012nnpnnopoo\012nnqnnoqoo quien\012nnrnnoroo re rama \012nnsnnosoo fosforo\012nntnnotoo bn toronja\012nnunnouoo aun nun\012nnvnnnonovoo\012nnwnnowoo\012nnxnnoxoo \012nnynoyoo\012nnnznnozoo zoologico ozono\012",
"dnd/dcaron n/lcaron \012nntnn/tcaron nn",
"/minus +±×/endash/emdash ¡Hola! (Hola) [Hola] {Hola} \012hh//hh 1+1+2+3\012nn//hno//oo /fraction  -H¼½¾",
"ttt/caroncomb.alt \012nntnn/tcaron no/tcaron oo",
"H/trademark TM",

glyphs = (
{
glyphname = .notdef;
lastChange = "2020-01-31 00:12:06 +0000";
layers = (
{
background = {
paths = (
{
closed = 1;
nodes = (
"445 0 LINE SMOOTH",
"460 0 OFFCURVE",
"475 12 OFFCURVE",
"475 31 CURVE SMOOTH",
"475 650 LINE SMOOTH",
"475 667 OFFCURVE",
"461 681 OFFCURVE",
"445 681 CURVE SMOOTH",
"51 681 LINE SMOOTH",
"33 681 OFFCURVE",
"20 667 OFFCURVE",
"20 650 CURVE SMOOTH",
"20 31 LINE SMOOTH",
"20 13 OFFCURVE",
"33 0 OFFCURVE",
"51 0 CURVE SMOOTH"
);
},
{
closed = 1;
nodes = (
"246 320 LINE",
"430 21 LINE",
"50 21 LINE"
);
},
{
closed = 1;
nodes = (
"41 655 LINE",
"234 342 LINE",
"41 46 LINE"
);
},
{
closed = 1;
nodes = (
"258 339 LINE",
"455 641 LINE",
"455 21 LINE"
);
},
{
closed = 1;
nodes = (
"62 660 LINE",
"442 660 LINE",
"246 361 LINE"
);
}
);
};
layerId = master01;
paths = (
{
closed = 1;
nodes = (
"445 0 LINE SMOOTH",
"460 0 OFFCURVE",
"475 12 OFFCURVE",
"475 31 CURVE SMOOTH",
"475 650 LINE SMOOTH",
"475 667 OFFCURVE",
"461 681 OFFCURVE",
"445 681 CURVE SMOOTH",
"51 681 LINE SMOOTH",
"33 681 OFFCURVE",
"20 667 OFFCURVE",
"20 650 CURVE SMOOTH",
"20 31 LINE SMOOTH",
"20 13 OFFCURVE",
"33 0 OFFCURVE",
"51 0 CURVE SMOOTH"
);
},
{
closed = 1;
nodes = (
"246 320 LINE",
"430 21 LINE",
"50 21 LINE"
);
},
{
closed = 1;
nodes = (
"41 655 LINE",
"234 342 LINE",
"41 46 LINE"
);
},
{
closed = 1;
nodes = (
"258 339 LINE",
"455 641 LINE",
"455 21 LINE"
);
},
{
closed = 1;
nodes = (
"62 660 LINE",
"442 660 LINE",
"246 361 LINE"
);
}
);
userData = {
com.fontlab.hintData = {
hhints = (
{
position = 0;
width = 21;
},
{
position = 660;
width = 21;
}
);
vhints = (
{
position = 20;
width = 21;
},
{
position = 455;
width = 20;
}
);
};
};
width = 495;
},
{
background = {
paths = (
{
closed = 1;
nodes = (
"440 0 LINE SMOOTH",
"460 0 OFFCURVE",
"480 16 OFFCURVE",
"480 40 CURVE SMOOTH",
"480 641 LINE SMOOTH",
"480 663 OFFCURVE",
"462 681 OFFCURVE",
"440 681 CURVE SMOOTH",
"58 681 LINE SMOOTH",
"36 681 OFFCURVE",
"18 663 OFFCURVE",
"18 641 CURVE SMOOTH",
"18 40 LINE SMOOTH",
"18 18 OFFCURVE",
"36 0 OFFCURVE",
"58 0 CURVE SMOOTH"
);
},
{
closed = 1;
nodes = (
"247 303 LINE",
"409 40 LINE",
"75 40 LINE"
);
},
{
closed = 1;
nodes = (
"58 610 LINE",
"224 341 LINE",
"58 87 LINE"
);
},
{
closed = 1;
nodes = (
"271 340 LINE",
"440 599 LINE",
"440 66 LINE"
);
},
{
closed = 1;
nodes = (
"86 641 LINE",
"420 641 LINE",
"248 378 LINE"
);
}
);
};
layerId = "218416E4-0B36-4DBB-8D0A-D6BB29FB6576";
paths = (
{
closed = 1;
nodes = (
"440 0 LINE SMOOTH",
"460 0 OFFCURVE",
"480 16 OFFCURVE",
"480 40 CURVE SMOOTH",
"480 641 LINE SMOOTH",
"480 663 OFFCURVE",
"462 681 OFFCURVE",
"440 681 CURVE SMOOTH",
"58 681 LINE SMOOTH",
"36 681 OFFCURVE",
"18 663 OFFCURVE",
"18 641 CURVE SMOOTH",
"18 40 LINE SMOOTH",
"18 18 OFFCURVE",
"36 0 OFFCURVE",
"58 0 CURVE SMOOTH"
);
},
{
closed = 1;
nodes = (
"247 303 LINE",
"409 40 LINE",
"75 40 LINE"
);
},
{
closed = 1;
nodes = (
"58 610 LINE",
"224 341 LINE",
"58 87 LINE"
);
},
{
closed = 1;
nodes = (
"271 340 LINE",
"440 599 LINE",
"440 66 LINE"
);
},
{
closed = 1;
nodes = (
"86 641 LINE",
"420 641 LINE",
"248 378 LINE"
);
}
);
userData = {
com.fontlab.hintData = {
hhints = (
{
position = 0;
width = 40;
},
{
position = 641;
width = 40;
}
);
vhints = (
{
position = 18;
width = 40;
},
{
position = 440;
width = 40;
}
);
};
};
width = 500;
},
{
background = {
paths = (
{
closed = 1;
nodes = (
"431 0 LINE SMOOTH",
"461 0 OFFCURVE",
"492 24 OFFCURVE",
"492 61 CURVE SMOOTH",
"492 620 LINE SMOOTH",
"492 654 OFFCURVE",
"465 681 OFFCURVE",
"431 681 CURVE SMOOTH",
"76 681 LINE SMOOTH",
"42 681 OFFCURVE",
"15 654 OFFCURVE",
"15 620 CURVE SMOOTH",
"15 61 LINE SMOOTH",
"15 27 OFFCURVE",
"42 0 OFFCURVE",
"76 0 CURVE SMOOTH"
);
},
{
closed = 1;
nodes = (
"251 263 LINE",
"361 84 LINE",
"135 84 LINE"
);
},
{
closed = 1;
nodes = (
"99 510 LINE",
"202 342 LINE",
"99 183 LINE"
);
},
{
closed = 1;
nodes = (
"301 339 LINE",
"408 502 LINE",
"408 167 LINE"
);
},
{
closed = 1;
nodes = (
"143 597 LINE",
"369 597 LINE",
"253 418 LINE"
);
}
);
};
layerId = "BB1A411A-CAFC-47D3-A925-066104B707B4";
paths = (
{
closed = 1;
nodes = (
"431 0 LINE SMOOTH",
"461 0 OFFCURVE",
"492 24 OFFCURVE",
"492 61 CURVE SMOOTH",
"492 620 LINE SMOOTH",
"492 654 OFFCURVE",
"465 681 OFFCURVE",
"431 681 CURVE SMOOTH",
"76 681 LINE SMOOTH",
"42 681 OFFCURVE",
"15 654 OFFCURVE",
"15 620 CURVE SMOOTH",
"15 61 LINE SMOOTH",
"15 27 OFFCURVE",
"42 0 OFFCURVE",
"76 0 CURVE SMOOTH"
);
},
{
closed = 1;
nodes = (
"251 263 LINE",
"361 84 LINE",
"135 84 LINE"
);
},
{
closed = 1;
nodes = (
"99 510 LINE",
"202 342 LINE",
"99 183 LINE"
);
},
{
closed = 1;
nodes = (
"301 339 LINE",
"408 502 LINE",
"408 167 LINE"
);
},
{
closed = 1;
nodes = (
"143 597 LINE",
"369 597 LINE",
"253 418 LINE"
);
}
);
userData = {
com.fontlab.hintData = {
hhints = (
{
position = 0;
width = 84;
},
{
position = 597;
width = 84;
}
);
vhints = (
{
position = 15;
width = 84;
},
{
position = 408;
width = 84;
}
);
};
};
width = 526;
}
);
},
{
glyphname = exclam;
lastChange = "2020-01-31 00:42:06 +0000";
layers = (
{
background = {
paths = (
{
closed = 1;
nodes = (
"143 158 OFFCURVE",
"152 168 OFFCURVE",
"152 178 CURVE SMOOTH",
"152 680 LINE SMOOTH",
"152 692 OFFCURVE",
"143 701 OFFCURVE",
"132 701 CURVE SMOOTH",
"122 701 OFFCURVE",
"112 692 OFFCURVE",
"112 680 CURVE SMOOTH",
"112 178 LINE SMOOTH",
"112 168 OFFCURVE",
"122 158 OFFCURVE",
"132 158 CURVE SMOOTH"
);
},
{
closed = 1;
nodes = (
"138 0 OFFCURVE",
"154 17 OFFCURVE",
"154 39 CURVE SMOOTH",
"154 53 OFFCURVE",
"145 66 OFFCURVE",
"131 66 CURVE SMOOTH",
"114 66 OFFCURVE",
"100 48 OFFCURVE",
"100 28 CURVE SMOOTH",
"100 13 OFFCURVE",
"109 0 OFFCURVE",
"123 0 CURVE SMOOTH"
);
}
);
};
layerId = master01;
paths = (
{
closed = 1;
nodes = (
"143 152 OFFCURVE",
"152 162 OFFCURVE",
"152 172 CURVE SMOOTH",
"152 674 LINE SMOOTH",
"152 686 OFFCURVE",
"143 695 OFFCURVE",
"132 695 CURVE SMOOTH",
"122 695 OFFCURVE",
"112 686 OFFCURVE",
"112 674 CURVE SMOOTH",
"112 172 LINE SMOOTH",
"112 162 OFFCURVE",
"122 152 OFFCURVE",
"132 152 CURVE SMOOTH"
);
},
{
closed = 1;
nodes = (
"138 -6 OFFCURVE",
"154 11 OFFCURVE",
"154 33 CURVE SMOOTH",
"154 47 OFFCURVE",
"145 60 OFFCURVE",
"131 60 CURVE SMOOTH",
"114 60 OFFCURVE",
"100 42 OFFCURVE",
"100 22 CURVE SMOOTH",
"100 7 OFFCURVE",
"109 -6 OFFCURVE",
"123 -6 CURVE SMOOTH"
);
}
);
userData = {
com.fontlab.hintData = {
hhints = (
{
position = 0;
width = 66;
}
);
vhints = (
{
position = 61;
width = 54;
},
{
position = 73;
width = 40;
}
);
};
};
width = 254;
},
{
background = {
paths = (
{
closed = 1;
nodes = (
"142 152 OFFCURVE",
"155 165 OFFCURVE",
"155 181 CURVE SMOOTH",
"155 663 LINE SMOOTH",
"155 679 OFFCURVE",
"142 693 OFFCURVE",
"126 693 CURVE SMOOTH",
"110 693 OFFCURVE",
"97 679 OFFCURVE",
"97 663 CURVE SMOOTH",
"97 181 LINE SMOOTH",
"97 165 OFFCURVE",
"110 152 OFFCURVE",
"126 152 CURVE SMOOTH"
);
},
{
closed = 1;
nodes = (
"137 0 OFFCURVE",
"157 20 OFFCURVE",
"157 47 CURVE SMOOTH",
"157 66 OFFCURVE",
"144 83 OFFCURVE",
"125 83 CURVE SMOOTH",
"104 83 OFFCURVE",
"85 61 OFFCURVE",
"85 37 CURVE SMOOTH",
"85 16 OFFCURVE",
"98 0 OFFCURVE",
"117 0 CURVE SMOOTH"
);
}
);
};
layerId = "218416E4-0B36-4DBB-8D0A-D6BB29FB6576";
paths = (
{
closed = 1;
nodes = (
"142 146 OFFCURVE",
"155 159 OFFCURVE",
"155 175 CURVE SMOOTH",
"155 657 LINE SMOOTH",
"155 673 OFFCURVE",
"142 687 OFFCURVE",
"126 687 CURVE SMOOTH",
"110 687 OFFCURVE",
"97 673 OFFCURVE",
"97 657 CURVE SMOOTH",
"97 175 LINE SMOOTH",
"97 159 OFFCURVE",
"110 146 OFFCURVE",
"126 146 CURVE SMOOTH"
);
},
{
closed = 1;
nodes = (
"137 -6 OFFCURVE",
"157 14 OFFCURVE",
"157 41 CURVE SMOOTH",
"157 60 OFFCURVE",
"144 77 OFFCURVE",
"125 77 CURVE SMOOTH",
"104 77 OFFCURVE",
"85 55 OFFCURVE",
"85 31 CURVE SMOOTH",
"85 10 OFFCURVE",
"98 -6 OFFCURVE",
"117 -6 CURVE SMOOTH"
);
}
);
userData = {
com.fontlab.hintData = {
hhints = (
{
position = 0;
width = 83;
}
);
vhints = (
{
position = 55;
width = 72;
},
{
position = 67;
width = 58;
}
);
};
};
width = 242;
},
{
background = {
paths = (
{
closed = 1;
nodes = (
"163 168 OFFCURVE",
"184 190 OFFCURVE",
"184 217 CURVE SMOOTH",
"184 625 LINE SMOOTH",
"184 651 OFFCURVE",
"163 675 OFFCURVE",
"135 675 CURVE SMOOTH",
"108 675 OFFCURVE",
"86 651 OFFCURVE",
"86 625 CURVE SMOOTH",
"86 217 LINE SMOOTH",
"86 190 OFFCURVE",
"108 168 OFFCURVE",
"135 168 CURVE SMOOTH"
);
},
{
closed = 1;
nodes = (
"156 0 OFFCURVE",
"186 28 OFFCURVE",
"186 65 CURVE SMOOTH",
"186 94 OFFCURVE",
"165 121 OFFCURVE",
"134 121 CURVE SMOOTH",
"104 121 OFFCURVE",
"75 90 OFFCURVE",
"75 56 CURVE SMOOTH",
"75 25 OFFCURVE",
"96 0 OFFCURVE",
"127 0 CURVE SMOOTH"
);
}
);
};
layerId = "BB1A411A-CAFC-47D3-A925-066104B707B4";
paths = (
{
closed = 1;
nodes = (
"163 162 OFFCURVE",
"184 184 OFFCURVE",
"184 211 CURVE SMOOTH",
"184 619 LINE SMOOTH",
"184 645 OFFCURVE",
"163 669 OFFCURVE",
"135 669 CURVE SMOOTH",
"108 669 OFFCURVE",
"86 645 OFFCURVE",
"86 619 CURVE SMOOTH",
"86 211 LINE SMOOTH",
"86 184 OFFCURVE",
"108 162 OFFCURVE",
"135 162 CURVE SMOOTH"
);
},
{
closed = 1;
nodes = (
"156 -6 OFFCURVE",
"186 22 OFFCURVE",
"186 59 CURVE SMOOTH",
"186 88 OFFCURVE",
"165 115 OFFCURVE",
"134 115 CURVE SMOOTH",
"104 115 OFFCURVE",
"75 84 OFFCURVE",
"75 50 CURVE SMOOTH",
"75 19 OFFCURVE",
"96 -6 OFFCURVE",
"127 -6 CURVE SMOOTH"
);
}
);
userData = {
com.fontlab.hintData = {
hhints = (
{
position = 0;
width = 121;
}
);
vhints = (
{
position = 44;
width = 111;
},
{
position = 55;
width = 98;
}
);
};
};
width = 261;
}
);
unicode = 0021;
},
{
glyphname = quotedbl;
lastChange = "2020-01-31 00:42:06 +0000";
layers = (
{
background = {
paths = (
{
closed = 1;
nodes = (
"208 521 OFFCURVE",
"217 529 OFFCURVE",
"217 540 CURVE SMOOTH",
"217 679 LINE SMOOTH",
"217 690 OFFCURVE",
"208 698 OFFCURVE",
"198 698 CURVE SMOOTH",
"187 698 OFFCURVE",
"179 690 OFFCURVE",
"179 679 CURVE SMOOTH",
"179 540 LINE SMOOTH",
"179 529 OFFCURVE",
"187 521 OFFCURVE",
"198 521 CURVE SMOOTH"
);
},
{
closed = 1;
nodes = (
"84 521 OFFCURVE",
"93 529 OFFCURVE",
"93 540 CURVE SMOOTH",
"93 679 LINE SMOOTH",
"93 690 OFFCURVE",
"84 698 OFFCURVE",
"74 698 CURVE SMOOTH",
"63 698 OFFCURVE",
"55 690 OFFCURVE",
"55 679 CURVE SMOOTH",
"55 540 LINE SMOOTH",
"55 529 OFFCURVE",
"63 521 OFFCURVE",
"74 521 CURVE SMOOTH"
);
}
);
};
layerId = master01;
paths = (
{
closed = 1;
nodes = (
"208 515 OFFCURVE",
"217 523 OFFCURVE",
"217 534 CURVE SMOOTH",
"217 673 LINE SMOOTH",
"217 684 OFFCURVE",
"208 692 OFFCURVE",
"198 692 CURVE SMOOTH",
"187 692 OFFCURVE",
"179 684 OFFCURVE",
"179 673 CURVE SMOOTH",
"179 534 LINE SMOOTH",
"179 523 OFFCURVE",
"187 515 OFFCURVE",
"198 515 CURVE SMOOTH"
);
},
{
closed = 1;
nodes = (
"84 515 OFFCURVE",
"93 523 OFFCURVE",
"93 534 CURVE SMOOTH",
"93 673 LINE SMOOTH",
"93 684 OFFCURVE",
"84 692 OFFCURVE",
"74 692 CURVE SMOOTH",
"63 692 OFFCURVE",
"55 684 OFFCURVE",
"55 673 CURVE SMOOTH",
"55 534 LINE SMOOTH",
"55 523 OFFCURVE",
"63 515 OFFCURVE",
"74 515 CURVE SMOOTH"
);
}
);
userData = {
com.fontlab.hintData = {
hhints = (
{
position = 521;
width = 177;
}
);
vhints = (
{
position = 74;
width = 38;
},
{
position = 198;
width = 38;
}
);
};
};
width = 272;
},
{
background = {
paths = (
{
closed = 1;
nodes = (
"207 500 OFFCURVE",
"220 512 OFFCURVE",
"220 528 CURVE SMOOTH",
"220 662 LINE SMOOTH",
"220 677 OFFCURVE",
"207 690 OFFCURVE",
"192 690 CURVE SMOOTH",
"176 690 OFFCURVE",
"164 677 OFFCURVE",
"164 662 CURVE SMOOTH",
"164 528 LINE SMOOTH",
"164 512 OFFCURVE",
"176 500 OFFCURVE",
"192 500 CURVE SMOOTH"
);
},
{
closed = 1;
nodes = (
"88 500 OFFCURVE",
"101 512 OFFCURVE",
"101 528 CURVE SMOOTH",
"101 662 LINE SMOOTH",
"101 677 OFFCURVE",
"88 690 OFFCURVE",
"73 690 CURVE SMOOTH",
"57 690 OFFCURVE",
"45 677 OFFCURVE",
"45 662 CURVE SMOOTH",
"45 528 LINE SMOOTH",
"45 512 OFFCURVE",
"57 500 OFFCURVE",
"73 500 CURVE SMOOTH"
);
}
);
};
layerId = "218416E4-0B36-4DBB-8D0A-D6BB29FB6576";
paths = (
{
closed = 1;
nodes = (
"207 494 OFFCURVE",
"220 506 OFFCURVE",
"220 522 CURVE SMOOTH",
"220 656 LINE SMOOTH",
"220 671 OFFCURVE",
"207 684 OFFCURVE",
"192 684 CURVE SMOOTH",
"176 684 OFFCURVE",
"164 671 OFFCURVE",
"164 656 CURVE SMOOTH",
"164 522 LINE SMOOTH",
"164 506 OFFCURVE",
"176 494 OFFCURVE",
"192 494 CURVE SMOOTH"
);
},
{
closed = 1;
nodes = (
"88 494 OFFCURVE",
"101 506 OFFCURVE",
"101 522 CURVE SMOOTH",
"101 656 LINE SMOOTH",
"101 671 OFFCURVE",
"88 684 OFFCURVE",
"73 684 CURVE SMOOTH",
"57 684 OFFCURVE",
"45 671 OFFCURVE",
"45 656 CURVE SMOOTH",
"45 522 LINE SMOOTH",
"45 506 OFFCURVE",
"57 494 OFFCURVE",
"73 494 CURVE SMOOTH"
);
}
);
userData = {
com.fontlab.hintData = {
hhints = (
{
position = 500;
width = 190;
}
);
vhints = (
{
position = 69;
width = 56;
},
{
position = 188;
width = 56;
}
);
};
};
width = 265;
},
{
background = {
paths = (
{
closed = 1;
nodes = (
"262 454 OFFCURVE",
"285 475 OFFCURVE",
"285 502 CURVE SMOOTH",
"285 624 LINE SMOOTH",
"285 650 OFFCURVE",
"262 672 OFFCURVE",
"236 672 CURVE SMOOTH",
"209 672 OFFCURVE",
"188 650 OFFCURVE",
"188 624 CURVE SMOOTH",
"188 502 LINE SMOOTH",
"188 475 OFFCURVE",
"209 454 OFFCURVE",
"236 454 CURVE SMOOTH"
);
},
{
closed = 1;
nodes = (
"114 454 OFFCURVE",
"136 475 OFFCURVE",
"136 502 CURVE SMOOTH",
"136 624 LINE SMOOTH",
"136 650 OFFCURVE",
"114 672 OFFCURVE",
"88 672 CURVE SMOOTH",
"61 672 OFFCURVE",
"40 650 OFFCURVE",
"40 624 CURVE SMOOTH",
"40 502 LINE SMOOTH",
"40 475 OFFCURVE",
"61 454 OFFCURVE",
"88 454 CURVE SMOOTH"
);
}
);
};
layerId = "BB1A411A-CAFC-47D3-A925-066104B707B4";
paths = (
{
closed = 1;
nodes = (
"262 448 OFFCURVE",
"285 469 OFFCURVE",
"285 496 CURVE SMOOTH",
"285 618 LINE SMOOTH",
"285 644 OFFCURVE",
"262 666 OFFCURVE",
"236 666 CURVE SMOOTH",
"209 666 OFFCURVE",
"188 644 OFFCURVE",
"188 618 CURVE SMOOTH",
"188 496 LINE SMOOTH",
"188 469 OFFCURVE",
"209 448 OFFCURVE",
"236 448 CURVE SMOOTH"
);
},
{
closed = 1;
nodes = (
"114 448 OFFCURVE",
"136 469 OFFCURVE",
"136 496 CURVE SMOOTH",
"136 618 LINE SMOOTH",
"136 644 OFFCURVE",
"114 666 OFFCURVE",
"88 666 CURVE SMOOTH",
"61 666 OFFCURVE",
"40 644 OFFCURVE",
"40 618 CURVE SMOOTH",
"40 496 LINE SMOOTH",
"40 469 OFFCURVE",
"61 448 OFFCURVE",
"88 448 CURVE SMOOTH"
);
}
);
userData = {
com.fontlab.hintData = {
hhints = (
{
position = 454;
width = 218;
}
);
vhints = (
{
position = 45;
width = 96;
},
{
position = 193;
width = 97;
}
);
};
};
width = 325;
}
);
unicode = 0022;
},
{
glyphname = numbersign;
lastChange = "2020-01-31 00:42:06 +0000";
layers = (
{
background = {
paths = (
{
closed = 1;
nodes = (
"169 0 OFFCURVE",
"176 5 OFFCURVE",
"179 14 CURVE SMOOTH",
"238 219 LINE",
"420 219 LINE",
"365 34 LINE SMOOTH",
"363 27 OFFCURVE",
"362 22 OFFCURVE",
"362 19 CURVE SMOOTH",
"362 8 OFFCURVE",
"369 0 OFFCURVE",
"381 0 CURVE SMOOTH",
"389 0 OFFCURVE",
"395 5 OFFCURVE",
"398 14 CURVE SMOOTH",
"458 219 LINE",
"608 219 LINE SMOOTH",
"618 219 OFFCURVE",
"627 227 OFFCURVE",
"627 238 CURVE SMOOTH",
"627 248 OFFCURVE",
"618 256 OFFCURVE",
"608 256 CURVE SMOOTH",
"468 256 LINE",
"524 447 LINE",
"655 447 LINE SMOOTH",
"665 447 OFFCURVE",
"674 455 OFFCURVE",
"674 466 CURVE SMOOTH",
"674 476 OFFCURVE",
"665 485 OFFCURVE",
"655 485 CURVE SMOOTH",
"535 485 LINE",
"588 666 LINE SMOOTH",
"590 672 OFFCURVE",
"591 677 OFFCURVE",
"591 681 CURVE SMOOTH",
"591 688 OFFCURVE",
"584 697 OFFCURVE",
"572 697 CURVE SMOOTH",
"564 697 OFFCURVE",
"557 692 OFFCURVE",
"555 684 CURVE SMOOTH",
"497 485 LINE",
"315 485 LINE",
"368 665 LINE SMOOTH",
"370 671 OFFCURVE",
"371 675 OFFCURVE",
"371 679 CURVE SMOOTH",
"371 689 OFFCURVE",
"364 697 OFFCURVE",
"353 697 CURVE SMOOTH",
"344 697 OFFCURVE",
"337 692 OFFCURVE",
"335 684 CURVE SMOOTH",
"278 485 LINE",
"111 485 LINE SMOOTH",
"100 485 OFFCURVE",
"92 476 OFFCURVE",
"92 466 CURVE SMOOTH",
"92 455 OFFCURVE",
"100 447 OFFCURVE",
"111 447 CURVE SMOOTH",
"266 447 LINE",
"211 256 LINE",
"64 256 LINE SMOOTH",
"54 256 OFFCURVE",
"45 248 OFFCURVE",
"45 238 CURVE SMOOTH",
"45 227 OFFCURVE",
"54 219 OFFCURVE",
"64 219 CURVE SMOOTH",
"200 219 LINE",
"145 33 LINE SMOOTH",
"143 26 OFFCURVE",
"142 22 OFFCURVE",
"142 17 CURVE SMOOTH",
"142 8 OFFCURVE",
"149 0 OFFCURVE",
"161 0 CURVE SMOOTH"
);
},
{
closed = 1;
nodes = (
"305 447 LINE",
"486 447 LINE",
"431 256 LINE",
"248 256 LINE"
);
}
);
};
layerId = master01;
paths = (
{
closed = 1;
nodes = (
"169 -6 OFFCURVE",
"176 -1 OFFCURVE",
"179 8 CURVE SMOOTH",
"238 213 LINE",
"420 213 LINE",
"365 28 LINE SMOOTH",
"363 21 OFFCURVE",
"362 16 OFFCURVE",
"362 13 CURVE SMOOTH",
"362 2 OFFCURVE",
"369 -6 OFFCURVE",
"381 -6 CURVE SMOOTH",
"390 -6 OFFCURVE",
"395 -1 OFFCURVE",
"398 8 CURVE SMOOTH",
"458 213 LINE",
"608 213 LINE SMOOTH",
"618 213 OFFCURVE",
"627 221 OFFCURVE",
"627 232 CURVE SMOOTH",
"627 242 OFFCURVE",
"618 250 OFFCURVE",
"608 250 CURVE SMOOTH",
"468 250 LINE",
"524 441 LINE",
"655 441 LINE SMOOTH",
"665 441 OFFCURVE",
"674 449 OFFCURVE",
"674 460 CURVE SMOOTH",
"674 470 OFFCURVE",
"665 479 OFFCURVE",
"655 479 CURVE SMOOTH",
"535 479 LINE",
"588 660 LINE SMOOTH",
"590 666 OFFCURVE",
"591 671 OFFCURVE",
"591 675 CURVE SMOOTH",
"591 682 OFFCURVE",
"584 691 OFFCURVE",
"572 691 CURVE SMOOTH",
"565 691 OFFCURVE",
"557 686 OFFCURVE",
"555 678 CURVE SMOOTH",
"497 479 LINE",
"315 479 LINE",
"368 659 LINE SMOOTH",
"370 666 OFFCURVE",
"371 669 OFFCURVE",
"371 673 CURVE SMOOTH",
"371 683 OFFCURVE",
"364 691 OFFCURVE",
"353 691 CURVE SMOOTH",
"345 691 OFFCURVE",
"337 686 OFFCURVE",
"335 678 CURVE SMOOTH",
"278 479 LINE",
"111 479 LINE SMOOTH",
"100 479 OFFCURVE",
"92 470 OFFCURVE",
"92 460 CURVE SMOOTH",
"92 449 OFFCURVE",
"100 441 OFFCURVE",
"111 441 CURVE SMOOTH",
"266 441 LINE",
"211 250 LINE",
"64 250 LINE SMOOTH",
"54 250 OFFCURVE",
"45 242 OFFCURVE",
"45 232 CURVE SMOOTH",
"45 221 OFFCURVE",
"54 213 OFFCURVE",
"64 213 CURVE SMOOTH",
"200 213 LINE",
"145 27 LINE SMOOTH",
"143 20 OFFCURVE",
"142 16 OFFCURVE",
"142 11 CURVE SMOOTH",
"142 2 OFFCURVE",
"149 -6 OFFCURVE",
"161 -6 CURVE SMOOTH"
);
},
{
closed = 1;
nodes = (
"305 441 LINE",
"486 441 LINE",
"431 250 LINE",
"248 250 LINE"
);
}
);
userData = {
com.fontlab.hintData = {
hhints = (
{
position = 0;
width = 21;
},
{
position = 219;
width = 37;
},
{
position = 447;
width = 38;
}
);
vhints = (
{
position = 158;
width = 37;
},
{
position = 351;
width = 36;
},
{
position = 378;
width = 36;
},
{
position = 571;
width = 36;
}
);
};
};
width = 719;
},
{
background = {
paths = (
{
closed = 1;
nodes = (
"193 0 OFFCURVE",
"205 8 OFFCURVE",
"209 20 CURVE SMOOTH",
"264 210 LINE",
"417 210 LINE",
"369 46 LINE SMOOTH",
"366 37 OFFCURVE",
"365 31 OFFCURVE",
"365 28 CURVE SMOOTH",
"365 13 OFFCURVE",
"376 0 OFFCURVE",
"393 0 CURVE SMOOTH",
"404 0 OFFCURVE",
"416 8 OFFCURVE",
"420 20 CURVE SMOOTH",
"475 210 LINE",
"611 210 LINE SMOOTH",
"626 210 OFFCURVE",
"639 222 OFFCURVE",
"639 238 CURVE SMOOTH",
"639 253 OFFCURVE",
"626 266 OFFCURVE",
"611 266 CURVE SMOOTH",
"491 266 LINE",
"539 429 LINE",
"656 429 LINE SMOOTH",
"671 429 OFFCURVE",
"684 441 OFFCURVE",
"684 457 CURVE SMOOTH",
"684 472 OFFCURVE",
"671 485 OFFCURVE",
"656 485 CURVE SMOOTH",
"555 485 LINE",
"602 646 LINE SMOOTH",
"604 653 OFFCURVE",
"605 658 OFFCURVE",
"605 661 CURVE SMOOTH",
"605 675 OFFCURVE",
"594 689 OFFCURVE",
"577 689 CURVE SMOOTH",
"565 689 OFFCURVE",
"553 681 OFFCURVE",
"550 669 CURVE SMOOTH",
"497 485 LINE",
"344 485 LINE",
"391 645 LINE SMOOTH",
"393 651 OFFCURVE",
"394 656 OFFCURVE",
"394 662 CURVE SMOOTH",
"394 676 OFFCURVE",
"383 689 OFFCURVE",
"366 689 CURVE SMOOTH",
"354 689 OFFCURVE",
"342 681 OFFCURVE",
"339 669 CURVE SMOOTH",
"286 485 LINE",
"134 485 LINE SMOOTH",
"118 485 OFFCURVE",
"106 472 OFFCURVE",
"106 457 CURVE SMOOTH",
"106 441 OFFCURVE",
"118 429 OFFCURVE",
"134 429 CURVE SMOOTH",
"269 429 LINE",
"222 266 LINE",
"89 266 LINE SMOOTH",
"73 266 OFFCURVE",
"61 253 OFFCURVE",
"61 238 CURVE SMOOTH",
"61 222 OFFCURVE",
"73 210 OFFCURVE",
"89 210 CURVE SMOOTH",
"206 210 LINE",
"158 45 LINE SMOOTH",
"155 36 OFFCURVE",
"154 31 OFFCURVE",
"154 26 CURVE SMOOTH",
"154 13 OFFCURVE",
"165 0 OFFCURVE",
"182 0 CURVE SMOOTH"
);
},
{
closed = 1;
nodes = (
"328 429 LINE",
"480 429 LINE",
"433 266 LINE",
"280 266 LINE"
);
}
);
};
layerId = "218416E4-0B36-4DBB-8D0A-D6BB29FB6576";
paths = (
{
closed = 1;
nodes = (
"194 -6 OFFCURVE",
"206 3 OFFCURVE",
"209 14 CURVE SMOOTH",
"264 204 LINE",
"417 204 LINE",
"369 40 LINE SMOOTH",
"367 33 OFFCURVE",
"365 25 OFFCURVE",
"365 22 CURVE SMOOTH",
"365 7 OFFCURVE",
"376 -6 OFFCURVE",
"393 -6 CURVE SMOOTH",
"405 -6 OFFCURVE",
"417 3 OFFCURVE",
"420 14 CURVE SMOOTH",
"475 204 LINE",
"611 204 LINE SMOOTH",
"626 204 OFFCURVE",
"639 216 OFFCURVE",
"639 232 CURVE SMOOTH",
"639 247 OFFCURVE",
"626 260 OFFCURVE",
"611 260 CURVE SMOOTH",
"491 260 LINE",
"539 423 LINE",
"656 423 LINE SMOOTH",
"671 423 OFFCURVE",
"684 435 OFFCURVE",
"684 451 CURVE SMOOTH",
"684 466 OFFCURVE",
"671 479 OFFCURVE",
"656 479 CURVE SMOOTH",
"555 479 LINE",
"602 640 LINE SMOOTH",
"604 647 OFFCURVE",
"605 652 OFFCURVE",
"605 655 CURVE SMOOTH",
"605 669 OFFCURVE",
"594 683 OFFCURVE",
"577 683 CURVE SMOOTH",
"566 683 OFFCURVE",
"553 675 OFFCURVE",
"550 663 CURVE SMOOTH",
"497 479 LINE",
"344 479 LINE",
"391 639 LINE SMOOTH",
"393 646 OFFCURVE",
"394 651 OFFCURVE",
"394 656 CURVE SMOOTH",
"394 670 OFFCURVE",
"383 683 OFFCURVE",
"366 683 CURVE SMOOTH",
"355 683 OFFCURVE",
"342 675 OFFCURVE",
"339 663 CURVE SMOOTH",
"286 479 LINE",
"134 479 LINE SMOOTH",
"118 479 OFFCURVE",
"106 466 OFFCURVE",
"106 451 CURVE SMOOTH",
"106 435 OFFCURVE",
"118 423 OFFCURVE",
"134 423 CURVE SMOOTH",
"269 423 LINE",
"222 260 LINE",
"89 260 LINE SMOOTH",
"73 260 OFFCURVE",
"61 247 OFFCURVE",
"61 232 CURVE SMOOTH",
"61 216 OFFCURVE",
"73 204 OFFCURVE",
"89 204 CURVE SMOOTH",
"206 204 LINE",
"158 39 LINE SMOOTH",
"156 32 OFFCURVE",
"154 25 OFFCURVE",
"154 20 CURVE SMOOTH",
"154 7 OFFCURVE",
"165 -6 OFFCURVE",
"182 -6 CURVE SMOOTH"
);
},
{
closed = 1;
nodes = (
"328 423 LINE",
"480 423 LINE",
"433 260 LINE",
"280 260 LINE"
);
}
);
userData = {
com.fontlab.hintData = {
hhints = (
{
position = 0;
width = 21;
},
{
position = 210;
width = 56;
},
{
position = 429;
width = 56;
},
{
position = 669;
width = 20;
}
);
vhints = (
{
position = 154;
width = 55;
},
{
position = 339;
width = 55;
},
{
position = 365;
width = 55;
},
{
position = 550;
width = 55;
}
);
};
};
width = 746;
},
{
background = {
paths = (
{
closed = 1;
nodes = (
"201 0 OFFCURVE",
"222 11 OFFCURVE",
"229 34 CURVE SMOOTH",
"274 191 LINE",
"365 191 LINE",
"330 72 LINE SMOOTH",
"327 62 OFFCURVE",
"326 53 OFFCURVE",
"326 48 CURVE SMOOTH",
"326 23 OFFCURVE",
"345 0 OFFCURVE",
"374 0 CURVE SMOOTH",
"393 0 OFFCURVE",
"413 10 OFFCURVE",
"420 34 CURVE SMOOTH",
"466 191 LINE",
"572 191 LINE SMOOTH",
"598 191 OFFCURVE",
"620 212 OFFCURVE",
"620 239 CURVE SMOOTH",
"620 264 OFFCURVE",
"598 287 OFFCURVE",
"572 287 CURVE SMOOTH",
"494 287 LINE",
"523 390 LINE",
"613 390 LINE SMOOTH",
"638 390 OFFCURVE",
"661 411 OFFCURVE",
"661 438 CURVE SMOOTH",
"661 463 OFFCURVE",
"638 486 OFFCURVE",
"613 486 CURVE SMOOTH",
"551 486 LINE",
"586 603 LINE SMOOTH",
"588 610 OFFCURVE",
"589 619 OFFCURVE",
"589 623 CURVE SMOOTH",
"589 647 OFFCURVE",
"570 671 OFFCURVE",
"541 671 CURVE SMOOTH",
"521 671 OFFCURVE",
"501 658 OFFCURVE",
"495 637 CURVE SMOOTH",
"451 486 LINE",
"360 486 LINE",
"394 602 LINE SMOOTH",
"396 610 OFFCURVE",
"398 615 OFFCURVE",
"398 624 CURVE SMOOTH",
"398 649 OFFCURVE",
"379 671 OFFCURVE",
"350 671 CURVE SMOOTH",
"330 671 OFFCURVE",
"309 658 OFFCURVE",
"303 637 CURVE SMOOTH",
"260 486 LINE",
"139 486 LINE SMOOTH",
"112 486 OFFCURVE",
"91 463 OFFCURVE",
"91 438 CURVE SMOOTH",
"91 411 OFFCURVE",
"112 390 OFFCURVE",
"139 390 CURVE SMOOTH",
"231 390 LINE",
"201 287 LINE",
"98 287 LINE SMOOTH",
"71 287 OFFCURVE",
"50 264 OFFCURVE",
"50 239 CURVE SMOOTH",
"50 212 OFFCURVE",
"71 191 OFFCURVE",
"98 191 CURVE SMOOTH",
"173 191 LINE",
"139 71 LINE SMOOTH",
"136 61 OFFCURVE",
"134 55 OFFCURVE",
"134 46 CURVE SMOOTH",
"134 23 OFFCURVE",
"153 0 OFFCURVE",
"182 0 CURVE SMOOTH"
);
},
{
closed = 1;
nodes = (
"331 390 LINE",
"423 390 LINE",
"393 287 LINE",
"302 287 LINE"
);
}
);
};
layerId = "BB1A411A-CAFC-47D3-A925-066104B707B4";
paths = (
{
closed = 1;
nodes = (
"201 -6 OFFCURVE",
"222 5 OFFCURVE",
"229 28 CURVE SMOOTH",
"274 185 LINE",
"365 185 LINE",
"330 66 LINE SMOOTH",
"327 56 OFFCURVE",
"326 46 OFFCURVE",
"326 42 CURVE SMOOTH",
"326 17 OFFCURVE",
"345 -6 OFFCURVE",
"374 -6 CURVE SMOOTH",
"392 -6 OFFCURVE",
"413 4 OFFCURVE",
"420 28 CURVE SMOOTH",
"466 185 LINE",
"572 185 LINE SMOOTH",
"598 185 OFFCURVE",
"620 206 OFFCURVE",
"620 233 CURVE SMOOTH",
"620 258 OFFCURVE",
"598 281 OFFCURVE",
"572 281 CURVE SMOOTH",
"494 281 LINE",
"523 384 LINE",
"613 384 LINE SMOOTH",
"638 384 OFFCURVE",
"661 405 OFFCURVE",
"661 432 CURVE SMOOTH",
"661 457 OFFCURVE",
"638 480 OFFCURVE",
"613 480 CURVE SMOOTH",
"551 480 LINE",
"586 597 LINE SMOOTH",
"588 604 OFFCURVE",
"589 613 OFFCURVE",
"589 617 CURVE SMOOTH",
"589 641 OFFCURVE",
"570 665 OFFCURVE",
"541 665 CURVE SMOOTH",
"522 665 OFFCURVE",
"501 652 OFFCURVE",
"495 631 CURVE SMOOTH",
"451 480 LINE",
"360 480 LINE",
"394 596 LINE SMOOTH",
"396 603 OFFCURVE",
"398 608 OFFCURVE",
"398 618 CURVE SMOOTH",
"398 643 OFFCURVE",
"379 665 OFFCURVE",
"350 665 CURVE SMOOTH",
"330 665 OFFCURVE",
"309 652 OFFCURVE",
"303 631 CURVE SMOOTH",
"260 480 LINE",
"139 480 LINE SMOOTH",
"112 480 OFFCURVE",
"91 457 OFFCURVE",
"91 432 CURVE SMOOTH",
"91 405 OFFCURVE",
"112 384 OFFCURVE",
"139 384 CURVE SMOOTH",
"231 384 LINE",
"201 281 LINE",
"98 281 LINE SMOOTH",
"71 281 OFFCURVE",
"50 258 OFFCURVE",
"50 233 CURVE SMOOTH",
"50 206 OFFCURVE",
"71 185 OFFCURVE",
"98 185 CURVE SMOOTH",
"173 185 LINE",
"139 65 LINE SMOOTH",
"136 55 OFFCURVE",
"134 48 OFFCURVE",
"134 40 CURVE SMOOTH",
"134 17 OFFCURVE",
"153 -6 OFFCURVE",
"182 -6 CURVE SMOOTH"
);
},
{
closed = 1;
nodes = (
"331 384 LINE",
"423 384 LINE",
"393 281 LINE",
"302 281 LINE"
);
}
);
userData = {
com.fontlab.hintData = {
hhints = (
{
position = 0;
width = 21;
},
{
position = 191;
width = 96;
},
{
position = 390;
width = 96;
}
);
vhints = (
{
position = 147;
width = 95;
},
{
position = 316;
width = 95;
},
{
position = 339;
width = 94;
},
{
position = 508;
width = 94;
}
);
};
};
width = 711;
}
);
unicode = 0023;
},
{
glyphname = dollar;
lastChange = "2020-01-31 00:42:06 +0000";
layers = (
{
background = {
paths = (
{
closed = 1;
nodes = (
"301 -77 OFFCURVE",
"309 -69 OFFCURVE",
"309 -58 CURVE SMOOTH",
"309 0 LINE",
"434 16 OFFCURVE",
"521 83 OFFCURVE",
"521 189 CURVE SMOOTH",
"521 275 OFFCURVE",
"446 341 OFFCURVE",
"309 380 CURVE",
"309 658 LINE",
"359 658 OFFCURVE",
"467 637 OFFCURVE",
"482 554 CURVE SMOOTH",
"483 546 OFFCURVE",
"492 539 OFFCURVE",
"502 539 CURVE SMOOTH",
"512 539 OFFCURVE",
"519 546 OFFCURVE",
"519 554 CURVE SMOOTH",
"519 654 OFFCURVE",
"401 688 OFFCURVE",
"309 688 CURVE",
"309 743 LINE SMOOTH",
"309 753 OFFCURVE",
"301 762 OFFCURVE",
"291 762 CURVE SMOOTH",
"281 762 OFFCURVE",
"273 753 OFFCURVE",
"273 743 CURVE SMOOTH",
"273 687 LINE",
"180 679 OFFCURVE",
"82 633 OFFCURVE",
"82 521 CURVE SMOOTH",
"82 431 OFFCURVE",
"179 379 OFFCURVE",
"273 349 CURVE",
"273 34 LINE",
"195 43 OFFCURVE",
"115 80 OFFCURVE",
"89 154 CURVE",
"84 165 OFFCURVE",
"76 172 OFFCURVE",
"67 172 CURVE SMOOTH",
"53 172 OFFCURVE",
"45 160 OFFCURVE",
"45 154 CURVE SMOOTH",
"45 150 OFFCURVE",
"46 146 OFFCURVE",
"47 142 CURVE SMOOTH",
"77 61 OFFCURVE",
"165 7 OFFCURVE",
"273 -1 CURVE",
"273 -58 LINE SMOOTH",
"273 -69 OFFCURVE",
"281 -77 OFFCURVE",
"291 -77 CURVE SMOOTH"
);
},
{
closed = 1;
nodes = (
"309 339 LINE",
"466 289 OFFCURVE",
"477 226 OFFCURVE",
"477 195 CURVE SMOOTH",
"477 83 OFFCURVE",
"387 41 OFFCURVE",
"309 34 CURVE"
);
},
{
closed = 1;
nodes = (
"176 425 OFFCURVE",
"127 467 OFFCURVE",
"127 518 CURVE SMOOTH",
"127 573 OFFCURVE",
"152 638 OFFCURVE",
"273 655 CURVE",
"273 391 LINE"
);
}
);
};
layerId = master01;
paths = (
{
closed = 1;
nodes = (
"301 -83 OFFCURVE",
"309 -75 OFFCURVE",
"309 -64 CURVE SMOOTH",
"309 -6 LINE",
"434 10 OFFCURVE",
"521 77 OFFCURVE",
"521 183 CURVE SMOOTH",
"521 269 OFFCURVE",
"446 335 OFFCURVE",
"309 374 CURVE",
"309 652 LINE",
"359 652 OFFCURVE",
"467 631 OFFCURVE",
"482 548 CURVE SMOOTH",
"483 540 OFFCURVE",
"492 533 OFFCURVE",
"502 533 CURVE SMOOTH",
"512 533 OFFCURVE",
"519 540 OFFCURVE",
"519 548 CURVE SMOOTH",
"519 648 OFFCURVE",
"401 682 OFFCURVE",
"309 682 CURVE",
"309 737 LINE SMOOTH",
"309 747 OFFCURVE",
"301 756 OFFCURVE",
"291 756 CURVE SMOOTH",
"281 756 OFFCURVE",
"273 747 OFFCURVE",
"273 737 CURVE SMOOTH",
"273 681 LINE",
"180 673 OFFCURVE",
"82 627 OFFCURVE",
"82 515 CURVE SMOOTH",
"82 425 OFFCURVE",
"179 373 OFFCURVE",
"273 343 CURVE",
"273 28 LINE",
"195 37 OFFCURVE",
"115 74 OFFCURVE",
"89 148 CURVE",
"84 159 OFFCURVE",
"76 166 OFFCURVE",
"67 166 CURVE SMOOTH",
"53 166 OFFCURVE",
"45 154 OFFCURVE",
"45 148 CURVE SMOOTH",
"45 144 OFFCURVE",
"46 140 OFFCURVE",
"47 136 CURVE SMOOTH",
"77 55 OFFCURVE",
"165 1 OFFCURVE",
"273 -7 CURVE",
"273 -64 LINE SMOOTH",
"273 -75 OFFCURVE",
"281 -83 OFFCURVE",
"291 -83 CURVE SMOOTH"
);
},
{
closed = 1;
nodes = (
"309 333 LINE",
"466 283 OFFCURVE",
"477 220 OFFCURVE",
"477 189 CURVE SMOOTH",
"477 77 OFFCURVE",
"387 35 OFFCURVE",
"309 28 CURVE"
);
},
{
closed = 1;
nodes = (
"176 419 OFFCURVE",
"127 461 OFFCURVE",
"127 512 CURVE SMOOTH",
"127 567 OFFCURVE",
"152 632 OFFCURVE",
"273 649 CURVE",
"273 385 LINE"
);
}
);
userData = {
com.fontlab.hintData = {
hhints = (
{
position = -1;
width = 35;
},
{
position = 339;
width = 41;
},
{
position = 658;
width = 30;
}
);
vhints = (
{
position = 66;
width = 44;
},
{
position = 103;
width = 45;
},
{
position = 294;
width = 36;
},
{
position = 498;
width = 44;
}
);
};
};
width = 581;
},
{
background = {
paths = (
{
closed = 1;
nodes = (
"296 -74 OFFCURVE",
"309 -61 OFFCURVE",
"309 -46 CURVE SMOOTH",
"309 1 LINE",
"429 16 OFFCURVE",
"512 84 OFFCURVE",
"512 191 CURVE SMOOTH",
"512 279 OFFCURVE",
"446 342 OFFCURVE",
"309 382 CURVE",
"309 631 LINE",
"327 629 OFFCURVE",
"445 623 OFFCURVE",
"455 541 CURVE SMOOTH",
"457 527 OFFCURVE",
"468 517 OFFCURVE",
"484 517 CURVE SMOOTH",
"498 517 OFFCURVE",
"510 528 OFFCURVE",
"510 542 CURVE SMOOTH",
"510 646 OFFCURVE",
"397 680 OFFCURVE",
"309 680 CURVE",
"309 723 LINE SMOOTH",
"309 738 OFFCURVE",
"296 751 OFFCURVE",
"281 751 CURVE SMOOTH",
"266 751 OFFCURVE",
"254 738 OFFCURVE",
"254 723 CURVE SMOOTH",
"254 678 LINE",
"165 671 OFFCURVE",
"71 624 OFFCURVE",
"71 510 CURVE SMOOTH",
"71 418 OFFCURVE",
"164 366 OFFCURVE",
"254 337 CURVE",
"254 54 LINE",
"188 61 OFFCURVE",
"119 95 OFFCURVE",
"96 162 CURVE SMOOTH",
"91 175 OFFCURVE",
"80 185 OFFCURVE",
"66 185 CURVE SMOOTH",
"47 185 OFFCURVE",
"35 168 OFFCURVE",
"35 158 CURVE SMOOTH",
"35 149 OFFCURVE",
"37 145 OFFCURVE",
"38 142 CURVE SMOOTH",
"68 62 OFFCURVE",
"152 8 OFFCURVE",
"254 0 CURVE",
"254 -46 LINE SMOOTH",
"254 -61 OFFCURVE",
"266 -74 OFFCURVE",
"281 -74 CURVE SMOOTH"
);
},
{
closed = 1;
nodes = (
"309 321 LINE",
"440 279 OFFCURVE",
"450 225 OFFCURVE",
"450 197 CURVE SMOOTH",
"450 109 OFFCURVE",
"387 67 OFFCURVE",
"309 55 CURVE"
);
},
{
closed = 1;
nodes = (
"174 427 OFFCURVE",
"134 463 OFFCURVE",
"134 507 CURVE SMOOTH",
"134 556 OFFCURVE",
"155 612 OFFCURVE",
"254 627 CURVE",
"254 399 LINE"
);
}
);
};
layerId = "218416E4-0B36-4DBB-8D0A-D6BB29FB6576";
paths = (
{
closed = 1;
nodes = (
"296 -80 OFFCURVE",
"309 -67 OFFCURVE",
"309 -52 CURVE SMOOTH",
"309 -5 LINE",
"429 10 OFFCURVE",
"512 78 OFFCURVE",
"512 185 CURVE SMOOTH",
"512 273 OFFCURVE",
"446 336 OFFCURVE",
"309 376 CURVE",
"309 625 LINE",
"327 623 OFFCURVE",
"445 617 OFFCURVE",
"455 535 CURVE SMOOTH",
"457 521 OFFCURVE",
"468 511 OFFCURVE",
"484 511 CURVE SMOOTH",
"498 511 OFFCURVE",
"510 522 OFFCURVE",
"510 536 CURVE SMOOTH",
"510 640 OFFCURVE",
"397 674 OFFCURVE",
"309 674 CURVE",
"309 717 LINE SMOOTH",
"309 732 OFFCURVE",
"296 745 OFFCURVE",
"281 745 CURVE SMOOTH",
"266 745 OFFCURVE",
"254 732 OFFCURVE",
"254 717 CURVE SMOOTH",
"254 672 LINE",
"165 665 OFFCURVE",
"71 618 OFFCURVE",
"71 504 CURVE SMOOTH",
"71 412 OFFCURVE",
"164 360 OFFCURVE",
"254 331 CURVE",
"254 48 LINE",
"188 55 OFFCURVE",
"119 89 OFFCURVE",
"96 156 CURVE SMOOTH",
"91 169 OFFCURVE",
"80 179 OFFCURVE",
"66 179 CURVE SMOOTH",
"47 179 OFFCURVE",
"35 162 OFFCURVE",
"35 152 CURVE SMOOTH",
"35 143 OFFCURVE",
"37 139 OFFCURVE",
"38 136 CURVE SMOOTH",
"67 57 OFFCURVE",
"152 2 OFFCURVE",
"254 -6 CURVE",
"254 -52 LINE SMOOTH",
"254 -67 OFFCURVE",
"266 -80 OFFCURVE",
"281 -80 CURVE SMOOTH"
);
},
{
closed = 1;
nodes = (
"309 315 LINE",
"440 273 OFFCURVE",
"450 219 OFFCURVE",
"450 191 CURVE SMOOTH",
"450 103 OFFCURVE",
"387 61 OFFCURVE",
"309 49 CURVE"
);
},
{
closed = 1;
nodes = (
"174 421 OFFCURVE",
"134 457 OFFCURVE",
"134 501 CURVE SMOOTH",
"134 550 OFFCURVE",
"155 606 OFFCURVE",
"254 621 CURVE",
"254 393 LINE"
);
}
);
userData = {
com.fontlab.hintData = {
hhints = (
{
position = 0;
width = 54;
},
{
position = 321;
width = 61;
},
{
position = 631;
width = 49;
}
);
vhints = (
{
position = 64;
width = 61;
},
{
position = 100;
width = 63;
},
{
position = 283;
width = 55;
},
{
position = 479;
width = 62;
}
);
};
};
width = 577;
},
{
background = {
paths = (
{
closed = 1;
nodes = (
"310 -67 OFFCURVE",
"333 -45 OFFCURVE",
"333 -19 CURVE SMOOTH",
"333 4 LINE",
"443 24 OFFCURVE",
"517 92 OFFCURVE",
"517 196 CURVE SMOOTH",
"517 283 OFFCURVE",
"457 346 OFFCURVE",
"333 386 CURVE",
"333 570 LINE",
"365 565 OFFCURVE",
"415 551 OFFCURVE",
"420 511 CURVE SMOOTH",
"423 487 OFFCURVE",
"442 470 OFFCURVE",
"469 470 CURVE SMOOTH",
"493 470 OFFCURVE",
"515 490 OFFCURVE",
"515 515 CURVE SMOOTH",
"515 618 OFFCURVE",
"418 657 OFFCURVE",
"333 662 CURVE",
"333 680 LINE SMOOTH",
"333 705 OFFCURVE",
"310 728 OFFCURVE",
"284 728 CURVE SMOOTH",
"258 728 OFFCURVE",
"237 705 OFFCURVE",
"237 680 CURVE SMOOTH",
"237 659 LINE",
"151 648 OFFCURVE",
"71 599 OFFCURVE",
"71 486 CURVE SMOOTH",
"71 394 OFFCURVE",
"153 341 OFFCURVE",
"237 312 CURVE",
"237 98 LINE",
"192 108 OFFCURVE",
"152 134 OFFCURVE",
"137 177 CURVE SMOOTH",
"130 198 OFFCURVE",
"112 213 OFFCURVE",
"89 213 CURVE SMOOTH",
"58 213 OFFCURVE",
"38 184 OFFCURVE",
"38 166 CURVE SMOOTH",
"38 152 OFFCURVE",
"41 148 OFFCURVE",
"42 144 CURVE SMOOTH",
"71 68 OFFCURVE",
"145 16 OFFCURVE",
"237 3 CURVE",
"237 -19 LINE SMOOTH",
"237 -45 OFFCURVE",
"258 -67 OFFCURVE",
"284 -67 CURVE SMOOTH"
);
},
{
closed = 1;
nodes = (
"333 282 LINE",
"408 251 OFFCURVE",
"415 219 OFFCURVE",
"415 202 CURVE SMOOTH",
"415 145 OFFCURVE",
"380 114 OFFCURVE",
"333 101 CURVE"
);
},
{
closed = 1;
nodes = (
"195 438 OFFCURVE",
"174 460 OFFCURVE",
"174 483 CURVE SMOOTH",
"174 513 OFFCURVE",
"184 549 OFFCURVE",
"237 564 CURVE",
"237 419 LINE"
);
}
);
};
layerId = "BB1A411A-CAFC-47D3-A925-066104B707B4";
paths = (
{
closed = 1;
nodes = (
"310 -73 OFFCURVE",
"333 -51 OFFCURVE",
"333 -25 CURVE SMOOTH",
"333 -2 LINE",
"443 18 OFFCURVE",
"517 86 OFFCURVE",
"517 190 CURVE SMOOTH",
"517 277 OFFCURVE",
"457 340 OFFCURVE",
"333 380 CURVE",
"333 564 LINE",
"365 559 OFFCURVE",
"415 545 OFFCURVE",
"420 505 CURVE SMOOTH",
"423 481 OFFCURVE",
"442 464 OFFCURVE",
"469 464 CURVE SMOOTH",
"493 464 OFFCURVE",
"515 484 OFFCURVE",
"515 509 CURVE SMOOTH",
"515 612 OFFCURVE",
"418 651 OFFCURVE",
"333 656 CURVE",
"333 674 LINE SMOOTH",
"333 699 OFFCURVE",
"310 722 OFFCURVE",
"284 722 CURVE SMOOTH",
"258 722 OFFCURVE",
"237 699 OFFCURVE",
"237 674 CURVE SMOOTH",
"237 653 LINE",
"151 642 OFFCURVE",
"71 593 OFFCURVE",
"71 480 CURVE SMOOTH",
"71 388 OFFCURVE",
"153 335 OFFCURVE",
"237 306 CURVE",
"237 92 LINE",
"192 102 OFFCURVE",
"152 128 OFFCURVE",
"137 171 CURVE SMOOTH",
"130 192 OFFCURVE",
"112 207 OFFCURVE",
"89 207 CURVE SMOOTH",
"58 207 OFFCURVE",
"38 178 OFFCURVE",
"38 160 CURVE SMOOTH",
"38 146 OFFCURVE",
"41 142 OFFCURVE",
"42 138 CURVE SMOOTH",
"68 69 OFFCURVE",
"138 11 OFFCURVE",
"237 -3 CURVE",
"237 -25 LINE SMOOTH",
"237 -51 OFFCURVE",
"258 -73 OFFCURVE",
"284 -73 CURVE SMOOTH"
);
},
{
closed = 1;
nodes = (
"333 276 LINE",
"408 245 OFFCURVE",
"415 213 OFFCURVE",
"415 196 CURVE SMOOTH",
"415 139 OFFCURVE",
"380 108 OFFCURVE",
"333 95 CURVE"
);
},
{
closed = 1;
nodes = (
"195 432 OFFCURVE",
"174 454 OFFCURVE",
"174 477 CURVE SMOOTH",
"174 507 OFFCURVE",
"184 543 OFFCURVE",
"237 558 CURVE",
"237 413 LINE"
);
}
);
userData = {
com.fontlab.hintData = {
hhints = (
{
position = 3;
width = 95;
},
{
position = 570;
width = 92;
}
);
vhints = (
{
position = 95;
width = 103;
},
{
position = 261;
width = 96;
},
{
position = 439;
width = 102;
}
);
};
};
width = 577;
}
);
unicode = 0024;
},
{
glyphname = percent;
lastChange = "2020-01-31 00:42:06 +0000";
layers = (
{
background = {
paths = (
{
closed = 1;
nodes = (
"165 0 OFFCURVE",
"171 3 OFFCURVE",
"174 8 CURVE SMOOTH",
"543 674 LINE SMOOTH",
"544 676 OFFCURVE",
"545 679 OFFCURVE",
"545 682 CURVE SMOOTH",
"545 691 OFFCURVE",
"537 698 OFFCURVE",
"528 698 CURVE SMOOTH",
"522 698 OFFCURVE",
"518 696 OFFCURVE",
"515 690 CURVE SMOOTH",
"148 27 LINE SMOOTH",
"145 22 OFFCURVE",
"144 17 OFFCURVE",
"144 15 CURVE SMOOTH",
"144 7 OFFCURVE",
"150 0 OFFCURVE",
"159 0 CURVE SMOOTH"
);
},
{
closed = 1;
nodes = (
"583 -8 OFFCURVE",
"643 51 OFFCURVE",
"643 123 CURVE SMOOTH",
"643 195 OFFCURVE",
"583 254 OFFCURVE",
"511 254 CURVE SMOOTH",
"440 254 OFFCURVE",
"380 195 OFFCURVE",
"380 123 CURVE SMOOTH",
"380 51 OFFCURVE",
"440 -8 OFFCURVE",
"511 -8 CURVE SMOOTH"
);
},
{
closed = 1;
nodes = (
"459 27 OFFCURVE",
"416 69 OFFCURVE",
"416 123 CURVE SMOOTH",
"416 175 OFFCURVE",
"459 219 OFFCURVE",
"511 219 CURVE SMOOTH",
"564 219 OFFCURVE",
"607 175 OFFCURVE",
"607 123 CURVE SMOOTH",
"607 69 OFFCURVE",
"564 27 OFFCURVE",
"511 27 CURVE SMOOTH"
);
},
{
closed = 1;
nodes = (
"244 440 OFFCURVE",
"303 499 OFFCURVE",
"303 571 CURVE SMOOTH",
"303 643 OFFCURVE",
"244 702 OFFCURVE",
"172 702 CURVE SMOOTH",
"100 702 OFFCURVE",
"40 643 OFFCURVE",
"40 571 CURVE SMOOTH",
"40 499 OFFCURVE",
"100 440 OFFCURVE",
"172 440 CURVE SMOOTH"
);
},
{
closed = 1;
nodes = (
"120 475 OFFCURVE",
"76 517 OFFCURVE",
"76 571 CURVE SMOOTH",
"76 623 OFFCURVE",
"120 667 OFFCURVE",
"172 667 CURVE SMOOTH",
"224 667 OFFCURVE",
"268 623 OFFCURVE",
"268 571 CURVE SMOOTH",
"268 517 OFFCURVE",
"224 475 OFFCURVE",
"172 475 CURVE SMOOTH"
);
}
);
};
layerId = master01;
paths = (
{
closed = 1;
nodes = (
"166 -6 OFFCURVE",
"171 -3 OFFCURVE",
"174 2 CURVE SMOOTH",
"543 668 LINE SMOOTH",
"544 670 OFFCURVE",
"545 673 OFFCURVE",
"545 676 CURVE SMOOTH",
"545 685 OFFCURVE",
"537 692 OFFCURVE",
"528 692 CURVE SMOOTH",
"522 692 OFFCURVE",
"518 690 OFFCURVE",
"515 684 CURVE SMOOTH",
"148 21 LINE SMOOTH",
"145 16 OFFCURVE",
"144 11 OFFCURVE",
"144 9 CURVE SMOOTH",
"144 1 OFFCURVE",
"150 -6 OFFCURVE",
"159 -6 CURVE SMOOTH"
);
},
{
closed = 1;
nodes = (
"583 -14 OFFCURVE",
"643 45 OFFCURVE",
"643 117 CURVE SMOOTH",
"643 189 OFFCURVE",
"583 248 OFFCURVE",
"511 248 CURVE SMOOTH",
"440 248 OFFCURVE",
"380 189 OFFCURVE",
"380 117 CURVE SMOOTH",
"380 45 OFFCURVE",
"440 -14 OFFCURVE",
"511 -14 CURVE SMOOTH"
);
},
{
closed = 1;
nodes = (
"459 21 OFFCURVE",
"416 63 OFFCURVE",
"416 117 CURVE SMOOTH",
"416 169 OFFCURVE",
"459 213 OFFCURVE",
"511 213 CURVE SMOOTH",
"564 213 OFFCURVE",
"607 169 OFFCURVE",
"607 117 CURVE SMOOTH",
"607 63 OFFCURVE",
"564 21 OFFCURVE",
"511 21 CURVE SMOOTH"
);
},
{
closed = 1;
nodes = (
"244 434 OFFCURVE",
"303 493 OFFCURVE",
"303 565 CURVE SMOOTH",
"303 637 OFFCURVE",
"244 696 OFFCURVE",
"172 696 CURVE SMOOTH",
"100 696 OFFCURVE",
"40 637 OFFCURVE",
"40 565 CURVE SMOOTH",
"40 493 OFFCURVE",
"100 434 OFFCURVE",
"172 434 CURVE SMOOTH"
);
},
{
closed = 1;
nodes = (
"120 469 OFFCURVE",
"76 511 OFFCURVE",
"76 565 CURVE SMOOTH",
"76 617 OFFCURVE",
"120 661 OFFCURVE",
"172 661 CURVE SMOOTH",
"224 661 OFFCURVE",
"268 617 OFFCURVE",
"268 565 CURVE SMOOTH",
"268 511 OFFCURVE",
"224 469 OFFCURVE",
"172 469 CURVE SMOOTH"
);
}
);
userData = {
com.fontlab.hintData = {
hhints = (
{
position = -8;
width = 35;
},
{
position = 0;
width = 21;
},
{
position = 219;
width = 35;
},
{
position = 440;
width = 35;
},
{
position = 667;
width = 35;
}
);
vhints = (
{
position = 61;
width = 36;
},
{
position = 289;
width = 35;
},
{
position = 401;
width = 36;
},
{
position = 628;
width = 36;
}
);
};
};
width = 683;
},
{
background = {
paths = (
{
closed = 1;
nodes = (
"194 0 OFFCURVE",
"203 4 OFFCURVE",
"208 13 CURVE SMOOTH",
"562 652 LINE SMOOTH",
"564 656 OFFCURVE",
"565 660 OFFCURVE",
"565 664 CURVE SMOOTH",
"565 677 OFFCURVE",
"554 690 OFFCURVE",
"539 690 CURVE SMOOTH",
"530 690 OFFCURVE",
"522 685 OFFCURVE",
"517 677 CURVE SMOOTH",
"165 41 LINE SMOOTH",
"161 34 OFFCURVE",
"160 28 OFFCURVE",
"160 24 CURVE SMOOTH",
"160 12 OFFCURVE",
"170 0 OFFCURVE",
"185 0 CURVE SMOOTH"
);
},
{
closed = 1;
nodes = (
"598 -8 OFFCURVE",
"659 53 OFFCURVE",
"659 128 CURVE SMOOTH",
"659 203 OFFCURVE",
"598 264 OFFCURVE",
"523 264 CURVE SMOOTH",
"448 264 OFFCURVE",
"387 203 OFFCURVE",
"387 128 CURVE SMOOTH",
"387 53 OFFCURVE",
"448 -8 OFFCURVE",
"523 -8 CURVE SMOOTH"
);
},
{
closed = 1;
nodes = (
"478 46 OFFCURVE",
"441 82 OFFCURVE",
"441 128 CURVE SMOOTH",
"441 173 OFFCURVE",
"478 210 OFFCURVE",
"523 210 CURVE SMOOTH",
"568 210 OFFCURVE",
"605 173 OFFCURVE",
"605 128 CURVE SMOOTH",
"605 82 OFFCURVE",
"568 46 OFFCURVE",
"523 46 CURVE SMOOTH"
);
},
{
closed = 1;
nodes = (
"272 422 OFFCURVE",
"333 483 OFFCURVE",
"333 558 CURVE SMOOTH",
"333 633 OFFCURVE",
"272 694 OFFCURVE",
"197 694 CURVE SMOOTH",
"122 694 OFFCURVE",
"61 633 OFFCURVE",
"61 558 CURVE SMOOTH",
"61 483 OFFCURVE",
"122 422 OFFCURVE",
"197 422 CURVE SMOOTH"
);
},
{
closed = 1;
nodes = (
"152 476 OFFCURVE",
"115 512 OFFCURVE",
"115 558 CURVE SMOOTH",
"115 603 OFFCURVE",
"152 640 OFFCURVE",
"197 640 CURVE SMOOTH",
"242 640 OFFCURVE",
"279 603 OFFCURVE",
"279 558 CURVE SMOOTH",
"279 512 OFFCURVE",
"242 476 OFFCURVE",
"197 476 CURVE SMOOTH"
);
}
);
};
layerId = "218416E4-0B36-4DBB-8D0A-D6BB29FB6576";
paths = (
{
closed = 1;
nodes = (
"195 -6 OFFCURVE",
"203 -2 OFFCURVE",
"208 7 CURVE SMOOTH",
"562 646 LINE SMOOTH",
"564 650 OFFCURVE",
"565 654 OFFCURVE",
"565 658 CURVE SMOOTH",
"565 671 OFFCURVE",
"554 684 OFFCURVE",
"539 684 CURVE SMOOTH",
"531 684 OFFCURVE",
"522 680 OFFCURVE",
"517 671 CURVE SMOOTH",
"165 35 LINE SMOOTH",
"161 28 OFFCURVE",
"160 22 OFFCURVE",
"160 18 CURVE SMOOTH",
"160 6 OFFCURVE",
"170 -6 OFFCURVE",
"185 -6 CURVE SMOOTH"
);
},
{
closed = 1;
nodes = (
"598 -14 OFFCURVE",
"659 47 OFFCURVE",
"659 122 CURVE SMOOTH",
"659 197 OFFCURVE",
"598 258 OFFCURVE",
"523 258 CURVE SMOOTH",
"448 258 OFFCURVE",
"387 197 OFFCURVE",
"387 122 CURVE SMOOTH",
"387 47 OFFCURVE",
"448 -14 OFFCURVE",
"523 -14 CURVE SMOOTH"
);
},
{
closed = 1;
nodes = (
"478 40 OFFCURVE",
"441 76 OFFCURVE",
"441 122 CURVE SMOOTH",
"441 167 OFFCURVE",
"478 204 OFFCURVE",
"523 204 CURVE SMOOTH",
"568 204 OFFCURVE",
"605 167 OFFCURVE",
"605 122 CURVE SMOOTH",
"605 76 OFFCURVE",
"568 40 OFFCURVE",
"523 40 CURVE SMOOTH"
);
},
{
closed = 1;
nodes = (
"272 416 OFFCURVE",
"333 477 OFFCURVE",
"333 552 CURVE SMOOTH",
"333 627 OFFCURVE",
"272 688 OFFCURVE",
"197 688 CURVE SMOOTH",
"122 688 OFFCURVE",
"61 627 OFFCURVE",
"61 552 CURVE SMOOTH",
"61 477 OFFCURVE",
"122 416 OFFCURVE",
"197 416 CURVE SMOOTH"
);
},
{
closed = 1;
nodes = (
"152 470 OFFCURVE",
"115 506 OFFCURVE",
"115 552 CURVE SMOOTH",
"115 597 OFFCURVE",
"152 634 OFFCURVE",
"197 634 CURVE SMOOTH",
"242 634 OFFCURVE",
"279 597 OFFCURVE",
"279 552 CURVE SMOOTH",
"279 506 OFFCURVE",
"242 470 OFFCURVE",
"197 470 CURVE SMOOTH"
);
}
);
userData = {
com.fontlab.hintData = {
hhints = (
{
position = -8;
width = 54;
},
{
position = 0;
width = 21;
},
{
position = 210;
width = 54;
},
{
position = 422;
width = 54;
},
{
position = 640;
width = 54;
},
{
position = 670;
width = 20;
}
);
vhints = (
{
position = 61;
width = 54;
},
{
position = 279;
width = 54;
},
{
position = 387;
width = 54;
},
{
position = 605;
width = 54;
}
);
};
};
width = 728;
},
{
background = {
paths = (
{
closed = 1;
nodes = (
"197 0 OFFCURVE",
"213 7 OFFCURVE",
"222 24 CURVE SMOOTH",
"544 604 LINE SMOOTH",
"548 611 OFFCURVE",
"549 619 OFFCURVE",
"549 626 CURVE SMOOTH",
"549 649 OFFCURVE",
"529 672 OFFCURVE",
"503 672 CURVE SMOOTH",
"487 672 OFFCURVE",
"471 664 OFFCURVE",
"463 649 CURVE SMOOTH",
"143 71 LINE SMOOTH",
"138 61 OFFCURVE",
"136 51 OFFCURVE",
"136 45 CURVE SMOOTH",
"136 22 OFFCURVE",
"154 0 OFFCURVE",
"182 0 CURVE SMOOTH"
);
},
{
closed = 1;
nodes = (
"569 -7 OFFCURVE",
"635 58 OFFCURVE",
"635 139 CURVE SMOOTH",
"635 220 OFFCURVE",
"569 285 OFFCURVE",
"489 285 CURVE SMOOTH",
"408 285 OFFCURVE",
"342 220 OFFCURVE",
"342 139 CURVE SMOOTH",
"342 58 OFFCURVE",
"408 -7 OFFCURVE",
"489 -7 CURVE SMOOTH"
);
},
{
closed = 1;
nodes = (
"460 87 OFFCURVE",
"437 110 OFFCURVE",
"437 139 CURVE SMOOTH",
"437 167 OFFCURVE",
"460 191 OFFCURVE",
"489 191 CURVE SMOOTH",
"517 191 OFFCURVE",
"540 167 OFFCURVE",
"540 139 CURVE SMOOTH",
"540 110 OFFCURVE",
"517 87 OFFCURVE",
"489 87 CURVE SMOOTH"
);
},
{
closed = 1;
nodes = (
"273 383 OFFCURVE",
"339 449 OFFCURVE",
"339 530 CURVE SMOOTH",
"339 610 OFFCURVE",
"273 676 OFFCURVE",
"192 676 CURVE SMOOTH",
"112 676 OFFCURVE",
"46 610 OFFCURVE",
"46 530 CURVE SMOOTH",
"46 449 OFFCURVE",
"112 383 OFFCURVE",
"192 383 CURVE SMOOTH"
);
},
{
closed = 1;
nodes = (
"164 478 OFFCURVE",
"141 501 OFFCURVE",
"141 530 CURVE SMOOTH",
"141 558 OFFCURVE",
"164 581 OFFCURVE",
"192 581 CURVE SMOOTH",
"221 581 OFFCURVE",
"244 558 OFFCURVE",
"244 530 CURVE SMOOTH",
"244 501 OFFCURVE",
"221 478 OFFCURVE",
"192 478 CURVE SMOOTH"
);
}
);
};
layerId = "BB1A411A-CAFC-47D3-A925-066104B707B4";
paths = (
{
closed = 1;
nodes = (
"197 -6 OFFCURVE",
"213 1 OFFCURVE",
"222 18 CURVE SMOOTH",
"544 598 LINE SMOOTH",
"548 605 OFFCURVE",
"549 614 OFFCURVE",
"549 620 CURVE SMOOTH",
"549 643 OFFCURVE",
"529 666 OFFCURVE",
"503 666 CURVE SMOOTH",
"488 666 OFFCURVE",
"471 658 OFFCURVE",
"463 643 CURVE SMOOTH",
"143 65 LINE SMOOTH",
"138 56 OFFCURVE",
"136 46 OFFCURVE",
"136 39 CURVE SMOOTH",
"136 16 OFFCURVE",
"154 -6 OFFCURVE",
"182 -6 CURVE SMOOTH"
);
},
{
closed = 1;
nodes = (
"569 -13 OFFCURVE",
"635 52 OFFCURVE",
"635 133 CURVE SMOOTH",
"635 214 OFFCURVE",
"569 279 OFFCURVE",
"489 279 CURVE SMOOTH",
"408 279 OFFCURVE",
"342 214 OFFCURVE",
"342 133 CURVE SMOOTH",
"342 52 OFFCURVE",
"408 -13 OFFCURVE",
"489 -13 CURVE SMOOTH"
);
},
{
closed = 1;
nodes = (
"460 81 OFFCURVE",
"437 104 OFFCURVE",
"437 133 CURVE SMOOTH",
"437 161 OFFCURVE",
"460 185 OFFCURVE",
"489 185 CURVE SMOOTH",
"517 185 OFFCURVE",
"540 161 OFFCURVE",
"540 133 CURVE SMOOTH",
"540 104 OFFCURVE",
"517 81 OFFCURVE",
"489 81 CURVE SMOOTH"
);
},
{
closed = 1;
nodes = (
"273 377 OFFCURVE",
"339 443 OFFCURVE",
"339 524 CURVE SMOOTH",
"339 604 OFFCURVE",
"273 670 OFFCURVE",
"192 670 CURVE SMOOTH",
"112 670 OFFCURVE",
"46 604 OFFCURVE",
"46 524 CURVE SMOOTH",
"46 443 OFFCURVE",
"112 377 OFFCURVE",
"192 377 CURVE SMOOTH"
);
},
{
closed = 1;
nodes = (
"164 472 OFFCURVE",
"141 495 OFFCURVE",
"141 524 CURVE SMOOTH",
"141 552 OFFCURVE",
"164 575 OFFCURVE",
"192 575 CURVE SMOOTH",
"221 575 OFFCURVE",
"244 552 OFFCURVE",
"244 524 CURVE SMOOTH",
"244 495 OFFCURVE",
"221 472 OFFCURVE",
"192 472 CURVE SMOOTH"
);
}
);
userData = {
com.fontlab.hintData = {
hhints = (
{
position = -7;
width = 94;
},
{
position = 0;
width = 21;
},
{
position = 191;
width = 94;
},
{
position = 383;
width = 95;
},
{
position = 581;
width = 95;
}
);
vhints = (
{
position = 62;
width = 95;
},
{
position = 260;
width = 95;
},
{
position = 358;
width = 95;
},
{
position = 556;
width = 95;
}
);
};
};
width = 681;
}
);
unicode = 0025;
},
{
color = 4;
glyphname = ampersand;
lastChange = "2020-01-31 00:42:06 +0000";
layers = (
{
background = {
paths = (
{
closed = 1;
nodes = (
"274 -4 OFFCURVE",
"370 3 OFFCURVE",
"454 121 CURVE",
"551 6 LINE SMOOTH",
"555 2 OFFCURVE",
"560 0 OFFCURVE",
"565 0 CURVE SMOOTH",
"574 0 OFFCURVE",
"583 8 OFFCURVE",
"583 18 CURVE SMOOTH",
"583 22 OFFCURVE",
"581 25 OFFCURVE",
"578 29 CURVE SMOOTH",
"474 154 LINE",
"488 180 OFFCURVE",
"521 261 OFFCURVE",
"521 279 CURVE SMOOTH",
"521 289 OFFCURVE",
"514 296 OFFCURVE",
"505 296 CURVE SMOOTH",
"492 296 OFFCURVE",
"489 290 OFFCURVE",
"483 270 CURVE SMOOTH",
"474 243 OFFCURVE",
"468 219 OFFCURVE",
"449 183 CURVE",
"280 385 LINE",
"378 438 OFFCURVE",
"424 485 OFFCURVE",
"424 564 CURVE SMOOTH",
"424 633 OFFCURVE",
"356 698 OFFCURVE",
"282 698 CURVE SMOOTH",
"208 698 OFFCURVE",
"139 634 OFFCURVE",
"139 561 CURVE SMOOTH",
"139 498 OFFCURVE",
"191 431 OFFCURVE",
"224 393 CURVE",
"136 345 OFFCURVE",
"48 292 OFFCURVE",
"48 178 CURVE SMOOTH",
"48 66 OFFCURVE",
"153 -4 OFFCURVE",
"249 -4 CURVE SMOOTH"
);
},
{
closed = 1;
nodes = (
"183 31 OFFCURVE",
"84 77 OFFCURVE",
"84 178 CURVE SMOOTH",
"84 278 OFFCURVE",
"156 319 OFFCURVE",
"249 368 CURVE",
"431 150 LINE",
"358 39 OFFCURVE",
"272 31 OFFCURVE",
"249 31 CURVE SMOOTH"
);
},
{
closed = 1;
nodes = (
"224 444 OFFCURVE",
"174 507 OFFCURVE",
"174 561 CURVE SMOOTH",
"174 619 OFFCURVE",
"232 663 OFFCURVE",
"282 663 CURVE SMOOTH",
"337 663 OFFCURVE",
"390 612 OFFCURVE",
"390 562 CURVE SMOOTH",
"390 522 OFFCURVE",
"389 477 OFFCURVE",
"257 412 CURVE"
);
}
);
};
layerId = master01;
paths = (
{
closed = 1;
nodes = (
"274 -10 OFFCURVE",
"370 -3 OFFCURVE",
"454 115 CURVE",
"551 0 LINE SMOOTH",
"553 -3 OFFCURVE",
"559 -6 OFFCURVE",
"565 -6 CURVE SMOOTH",
"574 -6 OFFCURVE",
"583 2 OFFCURVE",
"583 12 CURVE SMOOTH",
"583 16 OFFCURVE",
"581 19 OFFCURVE",
"578 23 CURVE SMOOTH",
"474 148 LINE",
"488 174 OFFCURVE",
"521 255 OFFCURVE",
"521 273 CURVE SMOOTH",
"521 283 OFFCURVE",
"514 290 OFFCURVE",
"505 290 CURVE SMOOTH",
"492 290 OFFCURVE",
"489 284 OFFCURVE",
"483 264 CURVE SMOOTH",
"474 237 OFFCURVE",
"468 213 OFFCURVE",
"449 177 CURVE",
"280 379 LINE",
"378 432 OFFCURVE",
"424 479 OFFCURVE",
"424 558 CURVE SMOOTH",
"424 627 OFFCURVE",
"356 692 OFFCURVE",
"282 692 CURVE SMOOTH",
"208 692 OFFCURVE",
"139 628 OFFCURVE",
"139 555 CURVE SMOOTH",
"139 492 OFFCURVE",
"191 425 OFFCURVE",
"224 387 CURVE",
"136 339 OFFCURVE",
"48 286 OFFCURVE",
"48 172 CURVE SMOOTH",
"48 60 OFFCURVE",
"153 -10 OFFCURVE",
"249 -10 CURVE SMOOTH"
);
},
{
closed = 1;
nodes = (
"183 25 OFFCURVE",
"84 71 OFFCURVE",
"84 172 CURVE SMOOTH",
"84 272 OFFCURVE",
"156 313 OFFCURVE",
"249 362 CURVE",
"431 144 LINE",
"358 33 OFFCURVE",
"272 25 OFFCURVE",
"249 25 CURVE SMOOTH"
);
},
{
closed = 1;
nodes = (
"224 438 OFFCURVE",
"174 501 OFFCURVE",
"174 555 CURVE SMOOTH",
"174 613 OFFCURVE",
"232 657 OFFCURVE",
"282 657 CURVE SMOOTH",
"337 657 OFFCURVE",
"390 606 OFFCURVE",
"390 556 CURVE SMOOTH",
"390 516 OFFCURVE",
"389 471 OFFCURVE",
"257 406 CURVE"
);
}
);
userData = {
com.fontlab.hintData = {
hhints = (
{
position = -4;
width = 35;
},
{
position = 0;
width = 21;
},
{
position = 663;
width = 35;
}
);
vhints = (
{
position = 62;
width = 36;
},
{
position = 153;
width = 35;
},
{
position = 404;
width = 34;
},
{
position = 497;
width = 38;
}
);
};
};
width = 621;
},
{
background = {
paths = (
{
closed = 1;
nodes = (
"288 -4 OFFCURVE",
"384 3 OFFCURVE",
"461 110 CURVE",
"545 10 LINE SMOOTH",
"550 4 OFFCURVE",
"558 0 OFFCURVE",
"566 0 CURVE SMOOTH",
"581 0 OFFCURVE",
"593 12 OFFCURVE",
"593 27 CURVE SMOOTH",
"593 33 OFFCURVE",
"590 40 OFFCURVE",
"587 44 CURVE SMOOTH",
"491 159 LINE",
"505 184 OFFCURVE",
"534 258 OFFCURVE",
"534 278 CURVE SMOOTH",
"534 293 OFFCURVE",
"523 304 OFFCURVE",
"508 304 CURVE SMOOTH",
"491 304 OFFCURVE",
"486 296 OFFCURVE",
"478 272 CURVE SMOOTH",
"470 246 OFFCURVE",
"463 223 OFFCURVE",
"453 204 CURVE",
"309 376 LINE",
"399 424 OFFCURVE",
"441 470 OFFCURVE",
"441 551 CURVE SMOOTH",
"441 622 OFFCURVE",
"370 690 OFFCURVE",
"294 690 CURVE SMOOTH",
"218 690 OFFCURVE",
"147 623 OFFCURVE",
"147 548 CURVE SMOOTH",
"147 485 OFFCURVE",
"193 424 OFFCURVE",
"223 390 CURVE",
"141 346 OFFCURVE",
"60 297 OFFCURVE",
"60 181 CURVE SMOOTH",
"60 67 OFFCURVE",
"166 -4 OFFCURVE",
"263 -4 CURVE SMOOTH"
);
},
{
closed = 1;
nodes = (
"203 50 OFFCURVE",
"114 91 OFFCURVE",
"114 181 CURVE SMOOTH",
"114 270 OFFCURVE",
"179 306 OFFCURVE",
"261 350 CURVE",
"425 153 LINE",
"362 56 OFFCURVE",
"284 50 OFFCURVE",
"263 50 CURVE SMOOTH"
);
},
{
closed = 1;
nodes = (
"244 445 OFFCURVE",
"201 500 OFFCURVE",
"201 548 CURVE SMOOTH",
"201 598 OFFCURVE",
"251 636 OFFCURVE",
"294 636 CURVE SMOOTH",
"342 636 OFFCURVE",
"388 592 OFFCURVE",
"388 549 CURVE SMOOTH",
"388 514 OFFCURVE",
"387 474 OFFCURVE",
"272 417 CURVE"
);
}
);
};
layerId = "218416E4-0B36-4DBB-8D0A-D6BB29FB6576";
paths = (
{
closed = 1;
nodes = (
"288 -10 OFFCURVE",
"384 -3 OFFCURVE",
"461 104 CURVE",
"545 4 LINE SMOOTH",
"550 -2 OFFCURVE",
"559 -6 OFFCURVE",
"566 -6 CURVE SMOOTH",
"581 -6 OFFCURVE",
"593 6 OFFCURVE",
"593 21 CURVE SMOOTH",
"593 28 OFFCURVE",
"590 34 OFFCURVE",
"587 38 CURVE SMOOTH",
"491 153 LINE",
"505 178 OFFCURVE",
"534 252 OFFCURVE",
"534 272 CURVE SMOOTH",
"534 287 OFFCURVE",
"523 298 OFFCURVE",
"508 298 CURVE SMOOTH",
"491 298 OFFCURVE",
"486 290 OFFCURVE",
"478 266 CURVE SMOOTH",
"470 240 OFFCURVE",
"463 217 OFFCURVE",
"453 198 CURVE",
"309 370 LINE",
"399 418 OFFCURVE",
"441 464 OFFCURVE",
"441 545 CURVE SMOOTH",
"441 616 OFFCURVE",
"370 684 OFFCURVE",
"294 684 CURVE SMOOTH",
"218 684 OFFCURVE",
"147 617 OFFCURVE",
"147 542 CURVE SMOOTH",
"147 479 OFFCURVE",
"193 418 OFFCURVE",
"223 384 CURVE",
"141 340 OFFCURVE",
"60 291 OFFCURVE",
"60 175 CURVE SMOOTH",
"60 61 OFFCURVE",
"166 -10 OFFCURVE",
"263 -10 CURVE SMOOTH"
);
},
{
closed = 1;
nodes = (
"203 44 OFFCURVE",
"114 85 OFFCURVE",
"114 175 CURVE SMOOTH",
"114 264 OFFCURVE",
"179 300 OFFCURVE",
"261 344 CURVE",
"425 147 LINE",
"362 50 OFFCURVE",
"284 44 OFFCURVE",
"263 44 CURVE SMOOTH"
);
},
{
closed = 1;
nodes = (
"244 439 OFFCURVE",
"201 494 OFFCURVE",
"201 542 CURVE SMOOTH",
"201 592 OFFCURVE",
"251 630 OFFCURVE",
"294 630 CURVE SMOOTH",
"342 630 OFFCURVE",
"388 586 OFFCURVE",
"388 543 CURVE SMOOTH",
"388 508 OFFCURVE",
"387 468 OFFCURVE",
"272 411 CURVE"
);
}
);
userData = {
com.fontlab.hintData = {
hhints = (
{
position = -4;
width = 54;
},
{
position = 0;
width = 21;
},
{
position = 636;
width = 54;
}
);
vhints = (
{
position = 61;
width = 54;
},
{
position = 148;
width = 54;
},
{
position = 389;
width = 53;
}
);
};
};
width = 648;
},
{
background = {
paths = (
{
closed = 1;
nodes = (
"330 -4 OFFCURVE",
"392 34 OFFCURVE",
"436 87 CURVE",
"494 17 LINE SMOOTH",
"503 6 OFFCURVE",
"516 0 OFFCURVE",
"530 0 CURVE SMOOTH",
"556 0 OFFCURVE",
"577 21 OFFCURVE",
"577 47 CURVE SMOOTH",
"577 57 OFFCURVE",
"572 69 OFFCURVE",
"566 76 CURVE SMOOTH",
"489 170 LINE",
"504 201 OFFCURVE",
"524 250 OFFCURVE",
"524 275 CURVE SMOOTH",
"524 302 OFFCURVE",
"504 322 OFFCURVE",
"477 322 CURVE SMOOTH",
"447 322 OFFCURVE",
"439 310 OFFCURVE",
"428 276 CURVE SMOOTH",
"425 268 OFFCURVE",
"423 259 OFFCURVE",
"420 251 CURVE",
"332 358 LINE",
"403 401 OFFCURVE",
"439 448 OFFCURVE",
"439 523 CURVE SMOOTH",
"439 600 OFFCURVE",
"364 672 OFFCURVE",
"283 672 CURVE SMOOTH",
"202 672 OFFCURVE",
"127 600 OFFCURVE",
"127 521 CURVE SMOOTH",
"127 466 OFFCURVE",
"155 419 OFFCURVE",
"182 384 CURVE",
"113 344 OFFCURVE",
"48 291 OFFCURVE",
"48 187 CURVE SMOOTH",
"48 70 OFFCURVE",
"156 -4 OFFCURVE",
"255 -4 CURVE SMOOTH"
);
},
{
closed = 1;
nodes = (
"209 91 OFFCURVE",
"142 121 OFFCURVE",
"142 187 CURVE SMOOTH",
"142 247 OFFCURVE",
"190 280 OFFCURVE",
"248 312 CURVE",
"374 161 LINE",
"346 122 OFFCURVE",
"305 91 OFFCURVE",
"255 91 CURVE SMOOTH"
);
},
{
closed = 1;
nodes = (
"247 454 OFFCURVE",
"221 491 OFFCURVE",
"221 521 CURVE SMOOTH",
"221 553 OFFCURVE",
"255 578 OFFCURVE",
"283 578 CURVE SMOOTH",
"315 578 OFFCURVE",
"346 550 OFFCURVE",
"346 521 CURVE SMOOTH",
"346 498 OFFCURVE",
"344 471 OFFCURVE",
"268 430 CURVE"
);
}
);
};
layerId = "BB1A411A-CAFC-47D3-A925-066104B707B4";
paths = (
{
closed = 1;
nodes = (
"330 -10 OFFCURVE",
"392 28 OFFCURVE",
"436 81 CURVE",
"494 11 LINE SMOOTH",
"503 0 OFFCURVE",
"517 -6 OFFCURVE",
"530 -6 CURVE SMOOTH",
"556 -6 OFFCURVE",
"577 15 OFFCURVE",
"577 41 CURVE SMOOTH",
"577 50 OFFCURVE",
"572 63 OFFCURVE",
"566 70 CURVE SMOOTH",
"489 164 LINE",
"504 195 OFFCURVE",
"524 244 OFFCURVE",
"524 269 CURVE SMOOTH",
"524 296 OFFCURVE",
"504 316 OFFCURVE",
"477 316 CURVE SMOOTH",
"447 316 OFFCURVE",
"439 304 OFFCURVE",
"428 270 CURVE SMOOTH",
"427 268 OFFCURVE",
"423 253 OFFCURVE",
"420 245 CURVE",
"332 352 LINE",
"403 395 OFFCURVE",
"439 442 OFFCURVE",
"439 517 CURVE SMOOTH",
"439 594 OFFCURVE",
"364 666 OFFCURVE",
"283 666 CURVE SMOOTH",
"202 666 OFFCURVE",
"127 594 OFFCURVE",
"127 515 CURVE SMOOTH",
"127 460 OFFCURVE",
"155 413 OFFCURVE",
"182 378 CURVE",
"113 338 OFFCURVE",
"48 285 OFFCURVE",
"48 181 CURVE SMOOTH",
"48 64 OFFCURVE",
"156 -10 OFFCURVE",
"255 -10 CURVE SMOOTH"
);
},
{
closed = 1;
nodes = (
"209 85 OFFCURVE",
"142 115 OFFCURVE",
"142 181 CURVE SMOOTH",
"142 241 OFFCURVE",
"190 274 OFFCURVE",
"248 306 CURVE",
"374 155 LINE",
"346 116 OFFCURVE",
"305 85 OFFCURVE",
"255 85 CURVE SMOOTH"
);
},
{
closed = 1;
nodes = (
"247 448 OFFCURVE",
"221 485 OFFCURVE",
"221 515 CURVE SMOOTH",
"221 547 OFFCURVE",
"255 572 OFFCURVE",
"283 572 CURVE SMOOTH",
"315 572 OFFCURVE",
"346 544 OFFCURVE",
"346 515 CURVE SMOOTH",
"346 492 OFFCURVE",
"344 465 OFFCURVE",
"268 424 CURVE"
);
}
);
userData = {
com.fontlab.hintData = {
hhints = (
{
position = -4;
width = 95;
},
{
position = 0;
width = 21;
},
{
position = 578;
width = 94;
}
);
vhints = (
{
position = 61;
width = 94;
},
{
position = 140;
width = 94;
},
{
position = 359;
width = 93;
},
{
position = 441;
width = 96;
}
);
};
};
width = 625;
}
);
unicode = 0026;
},
{
glyphname = quotesingle;
lastChange = "2020-01-31 00:42:06 +0000";
layers = (
{
background = {
paths = (
{
closed = 1;
nodes = (
"104 521 OFFCURVE",
"113 529 OFFCURVE",
"113 540 CURVE SMOOTH",
"113 679 LINE SMOOTH",
"113 690 OFFCURVE",
"104 698 OFFCURVE",
"94 698 CURVE SMOOTH",
"84 698 OFFCURVE",
"75 690 OFFCURVE",
"75 679 CURVE SMOOTH",
"75 540 LINE SMOOTH",
"75 529 OFFCURVE",
"84 521 OFFCURVE",
"94 521 CURVE SMOOTH"
);
}
);
};
layerId = master01;
paths = (
{
closed = 1;
nodes = (
"104 515 OFFCURVE",
"113 523 OFFCURVE",
"113 534 CURVE SMOOTH",
"113 673 LINE SMOOTH",
"113 684 OFFCURVE",
"104 692 OFFCURVE",
"94 692 CURVE SMOOTH",
"84 692 OFFCURVE",
"75 684 OFFCURVE",
"75 673 CURVE SMOOTH",
"75 534 LINE SMOOTH",
"75 523 OFFCURVE",
"84 515 OFFCURVE",
"94 515 CURVE SMOOTH"
);
}
);
userData = {
com.fontlab.hintData = {
hhints = (
{
position = 521;
width = 177;
}
);
vhints = (
{
position = 74;
width = 38;
}
);
};
};
width = 178;
},
{
background = {
paths = (
{
closed = 1;
nodes = (
"112 500 OFFCURVE",
"125 512 OFFCURVE",
"125 528 CURVE SMOOTH",
"125 662 LINE SMOOTH",
"125 677 OFFCURVE",
"112 690 OFFCURVE",
"97 690 CURVE SMOOTH",
"81 690 OFFCURVE",
"69 677 OFFCURVE",
"69 662 CURVE SMOOTH",
"69 528 LINE SMOOTH",
"69 512 OFFCURVE",
"81 500 OFFCURVE",
"97 500 CURVE SMOOTH"
);
}
);
};
layerId = "218416E4-0B36-4DBB-8D0A-D6BB29FB6576";
paths = (
{
closed = 1;
nodes = (
"112 494 OFFCURVE",
"125 506 OFFCURVE",
"125 522 CURVE SMOOTH",
"125 656 LINE SMOOTH",
"125 671 OFFCURVE",
"112 684 OFFCURVE",
"97 684 CURVE SMOOTH",
"81 684 OFFCURVE",
"69 671 OFFCURVE",
"69 656 CURVE SMOOTH",
"69 522 LINE SMOOTH",
"69 506 OFFCURVE",
"81 494 OFFCURVE",
"97 494 CURVE SMOOTH"
);
}
);
userData = {
com.fontlab.hintData = {
hhints = (
{
position = 500;
width = 190;
}
);
vhints = (
{
position = 69;
width = 56;
}
);
};
};
width = 194;
},
{
background = {
paths = (
{
closed = 1;
nodes = (
"133 454 OFFCURVE",
"156 475 OFFCURVE",
"156 502 CURVE SMOOTH",
"156 624 LINE SMOOTH",
"156 650 OFFCURVE",
"133 672 OFFCURVE",
"108 672 CURVE SMOOTH",
"81 672 OFFCURVE",
"60 650 OFFCURVE",
"60 624 CURVE SMOOTH",
"60 502 LINE SMOOTH",
"60 475 OFFCURVE",
"81 454 OFFCURVE",
"108 454 CURVE SMOOTH"
);
}
);
};
layerId = "BB1A411A-CAFC-47D3-A925-066104B707B4";
paths = (
{
closed = 1;
nodes = (
"133 448 OFFCURVE",
"156 469 OFFCURVE",
"156 496 CURVE SMOOTH",
"156 618 LINE SMOOTH",
"156 644 OFFCURVE",
"133 666 OFFCURVE",
"108 666 CURVE SMOOTH",
"81 666 OFFCURVE",
"60 644 OFFCURVE",
"60 618 CURVE SMOOTH",
"60 496 LINE SMOOTH",
"60 469 OFFCURVE",
"81 448 OFFCURVE",
"108 448 CURVE SMOOTH"
);
}
);
userData = {
com.fontlab.hintData = {
hhints = (
{
position = 454;
width = 218;
}
);
vhints = (
{
position = 60;
width = 96;
}
);
};
};
width = 206;
}
);
unicode = 0027;
},
{
color = 4;
glyphname = parenleft;
lastChange = "2020-01-31 00:42:06 +0000";
layers = (
{
background = {
paths = (
{
closed = 1;
nodes = (
"275 -113 OFFCURVE",
"284 -104 OFFCURVE",
"284 -95 CURVE SMOOTH",
"284 -90 OFFCURVE",
"282 -84 OFFCURVE",
"278 -80 CURVE SMOOTH",
"205 -2 OFFCURVE",
"108 163 OFFCURVE",
"108 355 CURVE SMOOTH",
"108 536 OFFCURVE",
"199 687 OFFCURVE",
"292 775 CURVE SMOOTH",
"296 779 OFFCURVE",
"298 784 OFFCURVE",
"298 789 CURVE SMOOTH",
"298 799 OFFCURVE",
"290 808 OFFCURVE",
"280 808 CURVE SMOOTH",
"274 808 OFFCURVE",
"267 802 OFFCURVE",
"263 798 CURVE SMOOTH",
"152 687 OFFCURVE",
"70 522 OFFCURVE",
"70 355 CURVE SMOOTH",
"70 143 OFFCURVE",
"174 -16 OFFCURVE",
"248 -104 CURVE SMOOTH",
"252 -108 OFFCURVE",
"259 -113 OFFCURVE",
"266 -113 CURVE SMOOTH"
);
}
);
};
layerId = master01;
paths = (
{
closed = 1;
nodes = (
"275 -119 OFFCURVE",
"284 -110 OFFCURVE",
"284 -101 CURVE SMOOTH",
"284 -96 OFFCURVE",
"282 -90 OFFCURVE",
"278 -86 CURVE SMOOTH",
"205 -8 OFFCURVE",
"108 157 OFFCURVE",
"108 349 CURVE SMOOTH",
"108 530 OFFCURVE",
"199 681 OFFCURVE",
"292 769 CURVE SMOOTH",
"296 773 OFFCURVE",
"298 778 OFFCURVE",
"298 783 CURVE SMOOTH",
"298 793 OFFCURVE",
"290 802 OFFCURVE",
"280 802 CURVE SMOOTH",
"274 802 OFFCURVE",
"267 796 OFFCURVE",
"263 792 CURVE SMOOTH",
"152 681 OFFCURVE",
"70 516 OFFCURVE",
"70 349 CURVE SMOOTH",
"70 137 OFFCURVE",
"174 -22 OFFCURVE",
"248 -110 CURVE SMOOTH",
"252 -114 OFFCURVE",
"259 -119 OFFCURVE",
"266 -119 CURVE SMOOTH"
);
}
);
userData = {
com.fontlab.hintData = {
vhints = (
{
position = 69;
width = 38;
}
);
};
};
width = 353;
},
{
background = {
paths = (
{
closed = 1;
nodes = (
"271 -108 OFFCURVE",
"285 -96 OFFCURVE",
"285 -81 CURVE SMOOTH",
"285 -73 OFFCURVE",
"282 -66 OFFCURVE",
"276 -60 CURVE SMOOTH",
"188 40 OFFCURVE",
"116 184 OFFCURVE",
"116 351 CURVE SMOOTH",
"116 547 OFFCURVE",
"229 689 OFFCURVE",
"289 746 CURVE SMOOTH",
"296 752 OFFCURVE",
"299 759 OFFCURVE",
"299 767 CURVE SMOOTH",
"299 782 OFFCURVE",
"286 795 OFFCURVE",
"271 795 CURVE SMOOTH",
"265 795 OFFCURVE",
"258 792 OFFCURVE",
"248 783 CURVE SMOOTH",
"136 678 OFFCURVE",
"60 522 OFFCURVE",
"60 351 CURVE SMOOTH",
"60 139 OFFCURVE",
"159 -8 OFFCURVE",
"233 -96 CURVE SMOOTH",
"238 -102 OFFCURVE",
"246 -108 OFFCURVE",
"258 -108 CURVE SMOOTH"
);
}
);
};
layerId = "218416E4-0B36-4DBB-8D0A-D6BB29FB6576";
paths = (
{
closed = 1;
nodes = (
"271 -114 OFFCURVE",
"285 -102 OFFCURVE",
"285 -87 CURVE SMOOTH",
"285 -76 OFFCURVE",
"281 -72 OFFCURVE",
"276 -66 CURVE SMOOTH",
"188 34 OFFCURVE",
"116 178 OFFCURVE",
"116 345 CURVE SMOOTH",
"116 541 OFFCURVE",
"229 683 OFFCURVE",
"289 740 CURVE SMOOTH",
"296 746 OFFCURVE",
"299 753 OFFCURVE",
"299 761 CURVE SMOOTH",
"299 776 OFFCURVE",
"286 789 OFFCURVE",
"271 789 CURVE SMOOTH",
"265 789 OFFCURVE",
"258 786 OFFCURVE",
"248 777 CURVE SMOOTH",
"136 672 OFFCURVE",
"60 516 OFFCURVE",
"60 345 CURVE SMOOTH",
"60 133 OFFCURVE",
"159 -14 OFFCURVE",
"233 -102 CURVE SMOOTH",
"238 -108 OFFCURVE",
"246 -114 OFFCURVE",
"258 -114 CURVE SMOOTH"
);
}
);
userData = {
com.fontlab.hintData = {
vhints = (
{
position = 65;
width = 56;
}
);
};
};
width = 344;
},
{
background = {
paths = (
{
closed = 1;
nodes = (
"285 -98 OFFCURVE",
"310 -77 OFFCURVE",
"310 -51 CURVE SMOOTH",
"310 -37 OFFCURVE",
"305 -25 OFFCURVE",
"295 -15 CURVE SMOOTH",
"230 53 OFFCURVE",
"156 190 OFFCURVE",
"156 342 CURVE SMOOTH",
"156 477 OFFCURVE",
"221 615 OFFCURVE",
"304 682 CURVE SMOOTH",
"317 692 OFFCURVE",
"322 705 OFFCURVE",
"322 719 CURVE SMOOTH",
"322 745 OFFCURVE",
"300 768 OFFCURVE",
"274 768 CURVE SMOOTH",
"264 768 OFFCURVE",
"252 763 OFFCURVE",
"238 750 CURVE SMOOTH",
"132 650 OFFCURVE",
"60 503 OFFCURVE",
"60 342 CURVE SMOOTH",
"60 116 OFFCURVE",
"189 -39 OFFCURVE",
"221 -78 CURVE SMOOTH",
"230 -88 OFFCURVE",
"242 -98 OFFCURVE",
"262 -98 CURVE SMOOTH"
);
}
);
};
layerId = "BB1A411A-CAFC-47D3-A925-066104B707B4";
paths = (
{
closed = 1;
nodes = (
"285 -104 OFFCURVE",
"310 -83 OFFCURVE",
"310 -57 CURVE SMOOTH",
"310 -43 OFFCURVE",
"305 -31 OFFCURVE",
"295 -21 CURVE SMOOTH",
"230 47 OFFCURVE",
"156 184 OFFCURVE",
"156 336 CURVE SMOOTH",
"156 471 OFFCURVE",
"221 609 OFFCURVE",
"304 676 CURVE SMOOTH",
"317 686 OFFCURVE",
"322 699 OFFCURVE",
"322 713 CURVE SMOOTH",
"322 739 OFFCURVE",
"300 762 OFFCURVE",
"274 762 CURVE SMOOTH",
"264 762 OFFCURVE",
"252 757 OFFCURVE",
"238 744 CURVE SMOOTH",
"132 644 OFFCURVE",
"60 497 OFFCURVE",
"60 336 CURVE SMOOTH",
"60 110 OFFCURVE",
"189 -45 OFFCURVE",
"221 -84 CURVE SMOOTH",
"230 -94 OFFCURVE",
"242 -104 OFFCURVE",
"262 -104 CURVE SMOOTH"
);
}
);
userData = {
com.fontlab.hintData = {
vhints = (
{
position = 58;
width = 96;
}
);
};
};
width = 357;
}
);
unicode = 0028;
},
{
color = 4;
glyphname = parenright;
lastChange = "2020-01-31 00:42:06 +0000";
layers = (
{
background = {
paths = (
{
closed = 1;
nodes = (
"94 -113 OFFCURVE",
"101 -108 OFFCURVE",
"105 -104 CURVE SMOOTH",
"195 2 OFFCURVE",
"283 160 OFFCURVE",
"283 355 CURVE SMOOTH",
"283 522 OFFCURVE",
"201 687 OFFCURVE",
"90 798 CURVE SMOOTH",
"86 802 OFFCURVE",
"79 808 OFFCURVE",
"73 808 CURVE SMOOTH",
"63 808 OFFCURVE",
"55 799 OFFCURVE",
"55 789 CURVE SMOOTH",
"55 784 OFFCURVE",
"57 779 OFFCURVE",
"61 775 CURVE SMOOTH",
"165 673 OFFCURVE",
"245 529 OFFCURVE",
"245 355 CURVE SMOOTH",
"245 157 OFFCURVE",
"144 -6 OFFCURVE",
"75 -80 CURVE SMOOTH",
"71 -84 OFFCURVE",
"69 -90 OFFCURVE",
"69 -95 CURVE SMOOTH",
"69 -104 OFFCURVE",
"78 -113 OFFCURVE",
"87 -113 CURVE SMOOTH"
);
}
);
};
layerId = master01;
paths = (
{
closed = 1;
nodes = (
"94 -119 OFFCURVE",
"101 -114 OFFCURVE",
"105 -110 CURVE SMOOTH",
"195 -4 OFFCURVE",
"283 154 OFFCURVE",
"283 349 CURVE SMOOTH",
"283 516 OFFCURVE",
"201 681 OFFCURVE",
"90 792 CURVE SMOOTH",
"86 796 OFFCURVE",
"79 802 OFFCURVE",
"73 802 CURVE SMOOTH",
"63 802 OFFCURVE",
"55 793 OFFCURVE",
"55 783 CURVE SMOOTH",
"55 778 OFFCURVE",
"57 773 OFFCURVE",
"61 769 CURVE SMOOTH",
"165 667 OFFCURVE",
"245 523 OFFCURVE",
"245 349 CURVE SMOOTH",
"245 151 OFFCURVE",
"144 -12 OFFCURVE",
"75 -86 CURVE SMOOTH",
"71 -90 OFFCURVE",
"69 -96 OFFCURVE",
"69 -101 CURVE SMOOTH",
"69 -110 OFFCURVE",
"78 -119 OFFCURVE",
"87 -119 CURVE SMOOTH"
);
}
);
userData = {
com.fontlab.hintData = {
vhints = (
{
position = 259;
width = 38;
}
);
};
};
width = 353;
},
{
background = {
paths = (
{
closed = 1;
nodes = (
"98 -108 OFFCURVE",
"106 -102 OFFCURVE",
"111 -96 CURVE SMOOTH",
"209 17 OFFCURVE",
"284 167 OFFCURVE",
"284 351 CURVE SMOOTH",
"284 522 OFFCURVE",
"208 678 OFFCURVE",
"96 783 CURVE SMOOTH",
"86 792 OFFCURVE",
"79 795 OFFCURVE",
"73 795 CURVE SMOOTH",
"58 795 OFFCURVE",
"45 782 OFFCURVE",
"45 767 CURVE SMOOTH",
"45 759 OFFCURVE",
"49 752 OFFCURVE",
"55 746 CURVE SMOOTH",
"138 665 OFFCURVE",
"228 526 OFFCURVE",
"228 351 CURVE SMOOTH",
"228 181 OFFCURVE",
"146 23 OFFCURVE",
"68 -60 CURVE SMOOTH",
"62 -66 OFFCURVE",
"59 -73 OFFCURVE",
"59 -81 CURVE SMOOTH",
"59 -96 OFFCURVE",
"73 -108 OFFCURVE",
"86 -108 CURVE SMOOTH"
);
}
);
};
layerId = "218416E4-0B36-4DBB-8D0A-D6BB29FB6576";
paths = (
{
closed = 1;
nodes = (
"98 -114 OFFCURVE",
"106 -108 OFFCURVE",
"111 -102 CURVE SMOOTH",
"214 17 OFFCURVE",
"284 167 OFFCURVE",
"284 345 CURVE SMOOTH",
"284 516 OFFCURVE",
"208 672 OFFCURVE",
"96 777 CURVE SMOOTH",
"86 786 OFFCURVE",
"79 789 OFFCURVE",
"73 789 CURVE SMOOTH",
"58 789 OFFCURVE",
"45 776 OFFCURVE",
"45 761 CURVE SMOOTH",
"45 753 OFFCURVE",
"49 746 OFFCURVE",
"55 740 CURVE SMOOTH",
"138 659 OFFCURVE",
"228 520 OFFCURVE",
"228 345 CURVE SMOOTH",
"228 175 OFFCURVE",
"146 17 OFFCURVE",
"68 -66 CURVE SMOOTH",
"62 -72 OFFCURVE",
"59 -79 OFFCURVE",
"59 -87 CURVE SMOOTH",
"59 -102 OFFCURVE",
"73 -114 OFFCURVE",
"86 -114 CURVE SMOOTH"
);
}
);
userData = {
com.fontlab.hintData = {
vhints = (
{
position = 247;
width = 56;
}
);
};
};
width = 344;
},
{
background = {
paths = (
{
closed = 1;
nodes = (
"115 -98 OFFCURVE",
"127 -88 OFFCURVE",
"136 -78 CURVE SMOOTH",
"168 -39 OFFCURVE",
"297 116 OFFCURVE",
"297 342 CURVE SMOOTH",
"297 503 OFFCURVE",
"225 650 OFFCURVE",
"119 750 CURVE SMOOTH",
"105 763 OFFCURVE",
"93 768 OFFCURVE",
"83 768 CURVE SMOOTH",
"57 768 OFFCURVE",
"35 745 OFFCURVE",
"35 719 CURVE SMOOTH",
"35 705 OFFCURVE",
"40 692 OFFCURVE",
"53 682 CURVE SMOOTH",
"136 615 OFFCURVE",
"201 477 OFFCURVE",
"201 342 CURVE SMOOTH",
"201 190 OFFCURVE",
"127 53 OFFCURVE",
"62 -15 CURVE SMOOTH",
"52 -25 OFFCURVE",
"47 -37 OFFCURVE",
"47 -51 CURVE SMOOTH",
"47 -77 OFFCURVE",
"72 -98 OFFCURVE",
"95 -98 CURVE SMOOTH"
);
}
);
};
layerId = "BB1A411A-CAFC-47D3-A925-066104B707B4";
paths = (
{
closed = 1;
nodes = (
"115 -104 OFFCURVE",
"127 -94 OFFCURVE",
"136 -84 CURVE SMOOTH",
"168 -45 OFFCURVE",
"297 110 OFFCURVE",
"297 336 CURVE SMOOTH",
"297 497 OFFCURVE",
"225 644 OFFCURVE",
"119 744 CURVE SMOOTH",
"105 757 OFFCURVE",
"93 762 OFFCURVE",
"83 762 CURVE SMOOTH",
"57 762 OFFCURVE",
"35 739 OFFCURVE",
"35 713 CURVE SMOOTH",
"35 699 OFFCURVE",
"40 686 OFFCURVE",
"53 676 CURVE SMOOTH",
"136 609 OFFCURVE",
"201 471 OFFCURVE",
"201 336 CURVE SMOOTH",
"201 184 OFFCURVE",
"127 47 OFFCURVE",
"62 -21 CURVE SMOOTH",
"52 -31 OFFCURVE",
"47 -43 OFFCURVE",
"47 -57 CURVE SMOOTH",
"47 -83 OFFCURVE",
"72 -104 OFFCURVE",
"95 -104 CURVE SMOOTH"
);
}
);
userData = {
com.fontlab.hintData = {
vhints = (
{
position = 224;
width = 96;
}
);
};
};
width = 357;
}
);
unicode = 0029;
},
{
color = 4;
glyphname = asterisk;
lastChange = "2020-01-31 00:42:06 +0000";
layers = (
{
background = {
paths = (
{
closed = 1;
nodes = (
"123 449 OFFCURVE",
"131 461 OFFCURVE",
"143 481 CURVE SMOOTH",
"154 500 OFFCURVE",
"166 519 OFFCURVE",
"179 552 CURVE",
"192 520 OFFCURVE",
"202 508 OFFCURVE",
"216 483 CURVE SMOOTH",
"228 462 OFFCURVE",
"239 449 OFFCURVE",
"250 449 CURVE SMOOTH",
"260 449 OFFCURVE",
"267 458 OFFCURVE",
"267 469 CURVE SMOOTH",
"267 476 OFFCURVE",
"252 491 OFFCURVE",
"240 506 CURVE SMOOTH",
"229 519 OFFCURVE",
"217 535 OFFCURVE",
"190 557 CURVE",
"225 559 OFFCURVE",
"245 565 OFFCURVE",
"276 574 CURVE SMOOTH",
"306 583 OFFCURVE",
"311 590 OFFCURVE",
"309 602 CURVE SMOOTH",
"308 610 OFFCURVE",
"301 616 OFFCURVE",
"291 616 CURVE SMOOTH",
"264 616 OFFCURVE",
"219 591 OFFCURVE",
"186 570 CURVE",
"195 604 OFFCURVE",
"198 634 OFFCURVE",
"198 668 CURVE SMOOTH",
"198 687 OFFCURVE",
"191 697 OFFCURVE",
"179 697 CURVE SMOOTH",
"167 697 OFFCURVE",
"160 687 OFFCURVE",
"160 668 CURVE SMOOTH",
"160 634 OFFCURVE",
"163 604 OFFCURVE",
"172 570 CURVE",
"142 590 OFFCURVE",
"123 598 OFFCURVE",
"106 604 CURVE SMOOTH",
"91 610 OFFCURVE",
"77 615 OFFCURVE",
"67 615 CURVE SMOOTH",
"57 615 OFFCURVE",
"50 609 OFFCURVE",
"50 599 CURVE SMOOTH",
"50 587 OFFCURVE",
"60 580 OFFCURVE",
"84 574 CURVE SMOOTH",
"112 567 OFFCURVE",
"130 560 OFFCURVE",
"168 557 CURVE",
"141 535 OFFCURVE",
"127 520 OFFCURVE",
"113 504 CURVE SMOOTH",
"99 487 OFFCURVE",
"92 475 OFFCURVE",
"92 466 CURVE SMOOTH",
"92 456 OFFCURVE",
"99 449 OFFCURVE",
"109 449 CURVE SMOOTH"
);
}
);
};
guideLines = (
{
position = "{242, 562}";
},
{
angle = 90;
position = "{179, 642}";
},
{
position = "{101, 616}";
}
);
layerId = master01;
paths = (
{
closed = 1;
nodes = (
"123 443 OFFCURVE",
"131 455 OFFCURVE",
"143 475 CURVE SMOOTH",
"154 494 OFFCURVE",
"166 513 OFFCURVE",
"179 546 CURVE",
"193 511 OFFCURVE",
"203 501 OFFCURVE",
"216 477 CURVE SMOOTH",
"228 456 OFFCURVE",
"239 443 OFFCURVE",
"250 443 CURVE SMOOTH",
"260 443 OFFCURVE",
"267 452 OFFCURVE",
"267 463 CURVE SMOOTH",
"267 470 OFFCURVE",
"252 485 OFFCURVE",
"240 500 CURVE SMOOTH",
"229 513 OFFCURVE",
"217 529 OFFCURVE",
"190 551 CURVE",
"223 553 OFFCURVE",
"241 558 OFFCURVE",
"276 568 CURVE SMOOTH",
"306 577 OFFCURVE",
"311 584 OFFCURVE",
"309 596 CURVE SMOOTH",
"308 604 OFFCURVE",
"301 610 OFFCURVE",
"291 610 CURVE SMOOTH",
"264 610 OFFCURVE",
"219 585 OFFCURVE",
"186 564 CURVE",
"195 598 OFFCURVE",
"198 628 OFFCURVE",
"198 662 CURVE SMOOTH",
"198 681 OFFCURVE",
"191 691 OFFCURVE",
"179 691 CURVE SMOOTH",
"167 691 OFFCURVE",
"160 681 OFFCURVE",
"160 662 CURVE SMOOTH",
"160 628 OFFCURVE",
"163 598 OFFCURVE",
"172 564 CURVE",
"142 584 OFFCURVE",
"123 592 OFFCURVE",
"106 598 CURVE SMOOTH",
"91 604 OFFCURVE",
"77 609 OFFCURVE",
"67 609 CURVE SMOOTH",
"57 609 OFFCURVE",
"50 603 OFFCURVE",
"50 593 CURVE SMOOTH",
"50 581 OFFCURVE",
"60 574 OFFCURVE",
"84 568 CURVE SMOOTH",
"112 561 OFFCURVE",
"130 554 OFFCURVE",
"168 551 CURVE",
"142 530 OFFCURVE",
"129 516 OFFCURVE",
"113 498 CURVE SMOOTH",
"99 481 OFFCURVE",
"92 469 OFFCURVE",
"92 460 CURVE SMOOTH",
"92 450 OFFCURVE",
"99 443 OFFCURVE",
"109 443 CURVE SMOOTH"
);
}
);
userData = {
com.fontlab.hintData = {
hhints = (
{
position = 457;
width = 241;
}
);
vhints = (
{
position = 178;
width = 36;
}
);
};
};
width = 359;
},
{
background = {
paths = (
{
closed = 1;
nodes = (
"140 450 OFFCURVE",
"154 463 OFFCURVE",
"171 484 CURVE SMOOTH",
"184 501 OFFCURVE",
"193 521 OFFCURVE",
"198 537 CURVE",
"204 523 OFFCURVE",
"211 504 OFFCURVE",
"225 484 CURVE SMOOTH",
"242 461 OFFCURVE",
"253 450 OFFCURVE",
"270 450 CURVE SMOOTH",
"286 450 OFFCURVE",
"297 463 OFFCURVE",
"297 479 CURVE SMOOTH",
"297 492 OFFCURVE",
"290 507 OFFCURVE",
"269 526 CURVE SMOOTH",
"252 542 OFFCURVE",
"238 553 OFFCURVE",
"229 559 CURVE",
"252 563 OFFCURVE",
"266 563 OFFCURVE",
"292 572 CURVE SMOOTH",
"316 580 OFFCURVE",
"329 588 OFFCURVE",
"329 608 CURVE SMOOTH",
"329 623 OFFCURVE",
"317 636 OFFCURVE",
"300 636 CURVE SMOOTH",
"281 636 OFFCURVE",
"244 614 OFFCURVE",
"217 594 CURVE",
"221 605 OFFCURVE",
"228 636 OFFCURVE",
"228 665 CURVE SMOOTH",
"228 689 OFFCURVE",
"214 702 OFFCURVE",
"197 702 CURVE SMOOTH",
"180 702 OFFCURVE",
"166 689 OFFCURVE",
"166 664 CURVE SMOOTH",
"166 635 OFFCURVE",
"173 606 OFFCURVE",
"179 594 CURVE",
"168 603 OFFCURVE",
"153 613 OFFCURVE",
"137 623 CURVE SMOOTH",
"123 632 OFFCURVE",
"110 637 OFFCURVE",
"96 637 CURVE SMOOTH",
"78 637 OFFCURVE",
"67 624 OFFCURVE",
"67 609 CURVE SMOOTH",
"67 594 OFFCURVE",
"77 581 OFFCURVE",
"105 573 CURVE SMOOTH",
"132 565 OFFCURVE",
"154 561 OFFCURVE",
"168 559 CURVE",
"154 550 OFFCURVE",
"135 537 OFFCURVE",
"118 518 CURVE SMOOTH",
"102 500 OFFCURVE",
"97 489 OFFCURVE",
"97 476 CURVE SMOOTH",
"97 461 OFFCURVE",
"110 450 OFFCURVE",
"125 450 CURVE SMOOTH"
);
}
);
};
guideLines = (
{
position = "{171, 548}";
},
{
angle = 90;
position = "{197, 657}";
}
);
layerId = "218416E4-0B36-4DBB-8D0A-D6BB29FB6576";
paths = (
{
closed = 1;
nodes = (
"140 444 OFFCURVE",
"154 457 OFFCURVE",
"171 478 CURVE SMOOTH",
"184 495 OFFCURVE",
"193 515 OFFCURVE",
"198 531 CURVE",
"204 517 OFFCURVE",
"211 498 OFFCURVE",
"225 478 CURVE SMOOTH",
"242 455 OFFCURVE",
"253 444 OFFCURVE",
"270 444 CURVE SMOOTH",
"286 444 OFFCURVE",
"297 457 OFFCURVE",
"297 473 CURVE SMOOTH",
"297 486 OFFCURVE",
"290 501 OFFCURVE",
"269 520 CURVE SMOOTH",
"252 536 OFFCURVE",
"238 547 OFFCURVE",
"229 553 CURVE",
"252 557 OFFCURVE",
"266 557 OFFCURVE",
"292 566 CURVE SMOOTH",
"316 574 OFFCURVE",
"329 582 OFFCURVE",
"329 602 CURVE SMOOTH",
"329 617 OFFCURVE",
"317 630 OFFCURVE",
"300 630 CURVE SMOOTH",
"281 630 OFFCURVE",
"244 608 OFFCURVE",
"217 588 CURVE",
"221 599 OFFCURVE",
"228 630 OFFCURVE",
"228 659 CURVE SMOOTH",
"228 683 OFFCURVE",
"214 696 OFFCURVE",
"197 696 CURVE SMOOTH",
"180 696 OFFCURVE",
"166 683 OFFCURVE",
"166 658 CURVE SMOOTH",
"166 629 OFFCURVE",
"173 600 OFFCURVE",
"179 588 CURVE",
"174 592 OFFCURVE",
"151 609 OFFCURVE",
"137 617 CURVE SMOOTH",
"123 626 OFFCURVE",
"110 631 OFFCURVE",
"96 631 CURVE SMOOTH",
"78 631 OFFCURVE",
"67 618 OFFCURVE",
"67 603 CURVE SMOOTH",
"67 588 OFFCURVE",
"77 575 OFFCURVE",
"105 567 CURVE SMOOTH",
"132 559 OFFCURVE",
"154 555 OFFCURVE",
"168 553 CURVE",
"154 544 OFFCURVE",
"135 531 OFFCURVE",
"118 512 CURVE SMOOTH",
"102 494 OFFCURVE",
"97 483 OFFCURVE",
"97 470 CURVE SMOOTH",
"97 455 OFFCURVE",
"110 444 OFFCURVE",
"125 444 CURVE SMOOTH"
);
}
);
userData = {
com.fontlab.hintData = {
hhints = (
{
position = 582;
width = 50;
},
{
position = 670;
width = 20;
}
);
vhints = (
{
position = 170;
width = 54;
}
);
};
};
width = 397;
},
{
background = {
paths = (
{
closed = 1;
nodes = (
"130 408 OFFCURVE",
"150 419 OFFCURVE",
"162 442 CURVE SMOOTH",
"172 461 OFFCURVE",
"183 481 OFFCURVE",
"191 500 CURVE",
"199 481 OFFCURVE",
"206 465 OFFCURVE",
"219 441 CURVE SMOOTH",
"231 419 OFFCURVE",
"247 408 OFFCURVE",
"268 408 CURVE SMOOTH",
"292 408 OFFCURVE",
"307 429 OFFCURVE",
"307 448 CURVE SMOOTH",
"307 460 OFFCURVE",
"302 475 OFFCURVE",
"284 489 CURVE SMOOTH",
"267 503 OFFCURVE",
"248 515 OFFCURVE",
"233 525 CURVE",
"256 526 OFFCURVE",
"276 525 OFFCURVE",
"297 528 CURVE SMOOTH",
"322 532 OFFCURVE",
"335 555 OFFCURVE",
"335 575 CURVE SMOOTH",
"335 599 OFFCURVE",
"316 614 OFFCURVE",
"294 614 CURVE SMOOTH",
"269 614 OFFCURVE",
"238 591 OFFCURVE",
"214 567 CURVE",
"221 582 OFFCURVE",
"234 609 OFFCURVE",
"234 634 CURVE SMOOTH",
"234 666 OFFCURVE",
"218 686 OFFCURVE",
"192 686 CURVE SMOOTH",
"167 686 OFFCURVE",
"150 667 OFFCURVE",
"150 635 CURVE SMOOTH",
"150 612 OFFCURVE",
"158 589 OFFCURVE",
"170 568 CURVE",
"158 578 OFFCURVE",
"144 589 OFFCURVE",
"128 600 CURVE SMOOTH",
"111 611 OFFCURVE",
"97 616 OFFCURVE",
"86 616 CURVE SMOOTH",
"59 616 OFFCURVE",
"45 596 OFFCURVE",
"45 575 CURVE SMOOTH",
"45 555 OFFCURVE",
"57 540 OFFCURVE",
"78 533 CURVE SMOOTH",
"99 526 OFFCURVE",
"128 523 OFFCURVE",
"147 523 CURVE",
"134 517 OFFCURVE",
"117 506 OFFCURVE",
"98 490 CURVE SMOOTH",
"78 473 OFFCURVE",
"74 460 OFFCURVE",
"74 445 CURVE SMOOTH",
"74 425 OFFCURVE",
"90 408 OFFCURVE",
"113 408 CURVE SMOOTH"
);
}
);
};
guideLines = (
{
position = "{264, 681}";
},
{
position = "{187, 409}";
},
{
position = "{361, 615}";
}
);
layerId = "BB1A411A-CAFC-47D3-A925-066104B707B4";
paths = (
{
closed = 1;
nodes = (
"130 402 OFFCURVE",
"150 413 OFFCURVE",
"162 436 CURVE SMOOTH",
"172 455 OFFCURVE",
"183 475 OFFCURVE",
"191 494 CURVE",
"199 475 OFFCURVE",
"206 459 OFFCURVE",
"219 435 CURVE SMOOTH",
"231 413 OFFCURVE",
"247 402 OFFCURVE",
"268 402 CURVE SMOOTH",
"292 402 OFFCURVE",
"307 423 OFFCURVE",
"307 442 CURVE SMOOTH",
"307 454 OFFCURVE",
"302 469 OFFCURVE",
"284 483 CURVE SMOOTH",
"267 497 OFFCURVE",
"248 509 OFFCURVE",
"233 519 CURVE",
"256 520 OFFCURVE",
"276 519 OFFCURVE",
"297 522 CURVE SMOOTH",
"322 526 OFFCURVE",
"335 549 OFFCURVE",
"335 569 CURVE SMOOTH",
"335 593 OFFCURVE",
"316 608 OFFCURVE",
"294 608 CURVE SMOOTH",
"269 608 OFFCURVE",
"238 585 OFFCURVE",
"214 561 CURVE",
"221 576 OFFCURVE",
"234 603 OFFCURVE",
"234 628 CURVE SMOOTH",
"234 660 OFFCURVE",
"218 680 OFFCURVE",
"192 680 CURVE SMOOTH",
"167 680 OFFCURVE",
"150 661 OFFCURVE",
"150 629 CURVE SMOOTH",
"150 606 OFFCURVE",
"158 583 OFFCURVE",
"170 562 CURVE",
"158 572 OFFCURVE",
"144 583 OFFCURVE",
"128 594 CURVE SMOOTH",
"111 605 OFFCURVE",
"97 610 OFFCURVE",
"86 610 CURVE SMOOTH",
"59 610 OFFCURVE",
"45 590 OFFCURVE",
"45 569 CURVE SMOOTH",
"45 549 OFFCURVE",
"57 534 OFFCURVE",
"78 527 CURVE SMOOTH",
"99 520 OFFCURVE",
"128 517 OFFCURVE",
"147 517 CURVE",
"134 511 OFFCURVE",
"117 500 OFFCURVE",
"98 484 CURVE SMOOTH",
"78 467 OFFCURVE",
"74 454 OFFCURVE",
"74 439 CURVE SMOOTH",
"74 419 OFFCURVE",
"90 402 OFFCURVE",
"113 402 CURVE SMOOTH"
);
}
);
userData = {
com.fontlab.hintData = {
hhints = (
{
position = 421;
width = 251;
}
);
vhints = (
{
position = 72;
width = 259;
},
{
position = 154;
width = 94;
}
);
};
};
width = 379;
}
);
unicode = 002A;
},
{
glyphname = plus;
lastChange = "2020-01-31 00:42:06 +0000";
layers = (
{
background = {
paths = (
{
closed = 1;
nodes = (
"233 89 OFFCURVE",
"241 97 OFFCURVE",
"241 106 CURVE SMOOTH",
"241 233 LINE",
"371 233 LINE SMOOTH",
"380 233 OFFCURVE",
"388 242 OFFCURVE",
"388 251 CURVE SMOOTH",
"388 261 OFFCURVE",
"380 269 OFFCURVE",
"371 269 CURVE SMOOTH",
"241 269 LINE",
"241 386 LINE SMOOTH",
"241 395 OFFCURVE",
"233 403 OFFCURVE",
"224 403 CURVE SMOOTH",
"214 403 OFFCURVE",
"206 395 OFFCURVE",
"206 386 CURVE SMOOTH",
"206 269 LINE",
"78 269 LINE SMOOTH",
"68 269 OFFCURVE",
"60 261 OFFCURVE",
"60 251 CURVE SMOOTH",
"60 242 OFFCURVE",
"68 233 OFFCURVE",
"78 233 CURVE SMOOTH",
"206 233 LINE",
"206 106 LINE SMOOTH",
"206 97 OFFCURVE",
"214 89 OFFCURVE",
"224 89 CURVE SMOOTH"
);
}
);
};
layerId = master01;
paths = (
{
closed = 1;
nodes = (
"233 83 OFFCURVE",
"241 91 OFFCURVE",
"241 100 CURVE SMOOTH",
"241 227 LINE",
"371 227 LINE SMOOTH",
"380 227 OFFCURVE",
"388 236 OFFCURVE",
"388 245 CURVE SMOOTH",
"388 255 OFFCURVE",
"380 263 OFFCURVE",
"371 263 CURVE SMOOTH",
"241 263 LINE",
"241 380 LINE SMOOTH",
"241 389 OFFCURVE",
"233 397 OFFCURVE",
"224 397 CURVE SMOOTH",
"214 397 OFFCURVE",
"206 389 OFFCURVE",
"206 380 CURVE SMOOTH",
"206 263 LINE",
"78 263 LINE SMOOTH",
"68 263 OFFCURVE",
"60 255 OFFCURVE",
"60 245 CURVE SMOOTH",
"60 236 OFFCURVE",
"68 227 OFFCURVE",
"78 227 CURVE SMOOTH",
"206 227 LINE",
"206 100 LINE SMOOTH",
"206 91 OFFCURVE",
"214 83 OFFCURVE",
"224 83 CURVE SMOOTH"
);
}
);
userData = {
com.fontlab.hintData = {
hhints = (
{
position = 233;
width = 36;
}
);
vhints = (
{
position = 203;
width = 35;
}
);
};
};
width = 448;
},
{
background = {
paths = (
{
closed = 1;
nodes = (
"237 85 OFFCURVE",
"249 97 OFFCURVE",
"249 112 CURVE SMOOTH",
"249 224 LINE",
"363 224 LINE SMOOTH",
"378 224 OFFCURVE",
"390 236 OFFCURVE",
"390 251 CURVE SMOOTH",
"390 266 OFFCURVE",
"378 278 OFFCURVE",
"363 278 CURVE SMOOTH",
"249 278 LINE",
"249 380 LINE SMOOTH",
"249 395 OFFCURVE",
"237 407 OFFCURVE",
"222 407 CURVE SMOOTH",
"207 407 OFFCURVE",
"195 395 OFFCURVE",
"195 380 CURVE SMOOTH",
"195 278 LINE",
"82 278 LINE SMOOTH",
"67 278 OFFCURVE",
"55 266 OFFCURVE",
"55 251 CURVE SMOOTH",
"55 236 OFFCURVE",
"67 224 OFFCURVE",
"82 224 CURVE SMOOTH",
"195 224 LINE",
"195 112 LINE SMOOTH",
"195 97 OFFCURVE",
"207 85 OFFCURVE",
"222 85 CURVE SMOOTH"
);
}
);
};
layerId = "218416E4-0B36-4DBB-8D0A-D6BB29FB6576";
paths = (
{
closed = 1;
nodes = (
"237 79 OFFCURVE",
"249 91 OFFCURVE",
"249 106 CURVE SMOOTH",
"249 218 LINE",
"363 218 LINE SMOOTH",
"378 218 OFFCURVE",
"390 230 OFFCURVE",
"390 245 CURVE SMOOTH",
"390 260 OFFCURVE",
"378 272 OFFCURVE",
"363 272 CURVE SMOOTH",
"249 272 LINE",
"249 374 LINE SMOOTH",
"249 389 OFFCURVE",
"237 401 OFFCURVE",
"222 401 CURVE SMOOTH",
"207 401 OFFCURVE",
"195 389 OFFCURVE",
"195 374 CURVE SMOOTH",
"195 272 LINE",
"82 272 LINE SMOOTH",
"67 272 OFFCURVE",
"55 260 OFFCURVE",
"55 245 CURVE SMOOTH",
"55 230 OFFCURVE",
"67 218 OFFCURVE",
"82 218 CURVE SMOOTH",
"195 218 LINE",
"195 106 LINE SMOOTH",
"195 91 OFFCURVE",
"207 79 OFFCURVE",
"222 79 CURVE SMOOTH"
);
}
);
userData = {
com.fontlab.hintData = {
hhints = (
{
position = 224;
width = 54;
}
);
vhints = (
{
position = 194;
width = 54;
}
);
};
};
width = 445;
},
{
background = {
paths = (
{
closed = 1;
nodes = (
"246 77 OFFCURVE",
"267 98 OFFCURVE",
"267 124 CURVE SMOOTH",
"267 203 LINE",
"348 203 LINE SMOOTH",
"374 203 OFFCURVE",
"395 224 OFFCURVE",
"395 251 CURVE SMOOTH",
"395 277 OFFCURVE",
"374 298 OFFCURVE",
"348 298 CURVE SMOOTH",
"267 298 LINE",
"267 368 LINE SMOOTH",
"267 394 OFFCURVE",
"246 415 OFFCURVE",
"220 415 CURVE SMOOTH",
"194 415 OFFCURVE",
"173 394 OFFCURVE",
"173 368 CURVE SMOOTH",
"173 298 LINE",
"93 298 LINE SMOOTH",
"66 298 OFFCURVE",
"45 277 OFFCURVE",
"45 251 CURVE SMOOTH",
"45 224 OFFCURVE",
"66 203 OFFCURVE",
"93 203 CURVE SMOOTH",
"173 203 LINE",
"173 124 LINE SMOOTH",
"173 98 OFFCURVE",
"194 77 OFFCURVE",
"220 77 CURVE SMOOTH"
);
}
);
};
layerId = "BB1A411A-CAFC-47D3-A925-066104B707B4";
paths = (
{
closed = 1;
nodes = (
"246 71 OFFCURVE",
"267 92 OFFCURVE",
"267 118 CURVE SMOOTH",
"267 197 LINE",
"348 197 LINE SMOOTH",
"374 197 OFFCURVE",
"395 218 OFFCURVE",
"395 245 CURVE SMOOTH",
"395 271 OFFCURVE",
"374 292 OFFCURVE",
"348 292 CURVE SMOOTH",
"267 292 LINE",
"267 362 LINE SMOOTH",
"267 388 OFFCURVE",
"246 409 OFFCURVE",
"220 409 CURVE SMOOTH",
"194 409 OFFCURVE",
"173 388 OFFCURVE",
"173 362 CURVE SMOOTH",
"173 292 LINE",
"93 292 LINE SMOOTH",
"66 292 OFFCURVE",
"45 271 OFFCURVE",
"45 245 CURVE SMOOTH",
"45 218 OFFCURVE",
"66 197 OFFCURVE",
"93 197 CURVE SMOOTH",
"173 197 LINE",
"173 118 LINE SMOOTH",
"173 92 OFFCURVE",
"194 71 OFFCURVE",
"220 71 CURVE SMOOTH"
);
}
);
userData = {
com.fontlab.hintData = {
hhints = (
{
position = 203;
width = 95;
}
);
vhints = (
{
position = 177;
width = 94;
}
);
};
};
width = 440;
}
);
unicode = 002B;
},
{
glyphname = comma;
lastChange = "2020-01-31 01:03:37 +0000";
layers = (
{
background = {
paths = (
{
closed = 1;
nodes = (
"61 -96 OFFCURVE",
"72 -67 OFFCURVE",
"88 -27 CURVE SMOOTH",
"103 11 OFFCURVE",
"106 18 OFFCURVE",
"106 36 CURVE SMOOTH",
"106 47 OFFCURVE",
"96 59 OFFCURVE",
"83 59 CURVE SMOOTH",
"67 59 OFFCURVE",
"52 43 OFFCURVE",
"52 23 CURVE SMOOTH",
"52 14 OFFCURVE",
"57 3 OFFCURVE",
"66 -5 CURVE",
"39 -76 LINE SMOOTH",
"37 -81 OFFCURVE",
"37 -83 OFFCURVE",
"37 -86 CURVE SMOOTH",
"37 -91 OFFCURVE",
"43 -96 OFFCURVE",
"50 -96 CURVE SMOOTH"
);
}
);
};
layerId = master01;
paths = (
{
closed = 1;
nodes = (
"61 -102 OFFCURVE",
"72 -73 OFFCURVE",
"88 -33 CURVE SMOOTH",
"103 5 OFFCURVE",
"106 12 OFFCURVE",
"106 30 CURVE SMOOTH",
"106 41 OFFCURVE",
"96 53 OFFCURVE",
"83 53 CURVE SMOOTH",
"67 53 OFFCURVE",
"52 37 OFFCURVE",
"52 17 CURVE SMOOTH",
"52 8 OFFCURVE",
"57 -3 OFFCURVE",
"66 -11 CURVE",
"39 -82 LINE SMOOTH",
"37 -87 OFFCURVE",
"37 -89 OFFCURVE",
"37 -92 CURVE SMOOTH",
"37 -97 OFFCURVE",
"43 -102 OFFCURVE",
"50 -102 CURVE SMOOTH"
);
}
);
userData = {
com.fontlab.hintData = {
hhints = (
{
position = -96;
width = 155;
}
);
vhints = (
{
position = 96;
width = 51;
},
{
position = 111;
width = 54;
}
);
};
};
width = 146;
},
{
background = {
paths = (
{
closed = 1;
nodes = (
"74 -93 OFFCURVE",
"75 -77 OFFCURVE",
"99 -19 CURVE SMOOTH",
"114 17 OFFCURVE",
"118 26 OFFCURVE",
"118 45 CURVE SMOOTH",
"118 60 OFFCURVE",
"104 77 OFFCURVE",
"86 77 CURVE SMOOTH",
"65 77 OFFCURVE",
"46 56 OFFCURVE",
"46 32 CURVE SMOOTH",
"46 20 OFFCURVE",
"51 9 OFFCURVE",
"58 2 CURVE",
"34 -62 LINE SMOOTH",
"33 -65 OFFCURVE",
"32 -68 OFFCURVE",
"32 -71 CURVE SMOOTH",
"32 -83 OFFCURVE",
"42 -93 OFFCURVE",
"55 -93 CURVE SMOOTH"
);
}
);
};
layerId = "218416E4-0B36-4DBB-8D0A-D6BB29FB6576";
paths = (
{
closed = 1;
nodes = (
"74 -99 OFFCURVE",
"75 -83 OFFCURVE",
"99 -25 CURVE SMOOTH",
"114 11 OFFCURVE",
"118 20 OFFCURVE",
"118 39 CURVE SMOOTH",
"118 54 OFFCURVE",
"104 71 OFFCURVE",
"86 71 CURVE SMOOTH",
"65 71 OFFCURVE",
"46 50 OFFCURVE",
"46 26 CURVE SMOOTH",
"46 14 OFFCURVE",
"51 3 OFFCURVE",
"58 -4 CURVE",
"34 -68 LINE SMOOTH",
"33 -71 OFFCURVE",
"32 -74 OFFCURVE",
"32 -77 CURVE SMOOTH",
"32 -89 OFFCURVE",
"42 -99 OFFCURVE",
"55 -99 CURVE SMOOTH"
);
}
);
userData = {
com.fontlab.hintData = {
hhints = (
{
position = -93;
width = 170;
}
);
vhints = (
{
position = 90;
width = 67;
},
{
position = 104;
width = 72;
}
);
};
};
width = 158;
},
{
background = {
paths = (
{
closed = 1;
nodes = (
"97 -84 OFFCURVE",
"108 -66 OFFCURVE",
"117 -45 CURVE SMOOTH",
"133 -7 OFFCURVE",
"151 43 OFFCURVE",
"151 64 CURVE SMOOTH",
"151 92 OFFCURVE",
"128 115 OFFCURVE",
"99 115 CURVE SMOOTH",
"68 115 OFFCURVE",
"40 85 OFFCURVE",
"40 52 CURVE SMOOTH",
"40 40 OFFCURVE",
"43 30 OFFCURVE",
"48 21 CURVE",
"30 -26 LINE SMOOTH",
"28 -31 OFFCURVE",
"27 -35 OFFCURVE",
"27 -42 CURVE SMOOTH",
"27 -65 OFFCURVE",
"46 -84 OFFCURVE",
"71 -84 CURVE SMOOTH"
);
}
);
};
layerId = "BB1A411A-CAFC-47D3-A925-066104B707B4";
paths = (
{
closed = 1;
nodes = (
"97 -90 OFFCURVE",
"108 -72 OFFCURVE",
"117 -51 CURVE SMOOTH",
"133 -13 OFFCURVE",
"151 37 OFFCURVE",
"151 58 CURVE SMOOTH",
"151 86 OFFCURVE",
"128 109 OFFCURVE",
"99 109 CURVE SMOOTH",
"68 109 OFFCURVE",
"40 79 OFFCURVE",
"40 46 CURVE SMOOTH",
"40 34 OFFCURVE",
"43 24 OFFCURVE",
"48 15 CURVE",
"30 -32 LINE SMOOTH",
"28 -37 OFFCURVE",
"27 -42 OFFCURVE",
"27 -48 CURVE SMOOTH",
"27 -71 OFFCURVE",
"46 -90 OFFCURVE",
"71 -90 CURVE SMOOTH"
);
}
);
userData = {
com.fontlab.hintData = {
hhints = (
{
position = -84;
width = 199;
}
);
vhints = (
{
position = 91;
width = 111;
}
);
};
};
width = 191;
}
);
leftKerningGroup = comma;
rightKerningGroup = comma;
unicode = 002C;
},
{
glyphname = hyphen;
lastChange = "2020-01-31 00:42:06 +0000";
layers = (
{
background = {
paths = (
{
closed = 1;
nodes = (
"330 232 LINE SMOOTH",
"339 232 OFFCURVE",
"348 241 OFFCURVE",
"348 250 CURVE SMOOTH",
"348 259 OFFCURVE",
"339 268 OFFCURVE",
"330 268 CURVE SMOOTH",
"72 268 LINE SMOOTH",
"63 268 OFFCURVE",
"55 259 OFFCURVE",
"55 250 CURVE SMOOTH",
"55 241 OFFCURVE",
"63 232 OFFCURVE",
"72 232 CURVE SMOOTH"
);
}
);
};
layerId = master01;
paths = (
{
closed = 1;
nodes = (
"330 226 LINE SMOOTH",
"339 226 OFFCURVE",
"348 235 OFFCURVE",
"348 244 CURVE SMOOTH",
"348 253 OFFCURVE",
"339 262 OFFCURVE",
"330 262 CURVE SMOOTH",
"72 262 LINE SMOOTH",
"63 262 OFFCURVE",
"55 253 OFFCURVE",
"55 244 CURVE SMOOTH",
"55 235 OFFCURVE",
"63 226 OFFCURVE",
"72 226 CURVE SMOOTH"
);
}
);
userData = {
com.fontlab.hintData = {
hhints = (
{
position = 232;
width = 36;
}
);
vhints = (
{
position = 75;
width = 293;
}
);
};
};
width = 403;
},
{
background = {
paths = (
{
closed = 1;
nodes = (
"324 223 LINE SMOOTH",
"339 223 OFFCURVE",
"351 236 OFFCURVE",
"351 250 CURVE SMOOTH",
"351 265 OFFCURVE",
"339 277 OFFCURVE",
"324 277 CURVE SMOOTH",
"77 277 LINE SMOOTH",
"63 277 OFFCURVE",
"50 265 OFFCURVE",
"50 250 CURVE SMOOTH",
"50 236 OFFCURVE",
"63 223 OFFCURVE",
"77 223 CURVE SMOOTH"
);
}
);
};
layerId = "218416E4-0B36-4DBB-8D0A-D6BB29FB6576";
paths = (
{
closed = 1;
nodes = (
"324 217 LINE SMOOTH",
"339 217 OFFCURVE",
"351 230 OFFCURVE",
"351 244 CURVE SMOOTH",
"351 259 OFFCURVE",
"339 271 OFFCURVE",
"324 271 CURVE SMOOTH",
"77 271 LINE SMOOTH",
"63 271 OFFCURVE",
"50 259 OFFCURVE",
"50 244 CURVE SMOOTH",
"50 230 OFFCURVE",
"63 217 OFFCURVE",
"77 217 CURVE SMOOTH"
);
}
);
userData = {
com.fontlab.hintData = {
hhints = (
{
position = 223;
width = 54;
}
);
vhints = (
{
position = 71;
width = 301;
}
);
};
};
width = 401;
},
{
background = {
paths = (
{
closed = 1;
nodes = (
"317 203 LINE SMOOTH",
"343 203 OFFCURVE",
"364 225 OFFCURVE",
"364 250 CURVE SMOOTH",
"364 276 OFFCURVE",
"343 297 OFFCURVE",
"317 297 CURVE SMOOTH",
"92 297 LINE SMOOTH",
"68 297 OFFCURVE",
"45 276 OFFCURVE",
"45 250 CURVE SMOOTH",
"45 225 OFFCURVE",
"68 203 OFFCURVE",
"92 203 CURVE SMOOTH"
);
}
);
};
layerId = "BB1A411A-CAFC-47D3-A925-066104B707B4";
paths = (
{
closed = 1;
nodes = (
"317 197 LINE SMOOTH",
"343 197 OFFCURVE",
"364 219 OFFCURVE",
"364 244 CURVE SMOOTH",
"364 270 OFFCURVE",
"343 291 OFFCURVE",
"317 291 CURVE SMOOTH",
"92 291 LINE SMOOTH",
"68 291 OFFCURVE",
"45 270 OFFCURVE",
"45 244 CURVE SMOOTH",
"45 219 OFFCURVE",
"68 197 OFFCURVE",
"92 197 CURVE SMOOTH"
);
}
);
userData = {
com.fontlab.hintData = {
hhints = (
{
position = 203;
width = 94;
}
);
vhints = (
{
position = 65;
width = 319;
}
);
};
};
width = 409;
}
);
leftKerningGroup = hyphen;
rightKerningGroup = hyphen;
unicode = 002D;
},
{
glyphname = period;
lastChange = "2020-01-31 01:03:44 +0000";
layers = (
{
background = {
paths = (
{
closed = 1;
nodes = (
"80 0 OFFCURVE",
"94 18 OFFCURVE",
"94 39 CURVE SMOOTH",
"94 53 OFFCURVE",
"84 66 OFFCURVE",
"71 66 CURVE SMOOTH",
"55 66 OFFCURVE",
"40 48 OFFCURVE",
"40 29 CURVE SMOOTH",
"40 14 OFFCURVE",
"50 0 OFFCURVE",
"63 0 CURVE SMOOTH"
);
}
);
};
layerId = master01;
paths = (
{
closed = 1;
nodes = (
"80 -6 OFFCURVE",
"94 12 OFFCURVE",
"94 33 CURVE SMOOTH",
"94 47 OFFCURVE",
"84 60 OFFCURVE",
"71 60 CURVE SMOOTH",
"55 60 OFFCURVE",
"40 42 OFFCURVE",
"40 23 CURVE SMOOTH",
"40 8 OFFCURVE",
"50 -6 OFFCURVE",
"63 -6 CURVE SMOOTH"
);
}
);
userData = {
com.fontlab.hintData = {
hhints = (
{
position = 0;
width = 66;
}
);
vhints = (
{
position = 76;
width = 54;
}
);
};
};
width = 134;
},
{
background = {
paths = (
{
closed = 1;
nodes = (
"88 0 OFFCURVE",
"107 21 OFFCURVE",
"107 47 CURVE SMOOTH",
"107 67 OFFCURVE",
"93 83 OFFCURVE",
"75 83 CURVE SMOOTH",
"54 83 OFFCURVE",
"35 61 OFFCURVE",
"35 38 CURVE SMOOTH",
"35 17 OFFCURVE",
"48 0 OFFCURVE",
"67 0 CURVE SMOOTH"
);
}
);
};
layerId = "218416E4-0B36-4DBB-8D0A-D6BB29FB6576";
paths = (
{
closed = 1;
nodes = (
"88 -6 OFFCURVE",
"107 15 OFFCURVE",
"107 41 CURVE SMOOTH",
"107 61 OFFCURVE",
"93 77 OFFCURVE",
"75 77 CURVE SMOOTH",
"54 77 OFFCURVE",
"35 55 OFFCURVE",
"35 32 CURVE SMOOTH",
"35 11 OFFCURVE",
"48 -6 OFFCURVE",
"67 -6 CURVE SMOOTH"
);
}
);
userData = {
com.fontlab.hintData = {
hhints = (
{
position = 0;
width = 83;
}
);
vhints = (
{
position = 70;
width = 72;
}
);
};
};
width = 147;
},
{
background = {
paths = (
{
closed = 1;
nodes = (
"112 0 OFFCURVE",
"141 29 OFFCURVE",
"141 65 CURVE SMOOTH",
"141 96 OFFCURVE",
"118 121 OFFCURVE",
"89 121 CURVE SMOOTH",
"58 121 OFFCURVE",
"30 90 OFFCURVE",
"30 57 CURVE SMOOTH",
"30 25 OFFCURVE",
"51 0 OFFCURVE",
"82 0 CURVE SMOOTH"
);
}
);
};
layerId = "BB1A411A-CAFC-47D3-A925-066104B707B4";
paths = (
{
closed = 1;
nodes = (
"112 -6 OFFCURVE",
"141 23 OFFCURVE",
"141 59 CURVE SMOOTH",
"141 90 OFFCURVE",
"118 115 OFFCURVE",
"89 115 CURVE SMOOTH",
"58 115 OFFCURVE",
"30 84 OFFCURVE",
"30 51 CURVE SMOOTH",
"30 19 OFFCURVE",
"51 -6 OFFCURVE",
"82 -6 CURVE SMOOTH"
);
}
);
userData = {
com.fontlab.hintData = {
hhints = (
{
position = 0;
width = 121;
}
);
vhints = (
{
position = 59;
width = 111;
}
);
};
};
width = 181;
}
);
leftKerningGroup = period;
rightKerningGroup = period;
unicode = 002E;
},
{
glyphname = slash;
lastChange = "2020-01-31 00:42:06 +0000";
layers = (
{
background = {
paths = (
{
closed = 1;
nodes = (
"53 -116 OFFCURVE",
"59 -115 OFFCURVE",
"62 -108 CURVE SMOOTH",
"393 669 LINE SMOOTH",
"395 674 OFFCURVE",
"396 678 OFFCURVE",
"396 683 CURVE SMOOTH",
"396 692 OFFCURVE",
"389 700 OFFCURVE",
"378 700 CURVE SMOOTH",
"370 700 OFFCURVE",
"364 696 OFFCURVE",
"361 689 CURVE SMOOTH",
"32 -85 LINE SMOOTH",
"30 -90 OFFCURVE",
"28 -95 OFFCURVE",
"28 -97 CURVE SMOOTH",
"28 -108 OFFCURVE",
"38 -116 OFFCURVE",
"47 -116 CURVE SMOOTH"
);
}
);
};
layerId = master01;
paths = (
{
closed = 1;
nodes = (
"54 -122 OFFCURVE",
"59 -121 OFFCURVE",
"62 -114 CURVE SMOOTH",
"393 663 LINE SMOOTH",
"395 668 OFFCURVE",
"396 672 OFFCURVE",
"396 677 CURVE SMOOTH",
"396 686 OFFCURVE",
"389 694 OFFCURVE",
"378 694 CURVE SMOOTH",
"370 694 OFFCURVE",
"364 690 OFFCURVE",
"361 683 CURVE SMOOTH",
"32 -91 LINE SMOOTH",
"30 -96 OFFCURVE",
"28 -101 OFFCURVE",
"28 -103 CURVE SMOOTH",
"28 -114 OFFCURVE",
"38 -122 OFFCURVE",
"47 -122 CURVE SMOOTH"
);
}
);
userData = {
com.fontlab.hintData = {
hhints = (
{
position = -2;
width = 21;
}
);
};
};
width = 416;
},
{
background = {
paths = (
{
closed = 1;
nodes = (
"67 -116 OFFCURVE",
"76 -112 OFFCURVE",
"79 -104 CURVE SMOOTH",
"395 646 LINE SMOOTH",
"398 652 OFFCURVE",
"403 660 OFFCURVE",
"403 669 CURVE SMOOTH",
"403 680 OFFCURVE",
"392 692 OFFCURVE",
"378 692 CURVE SMOOTH",
"369 692 OFFCURVE",
"359 689 OFFCURVE",
"355 680 CURVE SMOOTH",
"35 -78 LINE SMOOTH",
"33 -82 OFFCURVE",
"32 -86 OFFCURVE",
"32 -91 CURVE SMOOTH",
"32 -104 OFFCURVE",
"42 -116 OFFCURVE",
"57 -116 CURVE SMOOTH"
);
}
);
};
layerId = "218416E4-0B36-4DBB-8D0A-D6BB29FB6576";
paths = (
{
closed = 1;
nodes = (
"67 -122 OFFCURVE",
"76 -118 OFFCURVE",
"79 -110 CURVE SMOOTH",
"395 640 LINE SMOOTH",
"398 646 OFFCURVE",
"403 655 OFFCURVE",
"403 663 CURVE SMOOTH",
"403 674 OFFCURVE",
"392 686 OFFCURVE",
"378 686 CURVE SMOOTH",
"369 686 OFFCURVE",
"359 683 OFFCURVE",
"355 674 CURVE SMOOTH",
"35 -84 LINE SMOOTH",
"33 -88 OFFCURVE",
"32 -92 OFFCURVE",
"32 -97 CURVE SMOOTH",
"32 -110 OFFCURVE",
"42 -122 OFFCURVE",
"57 -122 CURVE SMOOTH"
);
}
);
userData = {
com.fontlab.hintData = {
hhints = (
{
position = -1;
width = 21;
}
);
};
};
width = 435;
},
{
background = {
paths = (
{
closed = 1;
nodes = (
"86 -116 OFFCURVE",
"100 -106 OFFCURVE",
"105 -94 CURVE SMOOTH",
"403 617 LINE SMOOTH",
"406 624 OFFCURVE",
"412 636 OFFCURVE",
"412 648 CURVE SMOOTH",
"412 669 OFFCURVE",
"394 689 OFFCURVE",
"369 689 CURVE SMOOTH",
"354 689 OFFCURVE",
"338 684 OFFCURVE",
"330 665 CURVE SMOOTH",
"31 -47 LINE SMOOTH",
"26 -58 OFFCURVE",
"24 -66 OFFCURVE",
"24 -76 CURVE SMOOTH",
"24 -98 OFFCURVE",
"43 -116 OFFCURVE",
"68 -116 CURVE SMOOTH"
);
}
);
};
layerId = "BB1A411A-CAFC-47D3-A925-066104B707B4";
paths = (
{
closed = 1;
nodes = (
"85 -122 OFFCURVE",
"100 -112 OFFCURVE",
"105 -100 CURVE SMOOTH",
"403 611 LINE SMOOTH",
"406 618 OFFCURVE",
"412 630 OFFCURVE",
"412 642 CURVE SMOOTH",
"412 663 OFFCURVE",
"394 683 OFFCURVE",
"369 683 CURVE SMOOTH",
"354 683 OFFCURVE",
"338 678 OFFCURVE",
"330 659 CURVE SMOOTH",
"31 -53 LINE SMOOTH",
"27 -62 OFFCURVE",
"24 -72 OFFCURVE",
"24 -82 CURVE SMOOTH",
"24 -104 OFFCURVE",
"43 -122 OFFCURVE",
"68 -122 CURVE SMOOTH"
);
}
);
userData = {
com.fontlab.hintData = {
hhints = (
{
position = -1;
width = 21;
}
);
};
};
width = 438;
}
);
unicode = 002F;
},
{
color = 5;
glyphname = zero;
lastChange = "2020-01-31 00:53:44 +0000";
layers = (
{
background = {
paths = (
{
closed = 1;
nodes = (
"422 -3 OFFCURVE",
"535 166 OFFCURVE",
"535 363 CURVE SMOOTH",
"535 541 OFFCURVE",
"441 694 OFFCURVE",
"310 694 CURVE SMOOTH",
"170 694 OFFCURVE",
"60 521 OFFCURVE",
"60 327 CURVE SMOOTH",
"60 151 OFFCURVE",
"155 -3 OFFCURVE",
"286 -3 CURVE SMOOTH"
);
},
{
closed = 1;
nodes = (
"173 33 OFFCURVE",
"95 175 OFFCURVE",
"95 329 CURVE SMOOTH",
"95 509 OFFCURVE",
"195 658 OFFCURVE",
"310 658 CURVE SMOOTH",
"419 658 OFFCURVE",
"501 517 OFFCURVE",
"501 361 CURVE SMOOTH",
"501 182 OFFCURVE",
"400 33 OFFCURVE",
"286 33 CURVE SMOOTH"
);
}
);
};
layerId = master01;
paths = (
{
closed = 1;
nodes = (
"422 -6 OFFCURVE",
"535 163 OFFCURVE",
"535 360 CURVE SMOOTH",
"535 538 OFFCURVE",
"441 691 OFFCURVE",
"310 691 CURVE SMOOTH",
"170 691 OFFCURVE",
"60 518 OFFCURVE",
"60 324 CURVE SMOOTH",
"60 148 OFFCURVE",
"155 -6 OFFCURVE",
"286 -6 CURVE SMOOTH"
);
},
{
closed = 1;
nodes = (
"173 30 OFFCURVE",
"95 172 OFFCURVE",
"95 326 CURVE SMOOTH",
"95 506 OFFCURVE",
"195 655 OFFCURVE",
"310 655 CURVE SMOOTH",
"419 655 OFFCURVE",
"501 514 OFFCURVE",
"501 358 CURVE SMOOTH",
"501 179 OFFCURVE",
"400 30 OFFCURVE",
"286 30 CURVE SMOOTH"
);
}
);
userData = {
com.fontlab.hintData = {
hhints = (
{
position = -3;
width = 36;
},
{
position = 658;
width = 36;
}
);
vhints = (
{
position = 71;
width = 35;
},
{
position = 512;
width = 34;
}
);
};
};
width = 595;
},
{
background = {
paths = (
{
closed = 1;
nodes = (
"434 -3 OFFCURVE",
"546 164 OFFCURVE",
"546 358 CURVE SMOOTH",
"546 534 OFFCURVE",
"452 686 OFFCURVE",
"320 686 CURVE SMOOTH",
"180 686 OFFCURVE",
"70 515 OFFCURVE",
"70 324 CURVE SMOOTH",
"70 150 OFFCURVE",
"165 -3 OFFCURVE",
"297 -3 CURVE SMOOTH"
);
},
{
closed = 1;
nodes = (
"195 52 OFFCURVE",
"124 183 OFFCURVE",
"124 326 CURVE SMOOTH",
"124 493 OFFCURVE",
"215 631 OFFCURVE",
"320 631 CURVE SMOOTH",
"419 631 OFFCURVE",
"493 501 OFFCURVE",
"493 356 CURVE SMOOTH",
"493 190 OFFCURVE",
"401 52 OFFCURVE",
"297 52 CURVE SMOOTH"
);
}
);
};
layerId = "218416E4-0B36-4DBB-8D0A-D6BB29FB6576";
paths = (
{
closed = 1;
nodes = (
"434 -6 OFFCURVE",
"546 161 OFFCURVE",
"546 355 CURVE SMOOTH",
"546 531 OFFCURVE",
"452 683 OFFCURVE",
"320 683 CURVE SMOOTH",
"180 683 OFFCURVE",
"70 512 OFFCURVE",
"70 321 CURVE SMOOTH",
"70 147 OFFCURVE",
"165 -6 OFFCURVE",
"297 -6 CURVE SMOOTH"
);
},
{
closed = 1;
nodes = (
"195 49 OFFCURVE",
"124 180 OFFCURVE",
"124 323 CURVE SMOOTH",
"124 490 OFFCURVE",
"215 628 OFFCURVE",
"320 628 CURVE SMOOTH",
"419 628 OFFCURVE",
"493 498 OFFCURVE",
"493 353 CURVE SMOOTH",
"493 187 OFFCURVE",
"401 49 OFFCURVE",
"297 49 CURVE SMOOTH"
);
}
);
userData = {
com.fontlab.hintData = {
hhints = (
{
position = -3;
width = 55;
},
{
position = 631;
width = 55;
}
);
vhints = (
{
position = 69;
width = 54;
},
{
position = 492;
width = 53;
}
);
};
};
width = 616;
},
{
background = {
paths = (
{
closed = 1;
nodes = (
"413 -3 OFFCURVE",
"525 160 OFFCURVE",
"525 348 CURVE SMOOTH",
"525 520 OFFCURVE",
"430 669 OFFCURVE",
"297 669 CURVE SMOOTH",
"157 669 OFFCURVE",
"47 502 OFFCURVE",
"47 317 CURVE SMOOTH",
"47 147 OFFCURVE",
"142 -3 OFFCURVE",
"276 -3 CURVE SMOOTH"
);
},
{
closed = 1;
nodes = (
"197 93 OFFCURVE",
"142 201 OFFCURVE",
"142 319 CURVE SMOOTH",
"142 458 OFFCURVE",
"213 573 OFFCURVE",
"297 573 CURVE SMOOTH",
"374 573 OFFCURVE",
"431 466 OFFCURVE",
"431 346 CURVE SMOOTH",
"431 208 OFFCURVE",
"359 93 OFFCURVE",
"276 93 CURVE SMOOTH"
);
}
);
};
layerId = "BB1A411A-CAFC-47D3-A925-066104B707B4";
paths = (
{
closed = 1;
nodes = (
"413 -6 OFFCURVE",
"525 156 OFFCURVE",
"525 342 CURVE SMOOTH",
"525 512 OFFCURVE",
"430 660 OFFCURVE",
"297 660 CURVE SMOOTH",
"157 660 OFFCURVE",
"47 494 OFFCURVE",
"47 311 CURVE SMOOTH",
"47 143 OFFCURVE",
"142 -6 OFFCURVE",
"276 -6 CURVE SMOOTH"
);
},
{
closed = 1;
nodes = (
"197 90 OFFCURVE",
"142 197 OFFCURVE",
"142 313 CURVE SMOOTH",
"142 450 OFFCURVE",
"213 564 OFFCURVE",
"297 564 CURVE SMOOTH",
"374 564 OFFCURVE",
"431 458 OFFCURVE",
"431 340 CURVE SMOOTH",
"431 204 OFFCURVE",
"359 90 OFFCURVE",
"276 90 CURVE SMOOTH"
);
}
);
userData = {
com.fontlab.hintData = {
hhints = (
{
position = -3;
width = 96;
},
{
position = 573;
width = 96;
}
);
vhints = (
{
position = 67;
width = 95;
},
{
position = 451;
width = 94;
}
);
};
};
width = 572;
}
);
unicode = 0030;
},
{
color = 5;
glyphname = one;
lastChange = "2020-01-31 00:53:44 +0000";
layers = (
{
background = {
paths = (
{
closed = 1;
nodes = (
"309 0 LINE SMOOTH",
"319 0 OFFCURVE",
"328 8 OFFCURVE",
"328 19 CURVE SMOOTH",
"328 29 OFFCURVE",
"320 38 OFFCURVE",
"307 38 CURVE SMOOTH",
"222 38 LINE",
"232 669 LINE SMOOTH",
"232 677 OFFCURVE",
"223 688 OFFCURVE",
"212 688 CURVE SMOOTH",
"208 688 OFFCURVE",
"202 686 OFFCURVE",
"198 681 CURVE SMOOTH",
"65 537 LINE SMOOTH",
"62 534 OFFCURVE",
"60 528 OFFCURVE",
"60 524 CURVE SMOOTH",
"60 514 OFFCURVE",
"68 505 OFFCURVE",
"79 505 CURVE SMOOTH",
"84 505 OFFCURVE",
"89 507 OFFCURVE",
"93 512 CURVE SMOOTH",
"193 620 LINE",
"185 38 LINE",
"82 38 LINE SMOOTH",
"71 38 OFFCURVE",
"63 29 OFFCURVE",
"63 19 CURVE SMOOTH",
"63 8 OFFCURVE",
"71 0 OFFCURVE",
"82 0 CURVE SMOOTH"
);
}
);
};
layerId = master01;
paths = (
{
closed = 1;
nodes = (
"309 0 LINE SMOOTH",
"319 0 OFFCURVE",
"328 8 OFFCURVE",
"328 19 CURVE SMOOTH",
"328 29 OFFCURVE",
"320 38 OFFCURVE",
"307 38 CURVE SMOOTH",
"222 38 LINE",
"232 669 LINE SMOOTH",
"232 677 OFFCURVE",
"223 688 OFFCURVE",
"212 688 CURVE SMOOTH",
"207 688 OFFCURVE",
"203 686 OFFCURVE",
"198 681 CURVE SMOOTH",
"65 537 LINE SMOOTH",
"62 534 OFFCURVE",
"60 528 OFFCURVE",
"60 524 CURVE SMOOTH",
"60 514 OFFCURVE",
"68 505 OFFCURVE",
"79 505 CURVE SMOOTH",
"84 505 OFFCURVE",
"88 507 OFFCURVE",
"93 512 CURVE SMOOTH",
"193 620 LINE",
"185 38 LINE",
"82 38 LINE SMOOTH",
"71 38 OFFCURVE",
"63 29 OFFCURVE",
"63 19 CURVE SMOOTH",
"63 8 OFFCURVE",
"71 0 OFFCURVE",
"82 0 CURVE SMOOTH"
);
}
);
userData = {
com.fontlab.hintData = {
hhints = (
{
position = 0;
width = 38;
},
{
position = 668;
width = 20;
}
);
vhints = (
{
position = 190;
width = 37;
},
{
position = 198;
width = 39;
}
);
};
};
width = 378;
},
{
background = {
paths = (
{
closed = 1;
nodes = (
"313 0 LINE SMOOTH",
"328 0 OFFCURVE",
"341 12 OFFCURVE",
"341 28 CURVE SMOOTH",
"341 43 OFFCURVE",
"330 56 OFFCURVE",
"311 56 CURVE SMOOTH",
"240 56 LINE",
"249 652 LINE SMOOTH",
"249 666 OFFCURVE",
"238 680 OFFCURVE",
"220 680 CURVE SMOOTH",
"213 680 OFFCURVE",
"205 677 OFFCURVE",
"200 671 CURVE SMOOTH",
"72 532 LINE SMOOTH",
"67 527 OFFCURVE",
"64 520 OFFCURVE",
"64 513 CURVE SMOOTH",
"64 498 OFFCURVE",
"76 485 OFFCURVE",
"92 485 CURVE SMOOTH",
"99 485 OFFCURVE",
"107 488 OFFCURVE",
"113 494 CURVE SMOOTH",
"192 579 LINE",
"184 56 LINE",
"95 56 LINE SMOOTH",
"79 56 OFFCURVE",
"67 43 OFFCURVE",
"67 28 CURVE SMOOTH",
"67 12 OFFCURVE",
"79 0 OFFCURVE",
"95 0 CURVE SMOOTH"
);
}
);
};
layerId = "218416E4-0B36-4DBB-8D0A-D6BB29FB6576";
paths = (
{
closed = 1;
nodes = (
"313 0 LINE SMOOTH",
"328 0 OFFCURVE",
"341 12 OFFCURVE",
"341 28 CURVE SMOOTH",
"341 43 OFFCURVE",
"330 56 OFFCURVE",
"311 56 CURVE SMOOTH",
"240 56 LINE",
"249 652 LINE SMOOTH",
"249 666 OFFCURVE",
"238 680 OFFCURVE",
"220 680 CURVE SMOOTH",
"215 680 OFFCURVE",
"205 677 OFFCURVE",
"200 671 CURVE SMOOTH",
"72 532 LINE SMOOTH",
"67 527 OFFCURVE",
"64 520 OFFCURVE",
"64 513 CURVE SMOOTH",
"64 498 OFFCURVE",
"76 485 OFFCURVE",
"92 485 CURVE SMOOTH",
"100 485 OFFCURVE",
"107 488 OFFCURVE",
"113 494 CURVE SMOOTH",
"192 579 LINE",
"184 56 LINE",
"95 56 LINE SMOOTH",
"79 56 OFFCURVE",
"67 43 OFFCURVE",
"67 28 CURVE SMOOTH",
"67 12 OFFCURVE",
"79 0 OFFCURVE",
"95 0 CURVE SMOOTH"
);
}
);
userData = {
com.fontlab.hintData = {
hhints = (
{
position = 0;
width = 56;
}
);
vhints = (
{
position = 181;
width = 56;
},
{
position = 189;
width = 57;
}
);
};
};
width = 397;
},
{
background = {
paths = (
{
closed = 1;
nodes = (
"305 0 LINE SMOOTH",
"330 0 OFFCURVE",
"353 21 OFFCURVE",
"353 48 CURVE SMOOTH",
"353 74 OFFCURVE",
"335 96 OFFCURVE",
"303 96 CURVE SMOOTH",
"262 96 LINE",
"269 615 LINE SMOOTH",
"269 639 OFFCURVE",
"251 663 OFFCURVE",
"220 663 CURVE SMOOTH",
"210 663 OFFCURVE",
"194 657 OFFCURVE",
"186 648 CURVE SMOOTH",
"69 521 LINE SMOOTH",
"61 513 OFFCURVE",
"56 501 OFFCURVE",
"56 489 CURVE SMOOTH",
"56 463 OFFCURVE",
"77 441 OFFCURVE",
"104 441 CURVE SMOOTH",
"116 441 OFFCURVE",
"129 445 OFFCURVE",
"139 455 CURVE SMOOTH",
"172 490 LINE",
"165 96 LINE",
"107 96 LINE SMOOTH",
"79 96 OFFCURVE",
"59 74 OFFCURVE",
"59 48 CURVE SMOOTH",
"59 21 OFFCURVE",
"79 0 OFFCURVE",
"107 0 CURVE SMOOTH"
);
}
);
};
layerId = "BB1A411A-CAFC-47D3-A925-066104B707B4";
paths = (
{
closed = 1;
nodes = (
"305 0 LINE SMOOTH",
"330 0 OFFCURVE",
"353 21 OFFCURVE",
"353 48 CURVE SMOOTH",
"353 74 OFFCURVE",
"335 96 OFFCURVE",
"303 96 CURVE SMOOTH",
"262 96 LINE",
"269 612 LINE SMOOTH",
"269 636 OFFCURVE",
"251 660 OFFCURVE",
"220 660 CURVE SMOOTH",
"210 660 OFFCURVE",
"194 654 OFFCURVE",
"186 645 CURVE SMOOTH",
"69 518 LINE SMOOTH",
"61 509 OFFCURVE",
"56 498 OFFCURVE",
"56 486 CURVE SMOOTH",
"56 460 OFFCURVE",
"77 438 OFFCURVE",
"104 438 CURVE SMOOTH",
"117 438 OFFCURVE",
"129 442 OFFCURVE",
"139 452 CURVE SMOOTH",
"172 487 LINE",
"165 96 LINE",
"107 96 LINE SMOOTH",
"79 96 OFFCURVE",
"59 74 OFFCURVE",
"59 48 CURVE SMOOTH",
"59 21 OFFCURVE",
"79 0 OFFCURVE",
"107 0 CURVE SMOOTH"
);
}
);
userData = {
com.fontlab.hintData = {
hhints = (
{
position = 0;
width = 96;
}
);
vhints = (
{
position = 58;
width = 294;
},
{
position = 164;
width = 97;
},
{
position = 171;
width = 97;
}
);
};
};
width = 393;
}
);
unicode = 0031;
},
{
color = 5;
glyphname = two;
lastChange = "2020-01-31 00:53:44 +0000";
layers = (
{
background = {
paths = (
{
closed = 1;
nodes = (
"436 0 LINE SMOOTH",
"446 0 OFFCURVE",
"455 8 OFFCURVE",
"455 18 CURVE SMOOTH",
"455 28 OFFCURVE",
"446 36 OFFCURVE",
"436 36 CURVE SMOOTH",
"98 36 LINE",
"106 181 OFFCURVE",
"191 243 OFFCURVE",
"276 299 CURVE",
"362 353 OFFCURVE",
"445 403 OFFCURVE",
"445 519 CURVE SMOOTH",
"445 610 OFFCURVE",
"368 685 OFFCURVE",
"260 685 CURVE SMOOTH",
"176 685 OFFCURVE",
"115 641 OFFCURVE",
"80 606 CURVE",
"59 587 OFFCURVE",
"54 578 OFFCURVE",
"54 571 CURVE SMOOTH",
"54 562 OFFCURVE",
"62 551 OFFCURVE",
"73 551 CURVE SMOOTH",
"83 551 OFFCURVE",
"88 560 OFFCURVE",
"95 568 CURVE SMOOTH",
"102 576 OFFCURVE",
"166 647 OFFCURVE",
"260 647 CURVE SMOOTH",
"343 647 OFFCURVE",
"408 593 OFFCURVE",
"408 519 CURVE SMOOTH",
"408 429 OFFCURVE",
"338 386 OFFCURVE",
"260 334 CURVE",
"159 269 OFFCURVE",
"60 197 OFFCURVE",
"60 18 CURVE SMOOTH",
"60 0 LINE"
);
}
);
};
layerId = master01;
paths = (
{
closed = 1;
nodes = (
"436 0 LINE SMOOTH",
"446 0 OFFCURVE",
"455 8 OFFCURVE",
"455 18 CURVE SMOOTH",
"455 28 OFFCURVE",
"446 36 OFFCURVE",
"436 36 CURVE SMOOTH",
"98 36 LINE",
"106 181 OFFCURVE",
"191 243 OFFCURVE",
"276 299 CURVE",
"362 353 OFFCURVE",
"445 403 OFFCURVE",
"445 519 CURVE SMOOTH",
"445 610 OFFCURVE",
"368 685 OFFCURVE",
"260 685 CURVE SMOOTH",
"176 685 OFFCURVE",
"115 641 OFFCURVE",
"80 606 CURVE",
"59 587 OFFCURVE",
"54 578 OFFCURVE",
"54 571 CURVE SMOOTH",
"54 562 OFFCURVE",
"62 551 OFFCURVE",
"73 551 CURVE SMOOTH",
"83 551 OFFCURVE",
"88 560 OFFCURVE",
"95 568 CURVE SMOOTH",
"102 576 OFFCURVE",
"166 647 OFFCURVE",
"260 647 CURVE SMOOTH",
"343 647 OFFCURVE",
"408 593 OFFCURVE",
"408 519 CURVE SMOOTH",
"408 429 OFFCURVE",
"338 386 OFFCURVE",
"260 334 CURVE",
"159 269 OFFCURVE",
"60 197 OFFCURVE",
"60 18 CURVE SMOOTH",
"60 0 LINE"
);
}
);
userData = {
com.fontlab.hintData = {
hhints = (
{
position = 0;
width = 36;
},
{
position = 647;
width = 38;
}
);
vhints = (
{
position = 419;
width = 37;
}
);
};
};
width = 505;
},
{
background = {
paths = (
{
closed = 1;
nodes = (
"439 0 LINE SMOOTH",
"454 0 OFFCURVE",
"467 12 OFFCURVE",
"467 27 CURVE SMOOTH",
"467 43 OFFCURVE",
"454 55 OFFCURVE",
"439 55 CURVE SMOOTH",
"125 55 LINE",
"131 180 OFFCURVE",
"211 237 OFFCURVE",
"291 289 CURVE SMOOTH",
"375 343 OFFCURVE",
"458 392 OFFCURVE",
"458 508 CURVE SMOOTH",
"458 601 OFFCURVE",
"380 677 OFFCURVE",
"270 677 CURVE SMOOTH",
"187 677 OFFCURVE",
"126 632 OFFCURVE",
"91 598 CURVE SMOOTH",
"69 577 OFFCURVE",
"63 568 OFFCURVE",
"63 558 CURVE SMOOTH",
"63 544 OFFCURVE",
"74 529 OFFCURVE",
"91 529 CURVE SMOOTH",
"105 529 OFFCURVE",
"113 540 OFFCURVE",
"120 548 CURVE SMOOTH",
"127 556 OFFCURVE",
"186 621 OFFCURVE",
"270 621 CURVE SMOOTH",
"344 621 OFFCURVE",
"402 573 OFFCURVE",
"402 508 CURVE SMOOTH",
"402 422 OFFCURVE",
"332 382 OFFCURVE",
"256 333 CURVE SMOOTH",
"166 275 OFFCURVE",
"68 204 OFFCURVE",
"68 27 CURVE SMOOTH",
"68 0 LINE"
);
}
);
};
layerId = "218416E4-0B36-4DBB-8D0A-D6BB29FB6576";
paths = (
{
closed = 1;
nodes = (
"439 0 LINE SMOOTH",
"454 0 OFFCURVE",
"467 12 OFFCURVE",
"467 27 CURVE SMOOTH",
"467 43 OFFCURVE",
"454 55 OFFCURVE",
"439 55 CURVE SMOOTH",
"125 55 LINE",
"131 180 OFFCURVE",
"211 237 OFFCURVE",
"291 289 CURVE SMOOTH",
"375 343 OFFCURVE",
"458 392 OFFCURVE",
"458 508 CURVE SMOOTH",
"458 601 OFFCURVE",
"380 677 OFFCURVE",
"270 677 CURVE SMOOTH",
"187 677 OFFCURVE",
"126 632 OFFCURVE",
"91 598 CURVE SMOOTH",
"69 577 OFFCURVE",
"63 568 OFFCURVE",
"63 558 CURVE SMOOTH",
"63 544 OFFCURVE",
"74 529 OFFCURVE",
"91 529 CURVE SMOOTH",
"105 529 OFFCURVE",
"113 540 OFFCURVE",
"120 548 CURVE SMOOTH",
"127 556 OFFCURVE",
"186 621 OFFCURVE",
"270 621 CURVE SMOOTH",
"344 621 OFFCURVE",
"402 573 OFFCURVE",
"402 508 CURVE SMOOTH",
"402 422 OFFCURVE",
"332 382 OFFCURVE",
"256 333 CURVE SMOOTH",
"154 267 OFFCURVE",
"68 196 OFFCURVE",
"68 27 CURVE SMOOTH",
"68 0 LINE"
);
}
);
userData = {
com.fontlab.hintData = {
hhints = (
{
position = 0;
width = 55;
},
{
position = 621;
width = 56;
}
);
vhints = (
{
position = 68;
width = 57;
},
{
position = 402;
width = 56;
}
);
};
};
width = 528;
},
{
background = {
paths = (
{
closed = 1;
nodes = (
"410 0 LINE SMOOTH",
"435 0 OFFCURVE",
"458 21 OFFCURVE",
"458 47 CURVE SMOOTH",
"458 74 OFFCURVE",
"435 95 OFFCURVE",
"410 95 CURVE SMOOTH",
"149 95 LINE",
"163 182 OFFCURVE",
"226 226 OFFCURVE",
"288 266 CURVE SMOOTH",
"365 315 OFFCURVE",
"450 372 OFFCURVE",
"450 484 CURVE SMOOTH",
"450 581 OFFCURVE",
"370 660 OFFCURVE",
"256 660 CURVE SMOOTH",
"174 660 OFFCURVE",
"113 616 OFFCURVE",
"78 582 CURVE SMOOTH",
"53 558 OFFCURVE",
"46 546 OFFCURVE",
"46 530 CURVE SMOOTH",
"46 506 OFFCURVE",
"65 481 OFFCURVE",
"94 481 CURVE SMOOTH",
"117 481 OFFCURVE",
"126 492 OFFCURVE",
"136 503 CURVE SMOOTH",
"143 511 OFFCURVE",
"191 564 OFFCURVE",
"256 564 CURVE SMOOTH",
"311 564 OFFCURVE",
"354 531 OFFCURVE",
"354 484 CURVE SMOOTH",
"354 423 OFFCURVE",
"301 390 OFFCURVE",
"228 342 CURVE",
"143 288 OFFCURVE",
"50 220 OFFCURVE",
"50 47 CURVE SMOOTH",
"50 0 LINE"
);
}
);
};
layerId = "BB1A411A-CAFC-47D3-A925-066104B707B4";
paths = (
{
closed = 1;
nodes = (
"410 0 LINE SMOOTH",
"435 0 OFFCURVE",
"458 21 OFFCURVE",
"458 47 CURVE SMOOTH",
"458 74 OFFCURVE",
"435 95 OFFCURVE",
"410 95 CURVE SMOOTH",
"149 95 LINE",
"163 182 OFFCURVE",
"226 226 OFFCURVE",
"288 266 CURVE SMOOTH",
"365 315 OFFCURVE",
"450 372 OFFCURVE",
"450 484 CURVE SMOOTH",
"450 581 OFFCURVE",
"370 660 OFFCURVE",
"256 660 CURVE SMOOTH",
"174 660 OFFCURVE",
"113 616 OFFCURVE",
"78 582 CURVE SMOOTH",
"53 558 OFFCURVE",
"46 546 OFFCURVE",
"46 530 CURVE SMOOTH",
"46 506 OFFCURVE",
"65 481 OFFCURVE",
"94 481 CURVE SMOOTH",
"117 481 OFFCURVE",
"126 492 OFFCURVE",
"136 503 CURVE SMOOTH",
"143 511 OFFCURVE",
"191 564 OFFCURVE",
"256 564 CURVE SMOOTH",
"311 564 OFFCURVE",
"354 531 OFFCURVE",
"354 484 CURVE SMOOTH",
"354 423 OFFCURVE",
"301 390 OFFCURVE",
"228 342 CURVE",
"143 288 OFFCURVE",
"50 220 OFFCURVE",
"50 47 CURVE SMOOTH",
"50 0 LINE"
);
}
);
userData = {
com.fontlab.hintData = {
hhints = (
{
position = 0;
width = 95;
},
{
position = 564;
width = 96;
}
);
vhints = (
{
position = 368;
width = 96;
}
);
};
};
width = 498;
}
);
unicode = 0032;
},
{
color = 5;
glyphname = three;
lastChange = "2020-01-31 00:53:44 +0000";
layers = (
{
background = {
paths = (
{
closed = 1;
nodes = (
"297 -6 OFFCURVE",
"424 47 OFFCURVE",
"424 198 CURVE SMOOTH",
"424 278 OFFCURVE",
"377 351 OFFCURVE",
"289 388 CURVE",
"359 425 OFFCURVE",
"407 482 OFFCURVE",
"407 544 CURVE SMOOTH",
"407 627 OFFCURVE",
"324 692 OFFCURVE",
"217 692 CURVE SMOOTH",
"160 692 OFFCURVE",
"110 672 OFFCURVE",
"81 654 CURVE SMOOTH",
"59 640 OFFCURVE",
"52 629 OFFCURVE",
"52 622 CURVE SMOOTH",
"52 614 OFFCURVE",
"58 603 OFFCURVE",
"71 603 CURVE SMOOTH",
"75 603 OFFCURVE",
"80 606 OFFCURVE",
"88 613 CURVE SMOOTH",
"106 626 OFFCURVE",
"143 654 OFFCURVE",
"217 654 CURVE SMOOTH",
"315 654 OFFCURVE",
"370 597 OFFCURVE",
"370 544 CURVE SMOOTH",
"370 469 OFFCURVE",
"280 405 OFFCURVE",
"200 405 CURVE SMOOTH",
"189 405 OFFCURVE",
"181 397 OFFCURVE",
"181 387 CURVE SMOOTH",
"181 376 OFFCURVE",
"189 368 OFFCURVE",
"199 368 CURVE SMOOTH",
"252 368 OFFCURVE",
"386 338 OFFCURVE",
"386 198 CURVE SMOOTH",
"386 83 OFFCURVE",
"296 31 OFFCURVE",
"216 31 CURVE SMOOTH",
"120 31 OFFCURVE",
"71 97 OFFCURVE",
"56 123 CURVE SMOOTH",
"52 129 OFFCURVE",
"47 133 OFFCURVE",
"39 133 CURVE SMOOTH",
"30 133 OFFCURVE",
"21 126 OFFCURVE",
"21 117 CURVE SMOOTH",
"21 114 OFFCURVE",
"21 109 OFFCURVE",
"24 102 CURVE SMOOTH",
"28 93 OFFCURVE",
"83 -6 OFFCURVE",
"219 -6 CURVE SMOOTH"
);
}
);
};
layerId = master01;
paths = (
{
closed = 1;
nodes = (
"297 -6 OFFCURVE",
"424 47 OFFCURVE",
"424 198 CURVE SMOOTH",
"424 278 OFFCURVE",
"377 351 OFFCURVE",
"289 388 CURVE",
"359 425 OFFCURVE",
"407 482 OFFCURVE",
"407 544 CURVE SMOOTH",
"407 627 OFFCURVE",
"324 692 OFFCURVE",
"217 692 CURVE SMOOTH",
"160 692 OFFCURVE",
"110 672 OFFCURVE",
"81 654 CURVE SMOOTH",
"59 640 OFFCURVE",
"52 629 OFFCURVE",
"52 622 CURVE SMOOTH",
"52 614 OFFCURVE",
"58 603 OFFCURVE",
"71 603 CURVE SMOOTH",
"76 603 OFFCURVE",
"80 607 OFFCURVE",
"88 613 CURVE SMOOTH",
"108 628 OFFCURVE",
"147 654 OFFCURVE",
"217 654 CURVE SMOOTH",
"315 654 OFFCURVE",
"370 597 OFFCURVE",
"370 544 CURVE SMOOTH",
"370 469 OFFCURVE",
"280 405 OFFCURVE",
"200 405 CURVE SMOOTH",
"189 405 OFFCURVE",
"181 397 OFFCURVE",
"181 387 CURVE SMOOTH",
"181 376 OFFCURVE",
"189 368 OFFCURVE",
"199 368 CURVE SMOOTH",
"252 368 OFFCURVE",
"386 338 OFFCURVE",
"386 198 CURVE SMOOTH",
"386 83 OFFCURVE",
"296 31 OFFCURVE",
"216 31 CURVE SMOOTH",
"120 31 OFFCURVE",
"73 98 OFFCURVE",
"56 123 CURVE SMOOTH",
"52 129 OFFCURVE",
"47 133 OFFCURVE",
"39 133 CURVE SMOOTH",
"30 133 OFFCURVE",
"21 126 OFFCURVE",
"21 117 CURVE SMOOTH",
"21 114 OFFCURVE",
"21 109 OFFCURVE",
"24 102 CURVE SMOOTH",
"28 93 OFFCURVE",
"83 -6 OFFCURVE",
"219 -6 CURVE SMOOTH"
);
}
);
userData = {
com.fontlab.hintData = {
hhints = (
{
position = -6;
width = 37;
},
{
position = 368;
width = 37;
},
{
position = 654;
width = 38;
}
);
vhints = (
{
position = 419;
width = 37;
},
{
position = 435;
width = 38;
}
);
};
};
width = 484;
},
{
background = {
paths = (
{
closed = 1;
nodes = (
"316 -6 OFFCURVE",
"444 48 OFFCURVE",
"444 200 CURVE SMOOTH",
"444 281 OFFCURVE",
"404 351 OFFCURVE",
"328 383 CURVE",
"387 415 OFFCURVE",
"428 469 OFFCURVE",
"428 532 CURVE SMOOTH",
"428 618 OFFCURVE",
"344 684 OFFCURVE",
"236 684 CURVE SMOOTH",
"178 684 OFFCURVE",
"129 664 OFFCURVE",
"100 646 CURVE SMOOTH",
"73 629 OFFCURVE",
"67 617 OFFCURVE",
"67 607 CURVE SMOOTH",
"67 594 OFFCURVE",
"76 579 OFFCURVE",
"95 579 CURVE SMOOTH",
"102 579 OFFCURVE",
"107 582 OFFCURVE",
"115 588 CURVE SMOOTH",
"130 599 OFFCURVE",
"165 628 OFFCURVE",
"236 628 CURVE SMOOTH",
"324 628 OFFCURVE",
"372 578 OFFCURVE",
"372 532 CURVE SMOOTH",
"372 465 OFFCURVE",
"291 409 OFFCURVE",
"219 409 CURVE SMOOTH",
"203 409 OFFCURVE",
"191 397 OFFCURVE",
"191 381 CURVE SMOOTH",
"191 366 OFFCURVE",
"203 353 OFFCURVE",
"218 353 CURVE SMOOTH",
"266 353 OFFCURVE",
"388 326 OFFCURVE",
"388 200 CURVE SMOOTH",
"388 97 OFFCURVE",
"306 50 OFFCURVE",
"235 50 CURVE SMOOTH",
"147 50 OFFCURVE",
"103 109 OFFCURVE",
"90 133 CURVE SMOOTH",
"85 142 OFFCURVE",
"77 148 OFFCURVE",
"65 148 CURVE SMOOTH",
"50 148 OFFCURVE",
"38 137 OFFCURVE",
"38 122 CURVE SMOOTH",
"38 118 OFFCURVE",
"38 112 OFFCURVE",
"42 104 CURVE SMOOTH",
"44 101 OFFCURVE",
"96 -6 OFFCURVE",
"237 -6 CURVE SMOOTH"
);
}
);
};
layerId = "218416E4-0B36-4DBB-8D0A-D6BB29FB6576";
paths = (
{
closed = 1;
nodes = (
"316 -6 OFFCURVE",
"444 48 OFFCURVE",
"444 200 CURVE SMOOTH",
"444 281 OFFCURVE",
"404 351 OFFCURVE",
"328 383 CURVE",
"387 415 OFFCURVE",
"428 469 OFFCURVE",
"428 532 CURVE SMOOTH",
"428 618 OFFCURVE",
"344 684 OFFCURVE",
"236 684 CURVE SMOOTH",
"178 684 OFFCURVE",
"129 664 OFFCURVE",
"100 646 CURVE SMOOTH",
"73 629 OFFCURVE",
"67 617 OFFCURVE",
"67 607 CURVE SMOOTH",
"67 594 OFFCURVE",
"76 579 OFFCURVE",
"95 579 CURVE SMOOTH",
"102 579 OFFCURVE",
"107 582 OFFCURVE",
"115 588 CURVE SMOOTH",
"130 599 OFFCURVE",
"165 628 OFFCURVE",
"236 628 CURVE SMOOTH",
"324 628 OFFCURVE",
"372 578 OFFCURVE",
"372 532 CURVE SMOOTH",
"372 465 OFFCURVE",
"291 409 OFFCURVE",
"219 409 CURVE SMOOTH",
"203 409 OFFCURVE",
"191 397 OFFCURVE",
"191 381 CURVE SMOOTH",
"191 366 OFFCURVE",
"203 353 OFFCURVE",
"218 353 CURVE SMOOTH",
"266 353 OFFCURVE",
"388 326 OFFCURVE",
"388 200 CURVE SMOOTH",
"388 97 OFFCURVE",
"306 50 OFFCURVE",
"235 50 CURVE SMOOTH",
"147 50 OFFCURVE",
"103 109 OFFCURVE",
"90 133 CURVE SMOOTH",
"85 142 OFFCURVE",
"77 148 OFFCURVE",
"65 148 CURVE SMOOTH",
"50 148 OFFCURVE",
"38 137 OFFCURVE",
"38 122 CURVE SMOOTH",
"38 118 OFFCURVE",
"38 111 OFFCURVE",
"42 104 CURVE SMOOTH",
"44 101 OFFCURVE",
"96 -6 OFFCURVE",
"237 -6 CURVE SMOOTH"
);
}
);
userData = {
com.fontlab.hintData = {
hhints = (
{
position = -6;
width = 56;
},
{
position = 353;
width = 56;
},
{
position = 628;
width = 56;
}
);
vhints = (
{
position = 402;
width = 56;
},
{
position = 418;
width = 56;
}
);
};
};
width = 508;
},
{
background = {
paths = (
{
closed = 1;
nodes = (
"315 -6 OFFCURVE",
"440 49 OFFCURVE",
"440 203 CURVE SMOOTH",
"440 272 OFFCURVE",
"412 334 OFFCURVE",
"356 371 CURVE",
"399 405 OFFCURVE",
"425 451 OFFCURVE",
"425 505 CURVE SMOOTH",
"425 596 OFFCURVE",
"339 666 OFFCURVE",
"228 666 CURVE SMOOTH",
"171 666 OFFCURVE",
"122 646 OFFCURVE",
"93 628 CURVE SMOOTH",
"59 607 OFFCURVE",
"52 589 OFFCURVE",
"52 573 CURVE SMOOTH",
"52 550 OFFCURVE",
"67 525 OFFCURVE",
"100 525 CURVE SMOOTH",
"113 525 OFFCURVE",
"119 530 OFFCURVE",
"131 538 CURVE SMOOTH",
"148 549 OFFCURVE",
"178 569 OFFCURVE",
"228 569 CURVE SMOOTH",
"293 569 OFFCURVE",
"329 536 OFFCURVE",
"329 505 CURVE SMOOTH",
"329 457 OFFCURVE",
"267 416 OFFCURVE",
"213 416 CURVE SMOOTH",
"185 416 OFFCURVE",
"164 395 OFFCURVE",
"164 368 CURVE SMOOTH",
"164 342 OFFCURVE",
"185 320 OFFCURVE",
"212 320 CURVE SMOOTH",
"249 320 OFFCURVE",
"343 299 OFFCURVE",
"343 203 CURVE SMOOTH",
"343 125 OFFCURVE",
"281 90 OFFCURVE",
"227 90 CURVE SMOOTH",
"159 90 OFFCURVE",
"125 135 OFFCURVE",
"115 153 CURVE SMOOTH",
"106 169 OFFCURVE",
"93 179 OFFCURVE",
"73 179 CURVE SMOOTH",
"46 179 OFFCURVE",
"25 159 OFFCURVE",
"25 133 CURVE SMOOTH",
"25 127 OFFCURVE",
"28 114 OFFCURVE",
"33 103 CURVE SMOOTH",
"62 39 OFFCURVE",
"143 -6 OFFCURVE",
"229 -6 CURVE SMOOTH"
);
}
);
};
layerId = "BB1A411A-CAFC-47D3-A925-066104B707B4";
paths = (
{
closed = 1;
nodes = (
"321 -6 OFFCURVE",
"440 53 OFFCURVE",
"440 202 CURVE SMOOTH",
"440 270 OFFCURVE",
"412 328 OFFCURVE",
"356 365 CURVE",
"399 399 OFFCURVE",
"425 445 OFFCURVE",
"425 499 CURVE SMOOTH",
"425 590 OFFCURVE",
"339 660 OFFCURVE",
"228 660 CURVE SMOOTH",
"171 660 OFFCURVE",
"122 640 OFFCURVE",
"93 622 CURVE SMOOTH",
"59 601 OFFCURVE",
"52 583 OFFCURVE",
"52 567 CURVE SMOOTH",
"52 544 OFFCURVE",
"67 519 OFFCURVE",
"100 519 CURVE SMOOTH",
"113 519 OFFCURVE",
"119 524 OFFCURVE",
"131 532 CURVE SMOOTH",
"148 543 OFFCURVE",
"178 563 OFFCURVE",
"228 563 CURVE SMOOTH",
"293 563 OFFCURVE",
"329 530 OFFCURVE",
"329 499 CURVE SMOOTH",
"329 451 OFFCURVE",
"267 410 OFFCURVE",
"213 410 CURVE SMOOTH",
"185 410 OFFCURVE",
"164 389 OFFCURVE",
"164 362 CURVE SMOOTH",
"164 336 OFFCURVE",
"185 314 OFFCURVE",
"212 314 CURVE SMOOTH",
"249 314 OFFCURVE",
"343 294 OFFCURVE",
"343 202 CURVE SMOOTH",
"343 125 OFFCURVE",
"281 90 OFFCURVE",
"227 90 CURVE SMOOTH",
"159 90 OFFCURVE",
"125 135 OFFCURVE",
"115 153 CURVE SMOOTH",
"106 169 OFFCURVE",
"93 179 OFFCURVE",
"73 179 CURVE SMOOTH",
"46 179 OFFCURVE",
"25 159 OFFCURVE",
"25 133 CURVE SMOOTH",
"25 127 OFFCURVE",
"28 114 OFFCURVE",
"33 103 CURVE SMOOTH",
"62 39 OFFCURVE",
"143 -6 OFFCURVE",
"229 -6 CURVE SMOOTH"
);
}
);
userData = {
com.fontlab.hintData = {
hhints = (
{
position = -5;
width = 96;
},
{
position = 321;
width = 96;
},
{
position = 570;
width = 97;
}
);
vhints = (
{
position = 368;
width = 96;
},
{
position = 382;
width = 97;
}
);
};
};
width = 493;
}
);
unicode = 0033;
},
{
color = 5;
glyphname = four;
lastChange = "2020-01-31 00:53:44 +0000";
layers = (
{
background = {
paths = (
{
closed = 1;
nodes = (
"348 -1 OFFCURVE",
"357 7 OFFCURVE",
"357 18 CURVE SMOOTH",
"357 172 LINE",
"402 171 LINE SMOOTH",
"413 171 OFFCURVE",
"421 179 OFFCURVE",
"421 190 CURVE SMOOTH",
"421 200 OFFCURVE",
"414 208 OFFCURVE",
"402 208 CURVE SMOOTH",
"357 209 LINE",
"357 673 LINE SMOOTH",
"357 684 OFFCURVE",
"349 692 OFFCURVE",
"338 692 CURVE SMOOTH",
"329 692 OFFCURVE",
"325 688 OFFCURVE",
"320 680 CURVE SMOOTH",
"35 209 LINE SMOOTH",
"30 200 OFFCURVE",
"28 196 OFFCURVE",
"28 191 CURVE SMOOTH",
"28 183 OFFCURVE",
"34 177 OFFCURVE",
"44 177 CURVE SMOOTH",
"319 173 LINE",
"319 18 LINE SMOOTH",
"319 7 OFFCURVE",
"327 -1 OFFCURVE",
"338 -1 CURVE SMOOTH"
);
},
{
closed = 1;
nodes = (
"81 214 LINE",
"319 606 LINE",
"319 210 LINE"
);
}
);
};
layerId = master01;
paths = (
{
closed = 1;
nodes = (
"348 -6 OFFCURVE",
"357 2 OFFCURVE",
"357 13 CURVE SMOOTH",
"357 167 LINE",
"402 166 LINE SMOOTH",
"413 166 OFFCURVE",
"421 174 OFFCURVE",
"421 185 CURVE SMOOTH",
"421 194 OFFCURVE",
"414 203 OFFCURVE",
"402 203 CURVE SMOOTH",
"357 204 LINE",
"357 668 LINE SMOOTH",
"357 679 OFFCURVE",
"349 687 OFFCURVE",
"338 687 CURVE SMOOTH",
"329 687 OFFCURVE",
"325 683 OFFCURVE",
"320 675 CURVE SMOOTH",
"35 204 LINE SMOOTH",
"30 195 OFFCURVE",
"28 192 OFFCURVE",
"28 186 CURVE SMOOTH",
"28 179 OFFCURVE",
"34 172 OFFCURVE",
"44 172 CURVE SMOOTH",
"319 168 LINE",
"319 13 LINE SMOOTH",
"319 2 OFFCURVE",
"327 -6 OFFCURVE",
"338 -6 CURVE SMOOTH"
);
},
{
closed = 1;
nodes = (
"81 209 LINE",
"319 601 LINE",
"319 205 LINE"
);
}
);
userData = {
com.fontlab.hintData = {
hhints = (
{
position = -1;
width = 21;
},
{
position = 177;
width = 37;
}
);
vhints = (
{
position = 348;
width = 38;
}
);
};
};
width = 476;
},
{
background = {
paths = (
{
closed = 1;
nodes = (
"356 -1 OFFCURVE",
"369 12 OFFCURVE",
"369 27 CURVE SMOOTH",
"369 165 LINE",
"405 164 LINE SMOOTH",
"419 164 OFFCURVE",
"431 177 OFFCURVE",
"431 192 CURVE SMOOTH",
"431 207 OFFCURVE",
"420 219 OFFCURVE",
"404 220 CURVE SMOOTH",
"369 221 LINE",
"369 656 LINE SMOOTH",
"369 673 OFFCURVE",
"357 684 OFFCURVE",
"341 684 CURVE SMOOTH",
"330 684 OFFCURVE",
"322 679 OFFCURVE",
"316 669 CURVE SMOOTH",
"39 213 LINE SMOOTH",
"36 208 OFFCURVE",
"34 204 OFFCURVE",
"34 198 CURVE SMOOTH",
"34 183 OFFCURVE",
"48 170 OFFCURVE",
"62 170 CURVE SMOOTH",
"313 166 LINE",
"313 27 LINE SMOOTH",
"313 12 OFFCURVE",
"325 -1 OFFCURVE",
"341 -1 CURVE SMOOTH"
);
},
{
closed = 1;
nodes = (
"112 225 LINE",
"313 556 LINE",
"313 222 LINE"
);
}
);
};
layerId = "218416E4-0B36-4DBB-8D0A-D6BB29FB6576";
paths = (
{
closed = 1;
nodes = (
"356 -6 OFFCURVE",
"369 7 OFFCURVE",
"369 22 CURVE SMOOTH",
"369 160 LINE",
"405 159 LINE SMOOTH",
"419 159 OFFCURVE",
"431 172 OFFCURVE",
"431 187 CURVE SMOOTH",
"431 203 OFFCURVE",
"418 215 OFFCURVE",
"404 215 CURVE SMOOTH",
"369 216 LINE",
"369 651 LINE SMOOTH",
"369 668 OFFCURVE",
"357 679 OFFCURVE",
"341 679 CURVE SMOOTH",
"331 679 OFFCURVE",
"322 674 OFFCURVE",
"316 664 CURVE SMOOTH",
"39 208 LINE SMOOTH",
"36 203 OFFCURVE",
"34 199 OFFCURVE",
"34 193 CURVE SMOOTH",
"34 179 OFFCURVE",
"48 165 OFFCURVE",
"62 165 CURVE SMOOTH",
"313 161 LINE",
"313 22 LINE SMOOTH",
"313 7 OFFCURVE",
"325 -6 OFFCURVE",
"341 -6 CURVE SMOOTH"
);
},
{
closed = 1;
nodes = (
"112 220 LINE",
"313 551 LINE",
"313 217 LINE"
);
}
);
userData = {
com.fontlab.hintData = {
hhints = (
{
position = -1;
width = 21;
},
{
position = 165;
width = 56;
},
{
position = 664;
width = 20;
}
);
vhints = (
{
position = 334;
width = 56;
}
);
};
};
width = 487;
},
{
background = {
paths = (
{
closed = 1;
nodes = (
"358 -1 OFFCURVE",
"381 22 OFFCURVE",
"381 47 CURVE SMOOTH",
"381 149 LINE",
"387 149 LINE SMOOTH",
"413 149 OFFCURVE",
"437 170 OFFCURVE",
"437 197 CURVE SMOOTH",
"437 223 OFFCURVE",
"418 245 OFFCURVE",
"391 245 CURVE SMOOTH",
"381 245 LINE",
"381 619 LINE SMOOTH",
"381 646 OFFCURVE",
"360 667 OFFCURVE",
"332 667 CURVE SMOOTH",
"314 667 OFFCURVE",
"301 659 OFFCURVE",
"292 644 CURVE SMOOTH",
"39 228 LINE SMOOTH",
"34 219 OFFCURVE",
"31 211 OFFCURVE",
"31 201 CURVE SMOOTH",
"31 175 OFFCURVE",
"47 154 OFFCURVE",
"79 154 CURVE SMOOTH",
"284 151 LINE",
"284 47 LINE SMOOTH",
"284 22 OFFCURVE",
"305 -1 OFFCURVE",
"332 -1 CURVE SMOOTH"
);
},
{
closed = 1;
nodes = (
"164 250 LINE",
"284 447 LINE",
"284 247 LINE"
);
}
);
};
layerId = "BB1A411A-CAFC-47D3-A925-066104B707B4";
paths = (
{
closed = 1;
nodes = (
"358 -7 OFFCURVE",
"381 16 OFFCURVE",
"381 41 CURVE SMOOTH",
"381 143 LINE",
"387 143 LINE SMOOTH",
"413 143 OFFCURVE",
"437 164 OFFCURVE",
"437 191 CURVE SMOOTH",
"437 217 OFFCURVE",
"418 239 OFFCURVE",
"391 239 CURVE SMOOTH",
"381 239 LINE",
"381 613 LINE SMOOTH",
"381 640 OFFCURVE",
"360 661 OFFCURVE",
"332 661 CURVE SMOOTH",
"315 661 OFFCURVE",
"301 653 OFFCURVE",
"292 638 CURVE SMOOTH",
"39 222 LINE SMOOTH",
"34 213 OFFCURVE",
"31 207 OFFCURVE",
"31 195 CURVE SMOOTH",
"31 167 OFFCURVE",
"50 148 OFFCURVE",
"79 148 CURVE SMOOTH",
"284 145 LINE",
"284 41 LINE SMOOTH",
"284 16 OFFCURVE",
"305 -7 OFFCURVE",
"332 -7 CURVE SMOOTH"
);
},
{
closed = 1;
nodes = (
"164 244 LINE",
"284 441 LINE",
"284 241 LINE"
);
}
);
userData = {
com.fontlab.hintData = {
hhints = (
{
position = -1;
width = 21;
},
{
position = 149;
width = 96;
}
);
vhints = (
{
position = 305;
width = 97;
}
);
};
};
width = 469;
}
);
unicode = 0034;
},
{
color = 5;
glyphname = five;
lastChange = "2020-01-31 00:53:44 +0000";
layers = (
{
background = {
paths = (
{
closed = 1;
nodes = (
"375 -3 OFFCURVE",
"483 113 OFFCURVE",
"483 253 CURVE SMOOTH",
"483 391 OFFCURVE",
"395 482 OFFCURVE",
"277 482 CURVE SMOOTH",
"222 482 OFFCURVE",
"169 457 OFFCURVE",
"128 433 CURVE",
"149 643 LINE",
"436 643 LINE SMOOTH",
"446 643 OFFCURVE",
"454 651 OFFCURVE",
"454 662 CURVE SMOOTH",
"454 672 OFFCURVE",
"446 680 OFFCURVE",
"436 680 CURVE SMOOTH",
"132 680 LINE SMOOTH",
"123 680 OFFCURVE",
"115 673 OFFCURVE",
"114 664 CURVE SMOOTH",
"85 390 LINE SMOOTH",
"84 378 OFFCURVE",
"92 367 OFFCURVE",
"105 367 CURVE SMOOTH",
"110 367 OFFCURVE",
"115 369 OFFCURVE",
"121 375 CURVE SMOOTH",
"131 386 OFFCURVE",
"186 445 OFFCURVE",
"277 445 CURVE SMOOTH",
"394 445 OFFCURVE",
"446 348 OFFCURVE",
"446 253 CURVE SMOOTH",
"446 135 OFFCURVE",
"356 34 OFFCURVE",
"256 34 CURVE SMOOTH",
"182 34 OFFCURVE",
"134 66 OFFCURVE",
"95 122 CURVE SMOOTH",
"90 129 OFFCURVE",
"86 133 OFFCURVE",
"77 133 CURVE SMOOTH",
"67 133 OFFCURVE",
"58 125 OFFCURVE",
"58 115 CURVE SMOOTH",
"58 110 OFFCURVE",
"59 107 OFFCURVE",
"60 104 CURVE SMOOTH",
"75 74 OFFCURVE",
"144 -3 OFFCURVE",
"256 -3 CURVE SMOOTH"
);
}
);
};
layerId = master01;
paths = (
{
closed = 1;
nodes = (
"375 -6 OFFCURVE",
"483 110 OFFCURVE",
"483 250 CURVE SMOOTH",
"483 388 OFFCURVE",
"395 479 OFFCURVE",
"277 479 CURVE SMOOTH",
"222 479 OFFCURVE",
"169 454 OFFCURVE",
"128 430 CURVE",
"149 640 LINE",
"436 640 LINE SMOOTH",
"446 640 OFFCURVE",
"454 648 OFFCURVE",
"454 659 CURVE SMOOTH",
"454 669 OFFCURVE",
"446 677 OFFCURVE",
"436 677 CURVE SMOOTH",
"132 677 LINE SMOOTH",
"123 677 OFFCURVE",
"115 670 OFFCURVE",
"114 661 CURVE SMOOTH",
"85 387 LINE SMOOTH",
"84 375 OFFCURVE",
"92 364 OFFCURVE",
"105 364 CURVE SMOOTH",
"110 364 OFFCURVE",
"115 366 OFFCURVE",
"121 372 CURVE SMOOTH",
"132 383 OFFCURVE",
"186 442 OFFCURVE",
"277 442 CURVE SMOOTH",
"394 442 OFFCURVE",
"446 345 OFFCURVE",
"446 250 CURVE SMOOTH",
"446 132 OFFCURVE",
"356 31 OFFCURVE",
"256 31 CURVE SMOOTH",
"182 31 OFFCURVE",
"135 63 OFFCURVE",
"95 119 CURVE SMOOTH",
"90 126 OFFCURVE",
"86 130 OFFCURVE",
"77 130 CURVE SMOOTH",
"67 130 OFFCURVE",
"58 122 OFFCURVE",
"58 112 CURVE SMOOTH",
"58 107 OFFCURVE",
"59 104 OFFCURVE",
"60 101 CURVE SMOOTH",
"71 69 OFFCURVE",
"144 -6 OFFCURVE",
"256 -6 CURVE SMOOTH"
);
}
);
userData = {
com.fontlab.hintData = {
hhints = (
{
position = -3;
width = 37;
},
{
position = 445;
width = 37;
},
{
position = 643;
width = 37;
}
);
vhints = (
{
position = 457;
width = 37;
}
);
};
};
width = 539;
},
{
background = {
paths = (
{
closed = 1;
nodes = (
"371 -3 OFFCURVE",
"480 112 OFFCURVE",
"480 253 CURVE SMOOTH",
"480 391 OFFCURVE",
"391 483 OFFCURVE",
"272 483 CURVE SMOOTH",
"217 483 OFFCURVE",
"173 464 OFFCURVE",
"141 445 CURVE",
"158 617 LINE",
"424 617 LINE SMOOTH",
"439 617 OFFCURVE",
"452 629 OFFCURVE",
"452 645 CURVE SMOOTH",
"452 660 OFFCURVE",
"439 673 OFFCURVE",
"424 673 CURVE SMOOTH",
"133 673 LINE SMOOTH",
"119 673 OFFCURVE",
"106 662 OFFCURVE",
"105 648 CURVE SMOOTH",
"78 385 LINE SMOOTH",
"76 368 OFFCURVE",
"87 352 OFFCURVE",
"107 352 CURVE SMOOTH",
"115 352 OFFCURVE",
"121 355 OFFCURVE",
"128 362 CURVE SMOOTH",
"148 382 OFFCURVE",
"194 427 OFFCURVE",
"272 427 CURVE SMOOTH",
"377 427 OFFCURVE",
"424 339 OFFCURVE",
"424 253 CURVE SMOOTH",
"424 145 OFFCURVE",
"343 53 OFFCURVE",
"252 53 CURVE SMOOTH",
"185 53 OFFCURVE",
"141 82 OFFCURVE",
"105 133 CURVE SMOOTH",
"98 142 OFFCURVE",
"94 148 OFFCURVE",
"80 148 CURVE SMOOTH",
"65 148 OFFCURVE",
"52 135 OFFCURVE",
"52 120 CURVE SMOOTH",
"52 115 OFFCURVE",
"53 110 OFFCURVE",
"55 106 CURVE SMOOTH",
"70 75 OFFCURVE",
"139 -3 OFFCURVE",
"252 -3 CURVE SMOOTH"
);
}
);
};
layerId = "218416E4-0B36-4DBB-8D0A-D6BB29FB6576";
paths = (
{
closed = 1;
nodes = (
"371 -6 OFFCURVE",
"480 109 OFFCURVE",
"480 250 CURVE SMOOTH",
"480 388 OFFCURVE",
"391 480 OFFCURVE",
"272 480 CURVE SMOOTH",
"217 480 OFFCURVE",
"173 461 OFFCURVE",
"141 442 CURVE",
"158 614 LINE",
"424 614 LINE SMOOTH",
"439 614 OFFCURVE",
"452 626 OFFCURVE",
"452 642 CURVE SMOOTH",
"452 657 OFFCURVE",
"439 670 OFFCURVE",
"424 670 CURVE SMOOTH",
"133 670 LINE SMOOTH",
"120 670 OFFCURVE",
"106 659 OFFCURVE",
"105 645 CURVE SMOOTH",
"78 382 LINE SMOOTH",
"76 365 OFFCURVE",
"88 349 OFFCURVE",
"107 349 CURVE SMOOTH",
"115 349 OFFCURVE",
"121 352 OFFCURVE",
"128 359 CURVE SMOOTH",
"148 379 OFFCURVE",
"194 424 OFFCURVE",
"272 424 CURVE SMOOTH",
"377 424 OFFCURVE",
"424 336 OFFCURVE",
"424 250 CURVE SMOOTH",
"424 142 OFFCURVE",
"343 50 OFFCURVE",
"252 50 CURVE SMOOTH",
"185 50 OFFCURVE",
"143 81 OFFCURVE",
"105 130 CURVE SMOOTH",
"98 139 OFFCURVE",
"94 145 OFFCURVE",
"80 145 CURVE SMOOTH",
"65 145 OFFCURVE",
"52 132 OFFCURVE",
"52 117 CURVE SMOOTH",
"52 112 OFFCURVE",
"53 107 OFFCURVE",
"55 103 CURVE SMOOTH",
"70 72 OFFCURVE",
"139 -6 OFFCURVE",
"252 -6 CURVE SMOOTH"
);
}
);
userData = {
com.fontlab.hintData = {
hhints = (
{
position = -3;
width = 56;
},
{
position = 427;
width = 56;
},
{
position = 617;
width = 56;
}
);
vhints = (
{
position = 439;
width = 56;
}
);
};
};
width = 544;
},
{
background = {
paths = (
{
closed = 1;
nodes = (
"371 -3 OFFCURVE",
"481 112 OFFCURVE",
"481 253 CURVE SMOOTH",
"481 392 OFFCURVE",
"390 484 OFFCURVE",
"270 484 CURVE SMOOTH",
"235 484 OFFCURVE",
"203 477 OFFCURVE",
"177 466 CURVE",
"187 560 LINE",
"408 560 LINE SMOOTH",
"433 560 OFFCURVE",
"456 581 OFFCURVE",
"456 609 CURVE SMOOTH",
"456 634 OFFCURVE",
"433 657 OFFCURVE",
"408 657 CURVE SMOOTH",
"143 657 LINE SMOOTH",
"119 657 OFFCURVE",
"97 638 OFFCURVE",
"95 614 CURVE SMOOTH",
"71 373 LINE SMOOTH",
"68 342 OFFCURVE",
"88 320 OFFCURVE",
"116 320 CURVE SMOOTH",
"136 320 OFFCURVE",
"147 327 OFFCURVE",
"158 338 CURVE SMOOTH",
"171 351 OFFCURVE",
"210 388 OFFCURVE",
"270 388 CURVE SMOOTH",
"350 388 OFFCURVE",
"385 320 OFFCURVE",
"385 253 CURVE SMOOTH",
"385 166 OFFCURVE",
"322 94 OFFCURVE",
"251 94 CURVE SMOOTH",
"200 94 OFFCURVE",
"164 116 OFFCURVE",
"136 156 CURVE SMOOTH",
"126 170 OFFCURVE",
"118 180 OFFCURVE",
"95 180 CURVE SMOOTH",
"70 180 OFFCURVE",
"47 157 OFFCURVE",
"47 132 CURVE SMOOTH",
"47 124 OFFCURVE",
"49 116 OFFCURVE",
"52 109 CURVE SMOOTH",
"67 77 OFFCURVE",
"137 -3 OFFCURVE",
"251 -3 CURVE SMOOTH"
);
}
);
};
layerId = "BB1A411A-CAFC-47D3-A925-066104B707B4";
paths = (
{
closed = 1;
nodes = (
"371 -6 OFFCURVE",
"481 109 OFFCURVE",
"481 250 CURVE SMOOTH",
"481 389 OFFCURVE",
"390 481 OFFCURVE",
"270 481 CURVE SMOOTH",
"235 481 OFFCURVE",
"203 474 OFFCURVE",
"177 463 CURVE",
"187 557 LINE",
"408 557 LINE SMOOTH",
"433 557 OFFCURVE",
"456 578 OFFCURVE",
"456 606 CURVE SMOOTH",
"456 631 OFFCURVE",
"433 654 OFFCURVE",
"408 654 CURVE SMOOTH",
"143 654 LINE SMOOTH",
"120 654 OFFCURVE",
"97 635 OFFCURVE",
"95 611 CURVE SMOOTH",
"71 370 LINE SMOOTH",
"68 339 OFFCURVE",
"88 317 OFFCURVE",
"116 317 CURVE SMOOTH",
"136 317 OFFCURVE",
"147 324 OFFCURVE",
"158 335 CURVE SMOOTH",
"171 348 OFFCURVE",
"210 385 OFFCURVE",
"270 385 CURVE SMOOTH",
"350 385 OFFCURVE",
"385 317 OFFCURVE",
"385 250 CURVE SMOOTH",
"385 163 OFFCURVE",
"322 91 OFFCURVE",
"251 91 CURVE SMOOTH",
"200 91 OFFCURVE",
"164 113 OFFCURVE",
"136 153 CURVE SMOOTH",
"126 167 OFFCURVE",
"118 177 OFFCURVE",
"95 177 CURVE SMOOTH",
"70 177 OFFCURVE",
"47 154 OFFCURVE",
"47 129 CURVE SMOOTH",
"47 121 OFFCURVE",
"49 113 OFFCURVE",
"52 106 CURVE SMOOTH",
"66 74 OFFCURVE",
"137 -6 OFFCURVE",
"251 -6 CURVE SMOOTH"
);
}
);
userData = {
com.fontlab.hintData = {
hhints = (
{
position = -3;
width = 97;
},
{
position = 388;
width = 96;
},
{
position = 560;
width = 97;
}
);
vhints = (
{
position = 402;
width = 96;
}
);
};
};
width = 531;
}
);
unicode = 0035;
},
{
color = 5;
glyphname = six;
lastChange = "2020-01-31 00:53:44 +0000";
layers = (
{
background = {
paths = (
{
closed = 1;
nodes = (
"377 -6 OFFCURVE",
"477 79 OFFCURVE",
"477 239 CURVE SMOOTH",
"477 370 OFFCURVE",
"393 439 OFFCURVE",
"287 439 CURVE SMOOTH",
"224 439 OFFCURVE",
"151 410 OFFCURVE",
"108 374 CURVE",
"152 498 OFFCURVE",
"254 593 OFFCURVE",
"354 653 CURVE SMOOTH",
"359 656 OFFCURVE",
"364 662 OFFCURVE",
"364 669 CURVE SMOOTH",
"364 678 OFFCURVE",
"356 686 OFFCURVE",
"347 686 CURVE SMOOTH",
"342 686 OFFCURVE",
"338 685 OFFCURVE",
"332 682 CURVE SMOOTH",
"205 619 OFFCURVE",
"60 487 OFFCURVE",
"60 244 CURVE SMOOTH",
"60 54 OFFCURVE",
"172 -6 OFFCURVE",
"275 -6 CURVE SMOOTH"
);
},
{
closed = 1;
nodes = (
"193 28 OFFCURVE",
"94 66 OFFCURVE",
"94 244 CURVE SMOOTH",
"94 271 OFFCURVE",
"95 298 OFFCURVE",
"99 323 CURVE",
"118 344 OFFCURVE",
"181 403 OFFCURVE",
"287 404 CURVE SMOOTH",
"372 405 OFFCURVE",
"443 353 OFFCURVE",
"443 239 CURVE SMOOTH",
"443 94 OFFCURVE",
"355 28 OFFCURVE",
"275 28 CURVE SMOOTH"
);
}
);
};
layerId = master01;
paths = (
{
closed = 1;
nodes = (
"377 -6 OFFCURVE",
"477 79 OFFCURVE",
"477 239 CURVE SMOOTH",
"477 370 OFFCURVE",
"393 439 OFFCURVE",
"287 439 CURVE SMOOTH",
"224 439 OFFCURVE",
"151 410 OFFCURVE",
"108 374 CURVE",
"151 511 OFFCURVE",
"240 602 OFFCURVE",
"354 653 CURVE SMOOTH",
"359 655 OFFCURVE",
"364 662 OFFCURVE",
"364 669 CURVE SMOOTH",
"364 678 OFFCURVE",
"356 686 OFFCURVE",
"347 686 CURVE SMOOTH",
"342 686 OFFCURVE",
"338 685 OFFCURVE",
"332 682 CURVE SMOOTH",
"205 619 OFFCURVE",
"60 487 OFFCURVE",
"60 244 CURVE SMOOTH",
"60 54 OFFCURVE",
"172 -6 OFFCURVE",
"275 -6 CURVE SMOOTH"
);
},
{
closed = 1;
nodes = (
"193 28 OFFCURVE",
"94 66 OFFCURVE",
"94 244 CURVE SMOOTH",
"94 271 OFFCURVE",
"95 298 OFFCURVE",
"99 323 CURVE",
"118 344 OFFCURVE",
"181 404 OFFCURVE",
"287 404 CURVE SMOOTH",
"372 404 OFFCURVE",
"443 353 OFFCURVE",
"443 239 CURVE SMOOTH",
"443 94 OFFCURVE",
"355 28 OFFCURVE",
"275 28 CURVE SMOOTH"
);
}
);
userData = {
com.fontlab.hintData = {
hhints = (
{
position = -3;
width = 34;
},
{
position = 407;
width = 35;
},
{
position = 656;
width = 33;
}
);
vhints = (
{
position = 63;
width = 34;
},
{
position = 446;
width = 33;
}
);
};
};
width = 529;
},
{
background = {
paths = (
{
closed = 1;
nodes = (
"389 -3 OFFCURVE",
"480 94 OFFCURVE",
"480 242 CURVE SMOOTH",
"480 375 OFFCURVE",
"394 444 OFFCURVE",
"289 444 CURVE SMOOTH",
"226 444 OFFCURVE",
"176 424 OFFCURVE",
"139 402 CURVE",
"174 501 OFFCURVE",
"258 583 OFFCURVE",
"357 631 CURVE SMOOTH",
"366 635 OFFCURVE",
"372 644 OFFCURVE",
"372 655 CURVE SMOOTH",
"372 670 OFFCURVE",
"361 681 OFFCURVE",
"346 681 CURVE SMOOTH",
"339 681 OFFCURVE",
"334 679 OFFCURVE",
"328 676 CURVE SMOOTH",
"223 623 OFFCURVE",
"61 500 OFFCURVE",
"61 247 CURVE SMOOTH",
"61 57 OFFCURVE",
"173 -3 OFFCURVE",
"274 -3 CURVE SMOOTH"
);
},
{
closed = 1;
nodes = (
"182 50 OFFCURVE",
"113 107 OFFCURVE",
"113 247 CURVE SMOOTH",
"113 272 OFFCURVE",
"114 296 OFFCURVE",
"118 320 CURVE",
"137 339 OFFCURVE",
"196 391 OFFCURVE",
"289 391 CURVE SMOOTH",
"366 391 OFFCURVE",
"428 346 OFFCURVE",
"428 242 CURVE SMOOTH",
"428 125 OFFCURVE",
"363 50 OFFCURVE",
"275 50 CURVE SMOOTH"
);
}
);
};
layerId = "218416E4-0B36-4DBB-8D0A-D6BB29FB6576";
paths = (
{
closed = 1;
nodes = (
"389 -6 OFFCURVE",
"480 91 OFFCURVE",
"480 239 CURVE SMOOTH",
"480 372 OFFCURVE",
"394 441 OFFCURVE",
"289 441 CURVE SMOOTH",
"226 441 OFFCURVE",
"176 421 OFFCURVE",
"139 399 CURVE",
"174 498 OFFCURVE",
"256 583 OFFCURVE",
"357 628 CURVE SMOOTH",
"366 632 OFFCURVE",
"372 641 OFFCURVE",
"372 652 CURVE SMOOTH",
"372 667 OFFCURVE",
"361 678 OFFCURVE",
"346 678 CURVE SMOOTH",
"339 678 OFFCURVE",
"334 676 OFFCURVE",
"328 673 CURVE SMOOTH",
"223 620 OFFCURVE",
"61 497 OFFCURVE",
"61 244 CURVE SMOOTH",
"61 54 OFFCURVE",
"173 -6 OFFCURVE",
"274 -6 CURVE SMOOTH"
);
},
{
closed = 1;
nodes = (
"182 47 OFFCURVE",
"113 104 OFFCURVE",
"113 244 CURVE SMOOTH",
"113 269 OFFCURVE",
"114 293 OFFCURVE",
"118 317 CURVE",
"137 336 OFFCURVE",
"196 388 OFFCURVE",
"289 388 CURVE SMOOTH",
"366 388 OFFCURVE",
"428 343 OFFCURVE",
"428 239 CURVE SMOOTH",
"428 122 OFFCURVE",
"363 47 OFFCURVE",
"275 47 CURVE SMOOTH"
);
}
);
userData = {
com.fontlab.hintData = {
hhints = (
{
position = -3;
width = 53;
},
{
position = 391;
width = 53;
},
{
position = 631;
width = 50;
}
);
vhints = (
{
position = 61;
width = 52;
},
{
position = 428;
width = 52;
}
);
};
};
width = 546;
},
{
background = {
paths = (
{
closed = 1;
nodes = (
"376 -3 OFFCURVE",
"476 83 OFFCURVE",
"476 243 CURVE SMOOTH",
"476 378 OFFCURVE",
"388 449 OFFCURVE",
"280 449 CURVE SMOOTH",
"246 449 OFFCURVE",
"216 443 OFFCURVE",
"191 434 CURVE",
"227 495 OFFCURVE",
"283 543 OFFCURVE",
"351 575 CURVE SMOOTH",
"367 582 OFFCURVE",
"378 598 OFFCURVE",
"378 618 CURVE SMOOTH",
"378 644 OFFCURVE",
"358 664 OFFCURVE",
"332 664 CURVE SMOOTH",
"322 664 OFFCURVE",
"314 661 OFFCURVE",
"305 657 CURVE SMOOTH",
"156 581 OFFCURVE",
"50 444 OFFCURVE",
"50 247 CURVE SMOOTH",
"50 85 OFFCURVE",
"139 -3 OFFCURVE",
"266 -3 CURVE SMOOTH"
);
},
{
closed = 1;
nodes = (
"191 91 OFFCURVE",
"143 139 OFFCURVE",
"143 247 CURVE SMOOTH",
"143 265 OFFCURVE",
"143 283 OFFCURVE",
"145 302 CURVE",
"165 320 OFFCURVE",
"211 355 OFFCURVE",
"280 355 CURVE SMOOTH",
"337 355 OFFCURVE",
"383 321 OFFCURVE",
"383 243 CURVE SMOOTH",
"383 152 OFFCURVE",
"335 91 OFFCURVE",
"267 91 CURVE SMOOTH"
);
}
);
};
layerId = "BB1A411A-CAFC-47D3-A925-066104B707B4";
paths = (
{
closed = 1;
nodes = (
"376 -6 OFFCURVE",
"476 80 OFFCURVE",
"476 240 CURVE SMOOTH",
"476 375 OFFCURVE",
"388 446 OFFCURVE",
"280 446 CURVE SMOOTH",
"246 446 OFFCURVE",
"216 440 OFFCURVE",
"191 431 CURVE",
"227 492 OFFCURVE",
"282 542 OFFCURVE",
"351 572 CURVE SMOOTH",
"367 579 OFFCURVE",
"378 595 OFFCURVE",
"378 615 CURVE SMOOTH",
"378 641 OFFCURVE",
"358 661 OFFCURVE",
"332 661 CURVE SMOOTH",
"322 661 OFFCURVE",
"314 658 OFFCURVE",
"305 654 CURVE SMOOTH",
"152 586 OFFCURVE",
"50 441 OFFCURVE",
"50 244 CURVE SMOOTH",
"50 82 OFFCURVE",
"139 -6 OFFCURVE",
"266 -6 CURVE SMOOTH"
);
},
{
closed = 1;
nodes = (
"191 88 OFFCURVE",
"143 136 OFFCURVE",
"143 244 CURVE SMOOTH",
"143 262 OFFCURVE",
"143 280 OFFCURVE",
"145 299 CURVE",
"165 317 OFFCURVE",
"211 352 OFFCURVE",
"280 352 CURVE SMOOTH",
"337 352 OFFCURVE",
"383 318 OFFCURVE",
"383 240 CURVE SMOOTH",
"383 149 OFFCURVE",
"335 88 OFFCURVE",
"267 88 CURVE SMOOTH"
);
}
);
userData = {
com.fontlab.hintData = {
hhints = (
{
position = -3;
width = 94;
},
{
position = 355;
width = 94;
},
{
position = 575;
width = 89;
}
);
vhints = (
{
position = 58;
width = 93;
},
{
position = 391;
width = 93;
}
);
};
};
width = 523;
}
);
unicode = 0036;
},
{
color = 5;
glyphname = seven;
lastChange = "2020-01-31 00:53:44 +0000";
layers = (
{
background = {
paths = (
{
closed = 1;
nodes = (
"101 1 OFFCURVE",
"108 4 OFFCURVE",
"111 10 CURVE SMOOTH",
"433 649 LINE SMOOTH",
"434 652 OFFCURVE",
"435 654 OFFCURVE",
"435 658 CURVE SMOOTH",
"435 668 OFFCURVE",
"427 677 OFFCURVE",
"416 677 CURVE SMOOTH",
"41 677 LINE SMOOTH",
"31 677 OFFCURVE",
"22 669 OFFCURVE",
"22 659 CURVE SMOOTH",
"22 648 OFFCURVE",
"31 640 OFFCURVE",
"41 640 CURVE SMOOTH",
"386 640 LINE",
"78 28 LINE SMOOTH",
"77 26 OFFCURVE",
"76 23 OFFCURVE",
"76 20 CURVE SMOOTH",
"76 9 OFFCURVE",
"84 1 OFFCURVE",
"94 1 CURVE SMOOTH"
);
}
);
};
layerId = master01;
paths = (
{
closed = 1;
nodes = (
"100 -6 OFFCURVE",
"108 -3 OFFCURVE",
"111 3 CURVE SMOOTH",
"433 642 LINE SMOOTH",
"435 646 OFFCURVE",
"435 648 OFFCURVE",
"435 651 CURVE SMOOTH",
"435 661 OFFCURVE",
"427 670 OFFCURVE",
"416 670 CURVE SMOOTH",
"41 670 LINE SMOOTH",
"31 670 OFFCURVE",
"22 662 OFFCURVE",
"22 652 CURVE SMOOTH",
"22 641 OFFCURVE",
"31 633 OFFCURVE",
"41 633 CURVE SMOOTH",
"386 633 LINE",
"78 21 LINE SMOOTH",
"77 19 OFFCURVE",
"76 17 OFFCURVE",
"76 13 CURVE SMOOTH",
"76 2 OFFCURVE",
"84 -6 OFFCURVE",
"94 -6 CURVE SMOOTH"
);
}
);
userData = {
com.fontlab.hintData = {
hhints = (
{
position = 1;
width = 21;
},
{
position = 640;
width = 37;
}
);
vhints = (
{
position = 120;
width = 35;
}
);
};
};
width = 450;
},
{
background = {
paths = (
{
closed = 1;
nodes = (
"131 1 OFFCURVE",
"141 6 OFFCURVE",
"146 16 CURVE SMOOTH",
"455 629 LINE SMOOTH",
"457 633 OFFCURVE",
"458 637 OFFCURVE",
"458 641 CURVE SMOOTH",
"458 657 OFFCURVE",
"446 670 OFFCURVE",
"430 670 CURVE SMOOTH",
"70 670 LINE SMOOTH",
"54 670 OFFCURVE",
"42 657 OFFCURVE",
"42 642 CURVE SMOOTH",
"42 626 OFFCURVE",
"54 614 OFFCURVE",
"70 614 CURVE SMOOTH",
"385 614 LINE",
"96 41 LINE SMOOTH",
"94 37 OFFCURVE",
"93 33 OFFCURVE",
"93 29 CURVE SMOOTH",
"93 14 OFFCURVE",
"105 1 OFFCURVE",
"121 1 CURVE SMOOTH"
);
}
);
};
layerId = "218416E4-0B36-4DBB-8D0A-D6BB29FB6576";
paths = (
{
closed = 1;
nodes = (
"130 -6 OFFCURVE",
"141 -1 OFFCURVE",
"146 9 CURVE SMOOTH",
"455 622 LINE SMOOTH",
"457 626 OFFCURVE",
"458 630 OFFCURVE",
"458 634 CURVE SMOOTH",
"458 650 OFFCURVE",
"446 663 OFFCURVE",
"430 663 CURVE SMOOTH",
"70 663 LINE SMOOTH",
"54 663 OFFCURVE",
"42 650 OFFCURVE",
"42 635 CURVE SMOOTH",
"42 619 OFFCURVE",
"54 607 OFFCURVE",
"70 607 CURVE SMOOTH",
"385 607 LINE",
"96 34 LINE SMOOTH",
"94 30 OFFCURVE",
"93 26 OFFCURVE",
"93 22 CURVE SMOOTH",
"93 7 OFFCURVE",
"105 -6 OFFCURVE",
"121 -6 CURVE SMOOTH"
);
}
);
userData = {
com.fontlab.hintData = {
hhints = (
{
position = 1;
width = 21;
},
{
position = 614;
width = 56;
}
);
vhints = (
{
position = 115;
width = 53;
}
);
};
};
width = 478;
},
{
background = {
paths = (
{
closed = 1;
nodes = (
"127 1 OFFCURVE",
"145 8 OFFCURVE",
"154 27 CURVE SMOOTH",
"428 570 LINE SMOOTH",
"433 580 OFFCURVE",
"440 595 OFFCURVE",
"440 605 CURVE SMOOTH",
"440 632 OFFCURVE",
"419 654 OFFCURVE",
"392 654 CURVE SMOOTH",
"65 654 LINE SMOOTH",
"38 654 OFFCURVE",
"17 631 OFFCURVE",
"17 606 CURVE SMOOTH",
"17 579 OFFCURVE",
"38 558 OFFCURVE",
"65 558 CURVE SMOOTH",
"315 558 LINE",
"69 70 LINE SMOOTH",
"65 63 OFFCURVE",
"63 55 OFFCURVE",
"63 49 CURVE SMOOTH",
"63 24 OFFCURVE",
"84 1 OFFCURVE",
"111 1 CURVE SMOOTH"
);
}
);
};
layerId = "BB1A411A-CAFC-47D3-A925-066104B707B4";
paths = (
{
closed = 1;
nodes = (
"125 -5 OFFCURVE",
"144 1 OFFCURVE",
"154 21 CURVE SMOOTH",
"428 569 LINE SMOOTH",
"433 579 OFFCURVE",
"440 594 OFFCURVE",
"440 604 CURVE SMOOTH",
"440 631 OFFCURVE",
"419 653 OFFCURVE",
"392 653 CURVE SMOOTH",
"65 653 LINE SMOOTH",
"38 653 OFFCURVE",
"17 630 OFFCURVE",
"17 605 CURVE SMOOTH",
"17 578 OFFCURVE",
"38 557 OFFCURVE",
"65 557 CURVE SMOOTH",
"315 557 LINE",
"69 64 LINE SMOOTH",
"64 54 OFFCURVE",
"63 47 OFFCURVE",
"63 43 CURVE SMOOTH",
"63 18 OFFCURVE",
"84 -5 OFFCURVE",
"111 -5 CURVE SMOOTH"
);
}
);
userData = {
com.fontlab.hintData = {
hhints = (
{
position = 1;
width = 21;
},
{
position = 558;
width = 96;
}
);
};
};
width = 450;
}
);
unicode = 0037;
},
{
color = 5;
glyphname = eight;
lastChange = "2020-01-31 00:53:44 +0000";
layers = (
{
background = {
paths = (
{
closed = 1;
nodes = (
"374 -3 OFFCURVE",
"461 78 OFFCURVE",
"461 187 CURVE SMOOTH",
"461 265 OFFCURVE",
"407 334 OFFCURVE",
"316 380 CURVE",
"381 413 OFFCURVE",
"443 461 OFFCURVE",
"443 538 CURVE SMOOTH",
"443 629 OFFCURVE",
"370 694 OFFCURVE",
"268 694 CURVE SMOOTH",
"170 694 OFFCURVE",
"87 629 OFFCURVE",
"87 521 CURVE SMOOTH",
"87 447 OFFCURVE",
"145 402 OFFCURVE",
"213 373 CURVE",
"137 337 OFFCURVE",
"56 280 OFFCURVE",
"52 176 CURVE",
"52 73 OFFCURVE",
"138 -3 OFFCURVE",
"257 -3 CURVE SMOOTH"
);
},
{
closed = 1;
nodes = (
"163 33 OFFCURVE",
"89 90 OFFCURVE",
"89 170 CURVE SMOOTH",
"89 286 OFFCURVE",
"187 322 OFFCURVE",
"270 357 CURVE",
"347 333 OFFCURVE",
"426 277 OFFCURVE",
"426 183 CURVE SMOOTH",
"426 80 OFFCURVE",
"336 33 OFFCURVE",
"257 33 CURVE SMOOTH"
);
},
{
closed = 1;
nodes = (
"163 424 OFFCURVE",
"122 462 OFFCURVE",
"122 525 CURVE SMOOTH",
"122 607 OFFCURVE",
"188 656 OFFCURVE",
"269 656 CURVE SMOOTH",
"346 656 OFFCURVE",
"407 614 OFFCURVE",
"407 544 CURVE SMOOTH",
"407 490 OFFCURVE",
"382 442 OFFCURVE",
"263 396 CURVE"
);
}
);
};
layerId = master01;
paths = (
{
closed = 1;
nodes = (
"374 -6 OFFCURVE",
"461 75 OFFCURVE",
"461 184 CURVE SMOOTH",
"461 262 OFFCURVE",
"407 331 OFFCURVE",
"316 377 CURVE",
"381 410 OFFCURVE",
"443 458 OFFCURVE",
"443 535 CURVE SMOOTH",
"443 626 OFFCURVE",
"370 691 OFFCURVE",
"268 691 CURVE SMOOTH",
"170 691 OFFCURVE",
"87 626 OFFCURVE",
"87 518 CURVE SMOOTH",
"87 444 OFFCURVE",
"145 399 OFFCURVE",
"213 370 CURVE",
"137 334 OFFCURVE",
"56 277 OFFCURVE",
"52 173 CURVE",
"52 70 OFFCURVE",
"138 -6 OFFCURVE",
"257 -6 CURVE SMOOTH"
);
},
{
closed = 1;
nodes = (
"163 30 OFFCURVE",
"89 87 OFFCURVE",
"89 167 CURVE SMOOTH",
"89 283 OFFCURVE",
"187 319 OFFCURVE",
"270 354 CURVE",
"347 330 OFFCURVE",
"426 274 OFFCURVE",
"426 180 CURVE SMOOTH",
"426 77 OFFCURVE",
"336 30 OFFCURVE",
"257 30 CURVE SMOOTH"
);
},
{
closed = 1;
nodes = (
"163 421 OFFCURVE",
"122 459 OFFCURVE",
"122 522 CURVE SMOOTH",
"122 604 OFFCURVE",
"188 653 OFFCURVE",
"269 653 CURVE SMOOTH",
"346 653 OFFCURVE",
"407 611 OFFCURVE",
"407 541 CURVE SMOOTH",
"407 487 OFFCURVE",
"382 439 OFFCURVE",
"263 393 CURVE"
);
}
);
userData = {
com.fontlab.hintData = {
hhints = (
{
position = -3;
width = 36;
},
{
position = 656;
width = 38;
}
);
vhints = (
{
position = 68;
width = 37;
},
{
position = 103;
width = 35;
},
{
position = 423;
width = 36;
},
{
position = 442;
width = 35;
}
);
};
};
width = 513;
},
{
background = {
paths = (
{
closed = 1;
nodes = (
"377 -3 OFFCURVE",
"464 79 OFFCURVE",
"464 189 CURVE SMOOTH",
"464 268 OFFCURVE",
"417 335 OFFCURVE",
"338 375 CURVE",
"393 403 OFFCURVE",
"447 446 OFFCURVE",
"447 526 CURVE SMOOTH",
"447 620 OFFCURVE",
"373 686 OFFCURVE",
"269 686 CURVE SMOOTH",
"170 686 OFFCURVE",
"85 620 OFFCURVE",
"85 510 CURVE SMOOTH",
"85 434 OFFCURVE",
"135 393 OFFCURVE",
"191 368 CURVE",
"126 336 OFFCURVE",
"55 284 OFFCURVE",
"52 179 CURVE",
"52 74 OFFCURVE",
"138 -3 OFFCURVE",
"258 -3 CURVE SMOOTH"
);
},
{
closed = 1;
nodes = (
"174 52 OFFCURVE",
"107 102 OFFCURVE",
"107 173 CURVE SMOOTH",
"107 277 OFFCURVE",
"196 311 OFFCURVE",
"268 343 CURVE",
"339 321 OFFCURVE",
"410 270 OFFCURVE",
"410 186 CURVE SMOOTH",
"410 94 OFFCURVE",
"329 52 OFFCURVE",
"258 52 CURVE SMOOTH"
);
},
{
closed = 1;
nodes = (
"175 426 OFFCURVE",
"139 459 OFFCURVE",
"139 514 CURVE SMOOTH",
"139 590 OFFCURVE",
"202 630 OFFCURVE",
"269 630 CURVE SMOOTH",
"337 630 OFFCURVE",
"392 593 OFFCURVE",
"392 532 CURVE SMOOTH",
"392 485 OFFCURVE",
"370 442 OFFCURVE",
"264 401 CURVE"
);
}
);
};
layerId = "218416E4-0B36-4DBB-8D0A-D6BB29FB6576";
paths = (
{
closed = 1;
nodes = (
"377 -6 OFFCURVE",
"464 76 OFFCURVE",
"464 186 CURVE SMOOTH",
"464 265 OFFCURVE",
"417 332 OFFCURVE",
"338 372 CURVE",
"393 400 OFFCURVE",
"447 443 OFFCURVE",
"447 523 CURVE SMOOTH",
"447 617 OFFCURVE",
"373 683 OFFCURVE",
"269 683 CURVE SMOOTH",
"170 683 OFFCURVE",
"85 617 OFFCURVE",
"85 507 CURVE SMOOTH",
"85 431 OFFCURVE",
"135 390 OFFCURVE",
"191 365 CURVE",
"126 333 OFFCURVE",
"55 281 OFFCURVE",
"52 176 CURVE",
"52 71 OFFCURVE",
"138 -6 OFFCURVE",
"258 -6 CURVE SMOOTH"
);
},
{
closed = 1;
nodes = (
"174 49 OFFCURVE",
"107 99 OFFCURVE",
"107 170 CURVE SMOOTH",
"107 274 OFFCURVE",
"196 308 OFFCURVE",
"268 340 CURVE",
"339 318 OFFCURVE",
"410 267 OFFCURVE",
"410 183 CURVE SMOOTH",
"410 91 OFFCURVE",
"329 49 OFFCURVE",
"258 49 CURVE SMOOTH"
);
},
{
closed = 1;
nodes = (
"175 423 OFFCURVE",
"139 456 OFFCURVE",
"139 511 CURVE SMOOTH",
"139 587 OFFCURVE",
"202 627 OFFCURVE",
"269 627 CURVE SMOOTH",
"337 627 OFFCURVE",
"392 590 OFFCURVE",
"392 529 CURVE SMOOTH",
"392 482 OFFCURVE",
"370 439 OFFCURVE",
"264 398 CURVE"
);
}
);
userData = {
com.fontlab.hintData = {
hhints = (
{
position = -3;
width = 55;
},
{
position = 630;
width = 56;
}
);
vhints = (
{
position = 66;
width = 55;
},
{
position = 99;
width = 54;
},
{
position = 406;
width = 55;
},
{
position = 424;
width = 54;
}
);
};
};
width = 516;
},
{
background = {
paths = (
{
closed = 1;
nodes = (
"373 -3 OFFCURVE",
"462 82 OFFCURVE",
"462 194 CURVE SMOOTH",
"462 263 OFFCURVE",
"428 322 OFFCURVE",
"370 363 CURVE",
"412 392 OFFCURVE",
"447 435 OFFCURVE",
"447 501 CURVE SMOOTH",
"447 600 OFFCURVE",
"371 669 OFFCURVE",
"263 669 CURVE SMOOTH",
"161 669 OFFCURVE",
"73 600 OFFCURVE",
"73 486 CURVE SMOOTH",
"73 422 OFFCURVE",
"102 384 OFFCURVE",
"144 357 CURVE",
"94 324 OFFCURVE",
"45 272 OFFCURVE",
"43 185 CURVE",
"43 77 OFFCURVE",
"130 -3 OFFCURVE",
"253 -3 CURVE SMOOTH"
);
},
{
closed = 1;
nodes = (
"189 93 OFFCURVE",
"138 129 OFFCURVE",
"138 180 CURVE SMOOTH",
"138 255 OFFCURVE",
"205 284 OFFCURVE",
"263 310 CURVE",
"316 292 OFFCURVE",
"368 253 OFFCURVE",
"368 192 CURVE SMOOTH",
"368 124 OFFCURVE",
"306 93 OFFCURVE",
"253 93 CURVE SMOOTH"
);
},
{
closed = 1;
nodes = (
"193 430 OFFCURVE",
"167 452 OFFCURVE",
"167 490 CURVE SMOOTH",
"167 544 OFFCURVE",
"210 572 OFFCURVE",
"263 572 CURVE SMOOTH",
"312 572 OFFCURVE",
"352 547 OFFCURVE",
"352 506 CURVE SMOOTH",
"352 472 OFFCURVE",
"333 442 OFFCURVE",
"257 411 CURVE"
);
}
);
};
layerId = "BB1A411A-CAFC-47D3-A925-066104B707B4";
paths = (
{
closed = 1;
nodes = (
"373 -6 OFFCURVE",
"462 79 OFFCURVE",
"462 191 CURVE SMOOTH",
"462 258 OFFCURVE",
"428 314 OFFCURVE",
"370 354 CURVE",
"412 383 OFFCURVE",
"447 426 OFFCURVE",
"447 492 CURVE SMOOTH",
"447 591 OFFCURVE",
"371 660 OFFCURVE",
"263 660 CURVE SMOOTH",
"161 660 OFFCURVE",
"73 591 OFFCURVE",
"73 477 CURVE SMOOTH",
"73 413 OFFCURVE",
"102 375 OFFCURVE",
"144 348 CURVE",
"94 316 OFFCURVE",
"45 266 OFFCURVE",
"43 182 CURVE SMOOTH",
"40 74 OFFCURVE",
"130 -6 OFFCURVE",
"253 -6 CURVE SMOOTH"
);
},
{
closed = 1;
nodes = (
"189 90 OFFCURVE",
"138 126 OFFCURVE",
"138 177 CURVE SMOOTH",
"138 249 OFFCURVE",
"205 276 OFFCURVE",
"263 301 CURVE",
"316 283 OFFCURVE",
"368 247 OFFCURVE",
"368 189 CURVE SMOOTH",
"368 121 OFFCURVE",
"306 90 OFFCURVE",
"253 90 CURVE SMOOTH"
);
},
{
closed = 1;
nodes = (
"193 421 OFFCURVE",
"167 443 OFFCURVE",
"167 481 CURVE SMOOTH",
"167 535 OFFCURVE",
"210 563 OFFCURVE",
"263 563 CURVE SMOOTH",
"312 563 OFFCURVE",
"352 538 OFFCURVE",
"352 497 CURVE SMOOTH",
"352 463 OFFCURVE",
"333 433 OFFCURVE",
"257 402 CURVE"
);
}
);
userData = {
com.fontlab.hintData = {
hhints = (
{
position = -3;
width = 96;
},
{
position = 572;
width = 97;
}
);
vhints = (
{
position = 63;
width = 95;
},
{
position = 93;
width = 94;
},
{
position = 372;
width = 95;
},
{
position = 388;
width = 94;
}
);
};
};
width = 512;
}
);
unicode = 0038;
},
{
color = 5;
glyphname = nine;
lastChange = "2020-01-31 00:53:44 +0000";
layers = (
{
background = {
paths = (
{
closed = 1;
nodes = (
"186 0 OFFCURVE",
"190 1 OFFCURVE",
"196 4 CURVE SMOOTH",
"348 82 OFFCURVE",
"468 226 OFFCURVE",
"468 442 CURVE SMOOTH",
"468 599 OFFCURVE",
"389 692 OFFCURVE",
"259 692 CURVE SMOOTH",
"153 692 OFFCURVE",
"52 610 OFFCURVE",
"52 447 CURVE SMOOTH",
"52 316 OFFCURVE",
"136 247 OFFCURVE",
"241 247 CURVE SMOOTH",
"304 247 OFFCURVE",
"377 276 OFFCURVE",
"420 312 CURVE",
"376 188 OFFCURVE",
"279 84 OFFCURVE",
"174 33 CURVE SMOOTH",
"169 30 OFFCURVE",
"164 24 OFFCURVE",
"164 17 CURVE SMOOTH",
"164 8 OFFCURVE",
"172 0 OFFCURVE",
"181 0 CURVE SMOOTH"
);
},
{
closed = 1;
nodes = (
"136 282 OFFCURVE",
"85 352 OFFCURVE",
"85 447 CURVE SMOOTH",
"85 575 OFFCURVE",
"158 658 OFFCURVE",
"258 658 CURVE SMOOTH",
"370 658 OFFCURVE",
"434 582 OFFCURVE",
"434 442 CURVE SMOOTH",
"434 415 OFFCURVE",
"433 388 OFFCURVE",
"429 363 CURVE",
"410 342 OFFCURVE",
"347 283 OFFCURVE",
"241 282 CURVE SMOOTH"
);
}
);
};
layerId = master01;
paths = (
{
closed = 1;
nodes = (
"186 -6 OFFCURVE",
"190 -5 OFFCURVE",
"196 -2 CURVE SMOOTH",
"348 76 OFFCURVE",
"468 220 OFFCURVE",
"468 436 CURVE SMOOTH",
"468 593 OFFCURVE",
"389 686 OFFCURVE",
"259 686 CURVE SMOOTH",
"153 686 OFFCURVE",
"52 604 OFFCURVE",
"52 441 CURVE SMOOTH",
"52 310 OFFCURVE",
"136 241 OFFCURVE",
"241 241 CURVE SMOOTH",
"304 241 OFFCURVE",
"377 270 OFFCURVE",
"420 306 CURVE",
"376 182 OFFCURVE",
"279 78 OFFCURVE",
"174 27 CURVE SMOOTH",
"169 24 OFFCURVE",
"164 18 OFFCURVE",
"164 11 CURVE SMOOTH",
"164 2 OFFCURVE",
"172 -6 OFFCURVE",
"181 -6 CURVE SMOOTH"
);
},
{
closed = 1;
nodes = (
"136 276 OFFCURVE",
"85 346 OFFCURVE",
"85 441 CURVE SMOOTH",
"85 569 OFFCURVE",
"158 652 OFFCURVE",
"258 652 CURVE SMOOTH",
"370 652 OFFCURVE",
"434 576 OFFCURVE",
"434 436 CURVE SMOOTH",
"434 409 OFFCURVE",
"433 382 OFFCURVE",
"429 357 CURVE",
"410 336 OFFCURVE",
"347 276 OFFCURVE",
"241 276 CURVE SMOOTH"
);
}
);
userData = {
com.fontlab.hintData = {
hhints = (
{
position = 0;
width = 33;
},
{
position = 247;
width = 35;
},
{
position = 658;
width = 34;
}
);
vhints = (
{
position = 64;
width = 33;
},
{
position = 446;
width = 34;
}
);
};
};
width = 528;
},
{
background = {
paths = (
{
closed = 1;
nodes = (
"189 0 OFFCURVE",
"194 2 OFFCURVE",
"200 5 CURVE SMOOTH",
"325 68 OFFCURVE",
"467 199 OFFCURVE",
"467 434 CURVE SMOOTH",
"467 610 OFFCURVE",
"373 684 OFFCURVE",
"254 684 CURVE SMOOTH",
"139 684 OFFCURVE",
"48 588 OFFCURVE",
"48 439 CURVE SMOOTH",
"48 306 OFFCURVE",
"134 237 OFFCURVE",
"239 237 CURVE SMOOTH",
"302 237 OFFCURVE",
"352 257 OFFCURVE",
"389 279 CURVE",
"354 180 OFFCURVE",
"270 98 OFFCURVE",
"171 50 CURVE SMOOTH",
"162 46 OFFCURVE",
"156 37 OFFCURVE",
"156 26 CURVE SMOOTH",
"156 11 OFFCURVE",
"167 0 OFFCURVE",
"182 0 CURVE SMOOTH"
);
},
{
closed = 1;
nodes = (
"160 290 OFFCURVE",
"100 339 OFFCURVE",
"100 439 CURVE SMOOTH",
"100 552 OFFCURVE",
"163 631 OFFCURVE",
"252 631 CURVE SMOOTH",
"327 631 OFFCURVE",
"415 597 OFFCURVE",
"415 434 CURVE SMOOTH",
"415 409 OFFCURVE",
"414 385 OFFCURVE",
"410 361 CURVE",
"391 342 OFFCURVE",
"332 290 OFFCURVE",
"239 290 CURVE SMOOTH"
);
}
);
};
layerId = "218416E4-0B36-4DBB-8D0A-D6BB29FB6576";
paths = (
{
closed = 1;
nodes = (
"189 -6 OFFCURVE",
"194 -4 OFFCURVE",
"200 -1 CURVE SMOOTH",
"325 62 OFFCURVE",
"467 193 OFFCURVE",
"467 428 CURVE SMOOTH",
"467 604 OFFCURVE",
"373 678 OFFCURVE",
"254 678 CURVE SMOOTH",
"139 678 OFFCURVE",
"48 582 OFFCURVE",
"48 433 CURVE SMOOTH",
"48 300 OFFCURVE",
"134 231 OFFCURVE",
"239 231 CURVE SMOOTH",
"302 231 OFFCURVE",
"352 251 OFFCURVE",
"389 273 CURVE",
"354 174 OFFCURVE",
"270 92 OFFCURVE",
"171 44 CURVE SMOOTH",
"162 40 OFFCURVE",
"156 31 OFFCURVE",
"156 20 CURVE SMOOTH",
"156 5 OFFCURVE",
"167 -6 OFFCURVE",
"182 -6 CURVE SMOOTH"
);
},
{
closed = 1;
nodes = (
"160 284 OFFCURVE",
"100 333 OFFCURVE",
"100 433 CURVE SMOOTH",
"100 546 OFFCURVE",
"163 625 OFFCURVE",
"252 625 CURVE SMOOTH",
"327 625 OFFCURVE",
"415 591 OFFCURVE",
"415 428 CURVE SMOOTH",
"415 403 OFFCURVE",
"414 379 OFFCURVE",
"410 355 CURVE",
"391 336 OFFCURVE",
"332 284 OFFCURVE",
"239 284 CURVE SMOOTH"
);
}
);
userData = {
com.fontlab.hintData = {
hhints = (
{
position = 0;
width = 50;
},
{
position = 237;
width = 53;
},
{
position = 631;
width = 53;
}
);
vhints = (
{
position = 61;
width = 52;
},
{
position = 428;
width = 52;
}
);
};
};
width = 533;
},
{
background = {
paths = (
{
closed = 1;
nodes = (
"201 0 OFFCURVE",
"209 3 OFFCURVE",
"218 7 CURVE SMOOTH",
"357 78 OFFCURVE",
"473 211 OFFCURVE",
"473 417 CURVE SMOOTH",
"473 575 OFFCURVE",
"392 667 OFFCURVE",
"259 667 CURVE SMOOTH",
"137 667 OFFCURVE",
"47 573 OFFCURVE",
"47 422 CURVE SMOOTH",
"47 286 OFFCURVE",
"135 215 OFFCURVE",
"243 215 CURVE SMOOTH",
"277 215 OFFCURVE",
"307 221 OFFCURVE",
"332 230 CURVE",
"296 170 OFFCURVE",
"238 121 OFFCURVE",
"172 89 CURVE SMOOTH",
"156 82 OFFCURVE",
"145 66 OFFCURVE",
"145 46 CURVE SMOOTH",
"145 20 OFFCURVE",
"165 0 OFFCURVE",
"192 0 CURVE SMOOTH"
);
},
{
closed = 1;
nodes = (
"182 309 OFFCURVE",
"140 347 OFFCURVE",
"140 422 CURVE SMOOTH",
"140 522 OFFCURVE",
"195 573 OFFCURVE",
"255 573 CURVE SMOOTH",
"336 573 OFFCURVE",
"380 521 OFFCURVE",
"380 417 CURVE SMOOTH",
"380 398 OFFCURVE",
"380 381 OFFCURVE",
"377 362 CURVE",
"358 343 OFFCURVE",
"311 309 OFFCURVE",
"243 309 CURVE SMOOTH"
);
}
);
};
layerId = "BB1A411A-CAFC-47D3-A925-066104B707B4";
paths = (
{
closed = 1;
nodes = (
"201 -6 OFFCURVE",
"209 -3 OFFCURVE",
"218 1 CURVE SMOOTH",
"357 72 OFFCURVE",
"473 205 OFFCURVE",
"473 411 CURVE SMOOTH",
"473 569 OFFCURVE",
"392 661 OFFCURVE",
"259 661 CURVE SMOOTH",
"137 661 OFFCURVE",
"47 567 OFFCURVE",
"47 416 CURVE SMOOTH",
"47 280 OFFCURVE",
"135 209 OFFCURVE",
"243 209 CURVE SMOOTH",
"277 209 OFFCURVE",
"307 215 OFFCURVE",
"332 224 CURVE",
"296 164 OFFCURVE",
"238 115 OFFCURVE",
"172 83 CURVE SMOOTH",
"156 76 OFFCURVE",
"145 60 OFFCURVE",
"145 40 CURVE SMOOTH",
"145 14 OFFCURVE",
"165 -6 OFFCURVE",
"192 -6 CURVE SMOOTH"
);
},
{
closed = 1;
nodes = (
"182 303 OFFCURVE",
"140 341 OFFCURVE",
"140 416 CURVE SMOOTH",
"140 516 OFFCURVE",
"195 567 OFFCURVE",
"255 567 CURVE SMOOTH",
"336 567 OFFCURVE",
"380 515 OFFCURVE",
"380 411 CURVE SMOOTH",
"380 392 OFFCURVE",
"380 375 OFFCURVE",
"377 356 CURVE",
"358 337 OFFCURVE",
"311 303 OFFCURVE",
"243 303 CURVE SMOOTH"
);
}
);
userData = {
com.fontlab.hintData = {
hhints = (
{
position = 0;
width = 89;
},
{
position = 215;
width = 94;
},
{
position = 573;
width = 94;
}
);
vhints = (
{
position = 58;
width = 93;
},
{
position = 391;
width = 93;
}
);
};
};
width = 523;
}
);
unicode = 0039;
},
{
glyphname = colon;
lastChange = "2020-01-31 01:06:11 +0000";
layers = (
{
background = {
paths = (
{
closed = 1;
nodes = (
"130 373 OFFCURVE",
"144 391 OFFCURVE",
"144 412 CURVE SMOOTH",
"144 426 OFFCURVE",
"134 439 OFFCURVE",
"121 439 CURVE SMOOTH",
"105 439 OFFCURVE",
"90 421 OFFCURVE",
"90 402 CURVE SMOOTH",
"90 387 OFFCURVE",
"99 373 OFFCURVE",
"113 373 CURVE SMOOTH"
);
},
{
closed = 1;
nodes = (
"99 0 OFFCURVE",
"114 18 OFFCURVE",
"114 39 CURVE SMOOTH",
"114 53 OFFCURVE",
"104 66 OFFCURVE",
"91 66 CURVE SMOOTH",
"74 66 OFFCURVE",
"60 48 OFFCURVE",
"60 29 CURVE SMOOTH",
"60 14 OFFCURVE",
"69 0 OFFCURVE",
"83 0 CURVE SMOOTH"
);
}
);
};
layerId = master01;
paths = (
{
closed = 1;
nodes = (
"130 367 OFFCURVE",
"144 385 OFFCURVE",
"144 406 CURVE SMOOTH",
"144 420 OFFCURVE",
"134 433 OFFCURVE",
"121 433 CURVE SMOOTH",
"105 433 OFFCURVE",
"90 415 OFFCURVE",
"90 396 CURVE SMOOTH",
"90 381 OFFCURVE",
"99 367 OFFCURVE",
"113 367 CURVE SMOOTH"
);
},
{
closed = 1;
nodes = (
"99 -6 OFFCURVE",
"114 12 OFFCURVE",
"114 33 CURVE SMOOTH",
"114 47 OFFCURVE",
"104 60 OFFCURVE",
"91 60 CURVE SMOOTH",
"74 60 OFFCURVE",
"60 42 OFFCURVE",
"60 23 CURVE SMOOTH",
"60 8 OFFCURVE",
"69 -6 OFFCURVE",
"83 -6 CURVE SMOOTH"
);
}
);
userData = {
com.fontlab.hintData = {
hhints = (
{
position = 0;
width = 66;
},
{
position = 373;
width = 66;
}
);
vhints = (
{
position = 73;
width = 54;
},
{
position = 103;
width = 54;
}
);
};
};
width = 204;
},
{
background = {
paths = (
{
closed = 1;
nodes = (
"117 358 OFFCURVE",
"136 379 OFFCURVE",
"136 405 CURVE SMOOTH",
"136 425 OFFCURVE",
"122 441 OFFCURVE",
"104 441 CURVE SMOOTH",
"83 441 OFFCURVE",
"64 419 OFFCURVE",
"64 396 CURVE SMOOTH",
"64 375 OFFCURVE",
"77 358 OFFCURVE",
"96 358 CURVE SMOOTH"
);
},
{
closed = 1;
nodes = (
"88 0 OFFCURVE",
"107 21 OFFCURVE",
"107 47 CURVE SMOOTH",
"107 67 OFFCURVE",
"93 83 OFFCURVE",
"75 83 CURVE SMOOTH",
"54 83 OFFCURVE",
"35 61 OFFCURVE",
"35 38 CURVE SMOOTH",
"35 17 OFFCURVE",
"48 0 OFFCURVE",
"67 0 CURVE SMOOTH"
);
}
);
};
layerId = "218416E4-0B36-4DBB-8D0A-D6BB29FB6576";
paths = (
{
closed = 1;
nodes = (
"117 352 OFFCURVE",
"136 373 OFFCURVE",
"136 399 CURVE SMOOTH",
"136 419 OFFCURVE",
"122 435 OFFCURVE",
"104 435 CURVE SMOOTH",
"83 435 OFFCURVE",
"64 413 OFFCURVE",
"64 390 CURVE SMOOTH",
"64 369 OFFCURVE",
"77 352 OFFCURVE",
"96 352 CURVE SMOOTH"
);
},
{
closed = 1;
nodes = (
"88 -6 OFFCURVE",
"107 15 OFFCURVE",
"107 41 CURVE SMOOTH",
"107 61 OFFCURVE",
"93 77 OFFCURVE",
"75 77 CURVE SMOOTH",
"54 77 OFFCURVE",
"35 55 OFFCURVE",
"35 32 CURVE SMOOTH",
"35 11 OFFCURVE",
"48 -6 OFFCURVE",
"67 -6 CURVE SMOOTH"
);
}
);
userData = {
com.fontlab.hintData = {
hhints = (
{
position = 0;
width = 83;
},
{
position = 358;
width = 83;
}
);
vhints = (
{
position = 67;
width = 72;
},
{
position = 96;
width = 72;
}
);
};
};
width = 176;
},
{
background = {
paths = (
{
closed = 1;
nodes = (
"139 325 OFFCURVE",
"167 354 OFFCURVE",
"167 391 CURVE SMOOTH",
"167 422 OFFCURVE",
"144 446 OFFCURVE",
"115 446 CURVE SMOOTH",
"84 446 OFFCURVE",
"56 415 OFFCURVE",
"56 382 CURVE SMOOTH",
"56 351 OFFCURVE",
"77 325 OFFCURVE",
"108 325 CURVE SMOOTH"
);
},
{
closed = 1;
nodes = (
"112 0 OFFCURVE",
"140 29 OFFCURVE",
"140 65 CURVE SMOOTH",
"140 96 OFFCURVE",
"118 121 OFFCURVE",
"89 121 CURVE SMOOTH",
"58 121 OFFCURVE",
"30 90 OFFCURVE",
"30 57 CURVE SMOOTH",
"30 25 OFFCURVE",
"50 0 OFFCURVE",
"81 0 CURVE SMOOTH"
);
}
);
};
layerId = "BB1A411A-CAFC-47D3-A925-066104B707B4";
paths = (
{
closed = 1;
nodes = (
"139 319 OFFCURVE",
"167 348 OFFCURVE",
"167 385 CURVE SMOOTH",
"167 416 OFFCURVE",
"144 440 OFFCURVE",
"115 440 CURVE SMOOTH",
"84 440 OFFCURVE",
"56 409 OFFCURVE",
"56 376 CURVE SMOOTH",
"56 345 OFFCURVE",
"77 319 OFFCURVE",
"108 319 CURVE SMOOTH"
);
},
{
closed = 1;
nodes = (
"112 -6 OFFCURVE",
"140 23 OFFCURVE",
"140 59 CURVE SMOOTH",
"140 90 OFFCURVE",
"118 115 OFFCURVE",
"89 115 CURVE SMOOTH",
"58 115 OFFCURVE",
"30 84 OFFCURVE",
"30 51 CURVE SMOOTH",
"30 19 OFFCURVE",
"50 -6 OFFCURVE",
"81 -6 CURVE SMOOTH"
);
}
);
userData = {
com.fontlab.hintData = {
hhints = (
{
position = 0;
width = 121;
},
{
position = 325;
width = 121;
}
);
vhints = (
{
position = 57;
width = 110;
},
{
position = 83;
width = 111;
}
);
};
};
width = 207;
}
);
rightKerningGroup = period;
unicode = 003A;
},
{
glyphname = semicolon;
lastChange = "2020-01-31 01:04:25 +0000";
layers = (
{
background = {
paths = (
{
closed = 1;
nodes = (
"60 -96 OFFCURVE",
"65 -82 OFFCURVE",
"72 -66 CURVE SMOOTH",
"89 -25 OFFCURVE",
"106 9 OFFCURVE",
"106 34 CURVE SMOOTH",
"106 47 OFFCURVE",
"96 59 OFFCURVE",
"83 59 CURVE SMOOTH",
"67 59 OFFCURVE",
"52 43 OFFCURVE",
"52 23 CURVE SMOOTH",
"52 14 OFFCURVE",
"57 3 OFFCURVE",
"66 -5 CURVE",
"41 -71 LINE SMOOTH",
"38 -78 OFFCURVE",
"37 -81 OFFCURVE",
"37 -85 CURVE SMOOTH",
"37 -91 OFFCURVE",
"42 -96 OFFCURVE",
"49 -96 CURVE SMOOTH"
);
},
{
closed = 1;
nodes = (
"129 373 OFFCURVE",
"143 391 OFFCURVE",
"143 412 CURVE SMOOTH",
"143 426 OFFCURVE",
"133 439 OFFCURVE",
"120 439 CURVE SMOOTH",
"104 439 OFFCURVE",
"89 421 OFFCURVE",
"89 402 CURVE SMOOTH",
"89 387 OFFCURVE",
"98 373 OFFCURVE",
"112 373 CURVE SMOOTH"
);
}
);
};
layerId = master01;
paths = (
{
closed = 1;
nodes = (
"60 -102 OFFCURVE",
"65 -88 OFFCURVE",
"72 -72 CURVE SMOOTH",
"89 -31 OFFCURVE",
"106 3 OFFCURVE",
"106 28 CURVE SMOOTH",
"106 41 OFFCURVE",
"96 53 OFFCURVE",
"83 53 CURVE SMOOTH",
"67 53 OFFCURVE",
"52 37 OFFCURVE",
"52 17 CURVE SMOOTH",
"52 8 OFFCURVE",
"57 -3 OFFCURVE",
"66 -11 CURVE",
"41 -77 LINE SMOOTH",
"38 -85 OFFCURVE",
"37 -87 OFFCURVE",
"37 -91 CURVE SMOOTH",
"37 -97 OFFCURVE",
"42 -102 OFFCURVE",
"49 -102 CURVE SMOOTH"
);
},
{
closed = 1;
nodes = (
"129 367 OFFCURVE",
"143 385 OFFCURVE",
"143 406 CURVE SMOOTH",
"143 420 OFFCURVE",
"133 433 OFFCURVE",
"120 433 CURVE SMOOTH",
"104 433 OFFCURVE",
"89 415 OFFCURVE",
"89 396 CURVE SMOOTH",
"89 381 OFFCURVE",
"98 367 OFFCURVE",
"112 367 CURVE SMOOTH"
);
}
);
userData = {
com.fontlab.hintData = {
hhints = (
{
position = 373;
width = 66;
}
);
vhints = (
{
position = 92;
width = 51;
},
{
position = 107;
width = 54;
},
{
position = 144;
width = 54;
}
);
};
};
width = 183;
},
{
background = {
paths = (
{
closed = 1;
nodes = (
"74 -93 OFFCURVE",
"75 -77 OFFCURVE",
"99 -19 CURVE SMOOTH",
"114 17 OFFCURVE",
"118 26 OFFCURVE",
"118 45 CURVE SMOOTH",
"118 60 OFFCURVE",
"104 77 OFFCURVE",
"86 77 CURVE SMOOTH",
"65 77 OFFCURVE",
"46 56 OFFCURVE",
"46 32 CURVE SMOOTH",
"46 20 OFFCURVE",
"51 9 OFFCURVE",
"58 2 CURVE",
"34 -62 LINE SMOOTH",
"33 -65 OFFCURVE",
"32 -68 OFFCURVE",
"32 -71 CURVE SMOOTH",
"32 -83 OFFCURVE",
"42 -93 OFFCURVE",
"55 -93 CURVE SMOOTH"
);
},
{
closed = 1;
nodes = (
"135 358 OFFCURVE",
"154 379 OFFCURVE",
"154 405 CURVE SMOOTH",
"154 425 OFFCURVE",
"140 441 OFFCURVE",
"122 441 CURVE SMOOTH",
"101 441 OFFCURVE",
"82 419 OFFCURVE",
"82 396 CURVE SMOOTH",
"82 375 OFFCURVE",
"95 358 OFFCURVE",
"114 358 CURVE SMOOTH"
);
}
);
};
layerId = "218416E4-0B36-4DBB-8D0A-D6BB29FB6576";
paths = (
{
closed = 1;
nodes = (
"74 -99 OFFCURVE",
"75 -83 OFFCURVE",
"99 -25 CURVE SMOOTH",
"114 11 OFFCURVE",
"118 20 OFFCURVE",
"118 39 CURVE SMOOTH",
"118 54 OFFCURVE",
"104 71 OFFCURVE",
"86 71 CURVE SMOOTH",
"65 71 OFFCURVE",
"46 50 OFFCURVE",
"46 26 CURVE SMOOTH",
"46 14 OFFCURVE",
"51 3 OFFCURVE",
"58 -4 CURVE",
"34 -68 LINE SMOOTH",
"33 -71 OFFCURVE",
"32 -74 OFFCURVE",
"32 -77 CURVE SMOOTH",
"32 -89 OFFCURVE",
"42 -99 OFFCURVE",
"55 -99 CURVE SMOOTH"
);
},
{
closed = 1;
nodes = (
"135 352 OFFCURVE",
"154 373 OFFCURVE",
"154 399 CURVE SMOOTH",
"154 419 OFFCURVE",
"140 435 OFFCURVE",
"122 435 CURVE SMOOTH",
"101 435 OFFCURVE",
"82 413 OFFCURVE",
"82 390 CURVE SMOOTH",
"82 369 OFFCURVE",
"95 352 OFFCURVE",
"114 352 CURVE SMOOTH"
);
}
);
userData = {
com.fontlab.hintData = {
hhints = (
{
position = 358;
width = 83;
}
);
vhints = (
{
position = 86;
width = 67;
},
{
position = 100;
width = 72;
},
{
position = 136;
width = 72;
}
);
};
};
width = 194;
},
{
background = {
paths = (
{
closed = 1;
nodes = (
"97 -84 OFFCURVE",
"108 -66 OFFCURVE",
"117 -45 CURVE SMOOTH",
"133 -7 OFFCURVE",
"151 43 OFFCURVE",
"151 64 CURVE SMOOTH",
"151 92 OFFCURVE",
"128 115 OFFCURVE",
"99 115 CURVE SMOOTH",
"68 115 OFFCURVE",
"40 85 OFFCURVE",
"40 52 CURVE SMOOTH",
"40 40 OFFCURVE",
"43 30 OFFCURVE",
"48 21 CURVE",
"30 -26 LINE SMOOTH",
"28 -31 OFFCURVE",
"27 -35 OFFCURVE",
"27 -42 CURVE SMOOTH",
"27 -65 OFFCURVE",
"46 -84 OFFCURVE",
"71 -84 CURVE SMOOTH"
);
},
{
closed = 1;
nodes = (
"155 325 OFFCURVE",
"183 354 OFFCURVE",
"183 391 CURVE SMOOTH",
"183 422 OFFCURVE",
"161 446 OFFCURVE",
"132 446 CURVE SMOOTH",
"101 446 OFFCURVE",
"73 415 OFFCURVE",
"73 382 CURVE SMOOTH",
"73 351 OFFCURVE",
"93 325 OFFCURVE",
"124 325 CURVE SMOOTH"
);
}
);
};
layerId = "BB1A411A-CAFC-47D3-A925-066104B707B4";
paths = (
{
closed = 1;
nodes = (
"97 -90 OFFCURVE",
"108 -72 OFFCURVE",
"117 -51 CURVE SMOOTH",
"133 -13 OFFCURVE",
"151 37 OFFCURVE",
"151 58 CURVE SMOOTH",
"151 86 OFFCURVE",
"128 109 OFFCURVE",
"99 109 CURVE SMOOTH",
"68 109 OFFCURVE",
"40 79 OFFCURVE",
"40 46 CURVE SMOOTH",
"40 34 OFFCURVE",
"43 24 OFFCURVE",
"48 15 CURVE",
"30 -32 LINE SMOOTH",
"28 -37 OFFCURVE",
"27 -42 OFFCURVE",
"27 -48 CURVE SMOOTH",
"27 -71 OFFCURVE",
"46 -90 OFFCURVE",
"71 -90 CURVE SMOOTH"
);
},
{
closed = 1;
nodes = (
"155 319 OFFCURVE",
"183 348 OFFCURVE",
"183 385 CURVE SMOOTH",
"183 416 OFFCURVE",
"161 440 OFFCURVE",
"132 440 CURVE SMOOTH",
"101 440 OFFCURVE",
"73 409 OFFCURVE",
"73 376 CURVE SMOOTH",
"73 345 OFFCURVE",
"93 319 OFFCURVE",
"124 319 CURVE SMOOTH"
);
}
);
userData = {
com.fontlab.hintData = {
hhints = (
{
position = 325;
width = 121;
}
);
vhints = (
{
position = 88;
width = 111;
},
{
position = 121;
width = 110;
}
);
};
};
width = 223;
}
);
leftKerningGroup = comma;
rightKerningGroup = comma;
unicode = 003B;
},
{
glyphname = less;
lastChange = "2020-01-31 00:42:06 +0000";
layers = (
{
background = {
paths = (
{
closed = 1;
nodes = (
"438 8 OFFCURVE",
"447 17 OFFCURVE",
"447 27 CURVE SMOOTH",
"447 33 OFFCURVE",
"443 40 OFFCURVE",
"437 44 CURVE SMOOTH",
"130 247 LINE",
"458 456 LINE SMOOTH",
"464 460 OFFCURVE",
"467 466 OFFCURVE",
"467 472 CURVE SMOOTH",
"467 482 OFFCURVE",
"458 492 OFFCURVE",
"448 492 CURVE SMOOTH",
"446 492 OFFCURVE",
"442 492 OFFCURVE",
"437 489 CURVE SMOOTH",
"85 264 LINE SMOOTH",
"79 260 OFFCURVE",
"75 254 OFFCURVE",
"75 248 CURVE SMOOTH",
"75 240 OFFCURVE",
"78 235 OFFCURVE",
"84 231 CURVE SMOOTH",
"415 13 LINE SMOOTH",
"422 9 OFFCURVE",
"425 8 OFFCURVE",
"428 8 CURVE SMOOTH"
);
}
);
};
layerId = master01;
paths = (
{
closed = 1;
nodes = (
"438 2 OFFCURVE",
"447 11 OFFCURVE",
"447 21 CURVE SMOOTH",
"447 27 OFFCURVE",
"443 34 OFFCURVE",
"437 38 CURVE SMOOTH",
"130 241 LINE",
"458 450 LINE SMOOTH",
"464 454 OFFCURVE",
"467 460 OFFCURVE",
"467 466 CURVE SMOOTH",
"467 476 OFFCURVE",
"458 486 OFFCURVE",
"448 486 CURVE SMOOTH",
"445 486 OFFCURVE",
"442 486 OFFCURVE",
"437 483 CURVE SMOOTH",
"85 258 LINE SMOOTH",
"79 254 OFFCURVE",
"75 248 OFFCURVE",
"75 242 CURVE SMOOTH",
"75 234 OFFCURVE",
"78 229 OFFCURVE",
"84 225 CURVE SMOOTH",
"415 7 LINE SMOOTH",
"421 3 OFFCURVE",
"424 2 OFFCURVE",
"428 2 CURVE SMOOTH"
);
}
);
width = 527;
},
{
background = {
paths = (
{
closed = 1;
nodes = (
"422 8 OFFCURVE",
"435 21 OFFCURVE",
"435 36 CURVE SMOOTH",
"435 45 OFFCURVE",
"430 54 OFFCURVE",
"422 60 CURVE SMOOTH",
"139 247 LINE",
"441 440 LINE SMOOTH",
"449 445 OFFCURVE",
"454 454 OFFCURVE",
"454 463 CURVE SMOOTH",
"454 479 OFFCURVE",
"441 492 OFFCURVE",
"426 492 CURVE SMOOTH",
"421 492 OFFCURVE",
"416 490 OFFCURVE",
"411 487 CURVE SMOOTH",
"73 271 LINE SMOOTH",
"65 266 OFFCURVE",
"60 257 OFFCURVE",
"60 248 CURVE SMOOTH",
"60 238 OFFCURVE",
"64 229 OFFCURVE",
"72 224 CURVE SMOOTH",
"391 13 LINE SMOOTH",
"396 10 OFFCURVE",
"402 8 OFFCURVE",
"407 8 CURVE SMOOTH"
);
}
);
};
layerId = "218416E4-0B36-4DBB-8D0A-D6BB29FB6576";
paths = (
{
closed = 1;
nodes = (
"422 2 OFFCURVE",
"435 15 OFFCURVE",
"435 30 CURVE SMOOTH",
"435 39 OFFCURVE",
"430 49 OFFCURVE",
"422 54 CURVE SMOOTH",
"139 241 LINE",
"441 434 LINE SMOOTH",
"449 439 OFFCURVE",
"454 449 OFFCURVE",
"454 457 CURVE SMOOTH",
"454 473 OFFCURVE",
"441 486 OFFCURVE",
"426 486 CURVE SMOOTH",
"421 486 OFFCURVE",
"416 484 OFFCURVE",
"411 481 CURVE SMOOTH",
"73 265 LINE SMOOTH",
"65 260 OFFCURVE",
"60 250 OFFCURVE",
"60 242 CURVE SMOOTH",
"60 233 OFFCURVE",
"64 223 OFFCURVE",
"72 218 CURVE SMOOTH",
"391 7 LINE SMOOTH",
"396 4 OFFCURVE",
"402 2 OFFCURVE",
"407 2 CURVE SMOOTH"
);
}
);
width = 504;
},
{
background = {
paths = (
{
closed = 1;
nodes = (
"443 7 OFFCURVE",
"466 30 OFFCURVE",
"466 55 CURVE SMOOTH",
"466 71 OFFCURVE",
"458 85 OFFCURVE",
"444 95 CURVE SMOOTH",
"216 247 LINE",
"461 403 LINE SMOOTH",
"474 411 OFFCURVE",
"483 428 OFFCURVE",
"483 443 CURVE SMOOTH",
"483 471 OFFCURVE",
"461 492 OFFCURVE",
"435 492 CURVE SMOOTH",
"426 492 OFFCURVE",
"417 489 OFFCURVE",
"409 484 CURVE SMOOTH",
"102 288 LINE SMOOTH",
"85 277 OFFCURVE",
"80 263 OFFCURVE",
"80 248 CURVE SMOOTH",
"80 231 OFFCURVE",
"86 217 OFFCURVE",
"101 207 CURVE SMOOTH",
"391 15 LINE SMOOTH",
"399 10 OFFCURVE",
"410 7 OFFCURVE",
"418 7 CURVE SMOOTH"
);
}
);
};
layerId = "BB1A411A-CAFC-47D3-A925-066104B707B4";
paths = (
{
closed = 1;
nodes = (
"443 1 OFFCURVE",
"466 24 OFFCURVE",
"466 49 CURVE SMOOTH",
"466 65 OFFCURVE",
"458 80 OFFCURVE",
"444 89 CURVE SMOOTH",
"216 241 LINE",
"461 397 LINE SMOOTH",
"474 405 OFFCURVE",
"483 423 OFFCURVE",
"483 437 CURVE SMOOTH",
"483 465 OFFCURVE",
"461 486 OFFCURVE",
"435 486 CURVE SMOOTH",
"426 486 OFFCURVE",
"417 483 OFFCURVE",
"409 478 CURVE SMOOTH",
"102 282 LINE SMOOTH",
"85 271 OFFCURVE",
"80 257 OFFCURVE",
"80 242 CURVE SMOOTH",
"80 225 OFFCURVE",
"86 211 OFFCURVE",
"101 201 CURVE SMOOTH",
"391 9 LINE SMOOTH",
"399 4 OFFCURVE",
"408 1 OFFCURVE",
"418 1 CURVE SMOOTH"
);
}
);
width = 543;
}
);
unicode = 003C;
},
{
glyphname = equal;
lastChange = "2020-01-31 00:42:06 +0000";
layers = (
{
background = {
paths = (
{
closed = 1;
nodes = (
"381 312 LINE SMOOTH",
"392 312 OFFCURVE",
"400 320 OFFCURVE",
"400 329 CURVE SMOOTH",
"400 340 OFFCURVE",
"392 348 OFFCURVE",
"381 348 CURVE SMOOTH",
"83 348 LINE SMOOTH",
"74 348 OFFCURVE",
"65 340 OFFCURVE",
"65 329 CURVE SMOOTH",
"65 320 OFFCURVE",
"74 312 OFFCURVE",
"83 312 CURVE SMOOTH"
);
},
{
closed = 1;
nodes = (
"381 151 LINE SMOOTH",
"392 151 OFFCURVE",
"400 159 OFFCURVE",
"400 169 CURVE SMOOTH",
"400 179 OFFCURVE",
"392 188 OFFCURVE",
"381 188 CURVE SMOOTH",
"83 188 LINE SMOOTH",
"74 188 OFFCURVE",
"65 179 OFFCURVE",
"65 169 CURVE SMOOTH",
"65 159 OFFCURVE",
"74 151 OFFCURVE",
"83 151 CURVE SMOOTH"
);
}
);
};
layerId = master01;
paths = (
{
closed = 1;
nodes = (
"381 306 LINE SMOOTH",
"392 306 OFFCURVE",
"400 314 OFFCURVE",
"400 323 CURVE SMOOTH",
"400 334 OFFCURVE",
"392 342 OFFCURVE",
"381 342 CURVE SMOOTH",
"83 342 LINE SMOOTH",
"74 342 OFFCURVE",
"65 334 OFFCURVE",
"65 323 CURVE SMOOTH",
"65 314 OFFCURVE",
"74 306 OFFCURVE",
"83 306 CURVE SMOOTH"
);
},
{
closed = 1;
nodes = (
"381 145 LINE SMOOTH",
"392 145 OFFCURVE",
"400 153 OFFCURVE",
"400 163 CURVE SMOOTH",
"400 173 OFFCURVE",
"392 182 OFFCURVE",
"381 182 CURVE SMOOTH",
"83 182 LINE SMOOTH",
"74 182 OFFCURVE",
"65 173 OFFCURVE",
"65 163 CURVE SMOOTH",
"65 153 OFFCURVE",
"74 145 OFFCURVE",
"83 145 CURVE SMOOTH"
);
}
);
userData = {
com.fontlab.hintData = {
hhints = (
{
position = 151;
width = 37;
},
{
position = 312;
width = 36;
}
);
};
};
width = 465;
},
{
background = {
paths = (
{
closed = 1;
nodes = (
"373 299 LINE SMOOTH",
"388 299 OFFCURVE",
"401 311 OFFCURVE",
"401 326 CURVE SMOOTH",
"401 341 OFFCURVE",
"388 354 OFFCURVE",
"373 354 CURVE SMOOTH",
"87 354 LINE SMOOTH",
"72 354 OFFCURVE",
"60 341 OFFCURVE",
"60 326 CURVE SMOOTH",
"60 311 OFFCURVE",
"72 299 OFFCURVE",
"87 299 CURVE SMOOTH"
);
},
{
closed = 1;
nodes = (
"373 145 LINE SMOOTH",
"388 145 OFFCURVE",
"401 157 OFFCURVE",
"401 172 CURVE SMOOTH",
"401 187 OFFCURVE",
"388 200 OFFCURVE",
"373 200 CURVE SMOOTH",
"87 200 LINE SMOOTH",
"72 200 OFFCURVE",
"60 187 OFFCURVE",
"60 172 CURVE SMOOTH",
"60 157 OFFCURVE",
"72 145 OFFCURVE",
"87 145 CURVE SMOOTH"
);
}
);
};
layerId = "218416E4-0B36-4DBB-8D0A-D6BB29FB6576";
paths = (
{
closed = 1;
nodes = (
"373 293 LINE SMOOTH",
"388 293 OFFCURVE",
"401 305 OFFCURVE",
"401 320 CURVE SMOOTH",
"401 335 OFFCURVE",
"388 348 OFFCURVE",
"373 348 CURVE SMOOTH",
"87 348 LINE SMOOTH",
"72 348 OFFCURVE",
"60 335 OFFCURVE",
"60 320 CURVE SMOOTH",
"60 305 OFFCURVE",
"72 293 OFFCURVE",
"87 293 CURVE SMOOTH"
);
},
{
closed = 1;
nodes = (
"373 139 LINE SMOOTH",
"388 139 OFFCURVE",
"401 151 OFFCURVE",
"401 166 CURVE SMOOTH",
"401 181 OFFCURVE",
"388 194 OFFCURVE",
"373 194 CURVE SMOOTH",
"87 194 LINE SMOOTH",
"72 194 OFFCURVE",
"60 181 OFFCURVE",
"60 166 CURVE SMOOTH",
"60 151 OFFCURVE",
"72 139 OFFCURVE",
"87 139 CURVE SMOOTH"
);
}
);
userData = {
com.fontlab.hintData = {
hhints = (
{
position = 145;
width = 55;
},
{
position = 299;
width = 55;
}
);
};
};
width = 461;
},
{
background = {
paths = (
{
closed = 1;
nodes = (
"362 292 LINE SMOOTH",
"387 292 OFFCURVE",
"410 313 OFFCURVE",
"410 339 CURVE SMOOTH",
"410 364 OFFCURVE",
"387 387 OFFCURVE",
"362 387 CURVE SMOOTH",
"102 387 LINE SMOOTH",
"75 387 OFFCURVE",
"55 364 OFFCURVE",
"55 339 CURVE SMOOTH",
"55 313 OFFCURVE",
"75 292 OFFCURVE",
"102 292 CURVE SMOOTH"
);
},
{
closed = 1;
nodes = (
"362 112 LINE SMOOTH",
"387 112 OFFCURVE",
"410 133 OFFCURVE",
"410 159 CURVE SMOOTH",
"410 184 OFFCURVE",
"387 207 OFFCURVE",
"362 207 CURVE SMOOTH",
"102 207 LINE SMOOTH",
"75 207 OFFCURVE",
"55 184 OFFCURVE",
"55 159 CURVE SMOOTH",
"55 133 OFFCURVE",
"75 112 OFFCURVE",
"102 112 CURVE SMOOTH"
);
}
);
};
layerId = "BB1A411A-CAFC-47D3-A925-066104B707B4";
paths = (
{
closed = 1;
nodes = (
"362 286 LINE SMOOTH",
"387 286 OFFCURVE",
"410 307 OFFCURVE",
"410 333 CURVE SMOOTH",
"410 358 OFFCURVE",
"387 381 OFFCURVE",
"362 381 CURVE SMOOTH",
"102 381 LINE SMOOTH",
"75 381 OFFCURVE",
"55 358 OFFCURVE",
"55 333 CURVE SMOOTH",
"55 307 OFFCURVE",
"75 286 OFFCURVE",
"102 286 CURVE SMOOTH"
);
},
{
closed = 1;
nodes = (
"362 106 LINE SMOOTH",
"387 106 OFFCURVE",
"410 127 OFFCURVE",
"410 153 CURVE SMOOTH",
"410 178 OFFCURVE",
"387 201 OFFCURVE",
"362 201 CURVE SMOOTH",
"102 201 LINE SMOOTH",
"75 201 OFFCURVE",
"55 178 OFFCURVE",
"55 153 CURVE SMOOTH",
"55 127 OFFCURVE",
"75 106 OFFCURVE",
"102 106 CURVE SMOOTH"
);
}
);
userData = {
com.fontlab.hintData = {
hhints = (
{
position = 112;
width = 95;
},
{
position = 292;
width = 95;
}
);
};
};
width = 465;
}
);
unicode = 003D;
},
{
glyphname = greater;
lastChange = "2020-01-31 00:42:06 +0000";
layers = (
{
background = {
paths = (
{
closed = 1;
nodes = (
"102 8 OFFCURVE",
"105 9 OFFCURVE",
"112 13 CURVE SMOOTH",
"443 231 LINE SMOOTH",
"449 235 OFFCURVE",
"452 240 OFFCURVE",
"452 248 CURVE SMOOTH",
"452 254 OFFCURVE",
"448 260 OFFCURVE",
"442 264 CURVE SMOOTH",
"90 489 LINE SMOOTH",
"85 492 OFFCURVE",
"81 492 OFFCURVE",
"79 492 CURVE SMOOTH",
"69 492 OFFCURVE",
"60 482 OFFCURVE",
"60 472 CURVE SMOOTH",
"60 466 OFFCURVE",
"63 460 OFFCURVE",
"69 456 CURVE SMOOTH",
"397 247 LINE",
"90 44 LINE SMOOTH",
"84 40 OFFCURVE",
"80 33 OFFCURVE",
"80 27 CURVE SMOOTH",
"80 17 OFFCURVE",
"89 8 OFFCURVE",
"99 8 CURVE SMOOTH"
);
}
);
};
layerId = master01;
paths = (
{
closed = 1;
nodes = (
"103 2 OFFCURVE",
"106 3 OFFCURVE",
"112 7 CURVE SMOOTH",
"443 225 LINE SMOOTH",
"449 229 OFFCURVE",
"452 234 OFFCURVE",
"452 242 CURVE SMOOTH",
"452 249 OFFCURVE",
"448 254 OFFCURVE",
"442 258 CURVE SMOOTH",
"90 483 LINE SMOOTH",
"85 486 OFFCURVE",
"82 486 OFFCURVE",
"79 486 CURVE SMOOTH",
"69 486 OFFCURVE",
"60 476 OFFCURVE",
"60 466 CURVE SMOOTH",
"60 460 OFFCURVE",
"63 454 OFFCURVE",
"69 450 CURVE SMOOTH",
"397 241 LINE",
"90 38 LINE SMOOTH",
"84 34 OFFCURVE",
"80 27 OFFCURVE",
"80 21 CURVE SMOOTH",
"80 11 OFFCURVE",
"89 2 OFFCURVE",
"99 2 CURVE SMOOTH"
);
}
);
width = 527;
},
{
background = {
paths = (
{
closed = 1;
nodes = (
"128 8 OFFCURVE",
"134 10 OFFCURVE",
"139 13 CURVE SMOOTH",
"458 224 LINE SMOOTH",
"466 229 OFFCURVE",
"470 238 OFFCURVE",
"470 248 CURVE SMOOTH",
"470 257 OFFCURVE",
"465 266 OFFCURVE",
"457 271 CURVE SMOOTH",
"119 487 LINE SMOOTH",
"114 490 OFFCURVE",
"109 492 OFFCURVE",
"104 492 CURVE SMOOTH",
"89 492 OFFCURVE",
"76 479 OFFCURVE",
"76 463 CURVE SMOOTH",
"76 454 OFFCURVE",
"81 445 OFFCURVE",
"89 440 CURVE SMOOTH",
"391 247 LINE",
"108 60 LINE SMOOTH",
"100 54 OFFCURVE",
"95 45 OFFCURVE",
"95 36 CURVE SMOOTH",
"95 21 OFFCURVE",
"108 8 OFFCURVE",
"123 8 CURVE SMOOTH"
);
}
);
};
layerId = "218416E4-0B36-4DBB-8D0A-D6BB29FB6576";
paths = (
{
closed = 1;
nodes = (
"129 2 OFFCURVE",
"134 4 OFFCURVE",
"139 7 CURVE SMOOTH",
"458 218 LINE SMOOTH",
"466 223 OFFCURVE",
"470 233 OFFCURVE",
"470 242 CURVE SMOOTH",
"470 250 OFFCURVE",
"465 260 OFFCURVE",
"457 265 CURVE SMOOTH",
"119 481 LINE SMOOTH",
"114 484 OFFCURVE",
"109 486 OFFCURVE",
"104 486 CURVE SMOOTH",
"89 486 OFFCURVE",
"76 473 OFFCURVE",
"76 457 CURVE SMOOTH",
"76 448 OFFCURVE",
"81 439 OFFCURVE",
"89 434 CURVE SMOOTH",
"391 241 LINE",
"108 54 LINE SMOOTH",
"99 48 OFFCURVE",
"95 38 OFFCURVE",
"95 30 CURVE SMOOTH",
"95 15 OFFCURVE",
"108 2 OFFCURVE",
"123 2 CURVE SMOOTH"
);
}
);
width = 540;
},
{
background = {
paths = (
{
closed = 1;
nodes = (
"133 7 OFFCURVE",
"144 10 OFFCURVE",
"152 15 CURVE SMOOTH",
"442 207 LINE SMOOTH",
"457 217 OFFCURVE",
"463 231 OFFCURVE",
"463 248 CURVE SMOOTH",
"463 263 OFFCURVE",
"458 277 OFFCURVE",
"441 288 CURVE SMOOTH",
"134 484 LINE SMOOTH",
"126 489 OFFCURVE",
"117 492 OFFCURVE",
"108 492 CURVE SMOOTH",
"82 492 OFFCURVE",
"60 471 OFFCURVE",
"60 443 CURVE SMOOTH",
"60 428 OFFCURVE",
"69 411 OFFCURVE",
"82 403 CURVE SMOOTH",
"327 247 LINE",
"99 95 LINE SMOOTH",
"85 85 OFFCURVE",
"77 71 OFFCURVE",
"77 55 CURVE SMOOTH",
"77 30 OFFCURVE",
"100 7 OFFCURVE",
"125 7 CURVE SMOOTH"
);
}
);
};
layerId = "BB1A411A-CAFC-47D3-A925-066104B707B4";
paths = (
{
closed = 1;
nodes = (
"134 1 OFFCURVE",
"144 4 OFFCURVE",
"152 9 CURVE SMOOTH",
"442 201 LINE SMOOTH",
"457 211 OFFCURVE",
"463 225 OFFCURVE",
"463 242 CURVE SMOOTH",
"463 258 OFFCURVE",
"458 271 OFFCURVE",
"441 282 CURVE SMOOTH",
"134 478 LINE SMOOTH",
"126 483 OFFCURVE",
"118 486 OFFCURVE",
"108 486 CURVE SMOOTH",
"82 486 OFFCURVE",
"60 465 OFFCURVE",
"60 437 CURVE SMOOTH",
"60 423 OFFCURVE",
"69 405 OFFCURVE",
"82 397 CURVE SMOOTH",
"327 241 LINE",
"99 89 LINE SMOOTH",
"84 79 OFFCURVE",
"77 64 OFFCURVE",
"77 49 CURVE SMOOTH",
"77 24 OFFCURVE",
"100 1 OFFCURVE",
"125 1 CURVE SMOOTH"
);
}
);
width = 543;
}
);
unicode = 003E;
},
{
glyphname = question;
lastChange = "2020-01-31 00:42:06 +0000";
layers = (
{
background = {
paths = (
{
closed = 1;
nodes = (
"168 182 OFFCURVE",
"172 185 OFFCURVE",
"176 188 CURVE SMOOTH",
"217 224 OFFCURVE",
"257 260 OFFCURVE",
"298 296 CURVE SMOOTH",
"350 342 OFFCURVE",
"435 405 OFFCURVE",
"435 516 CURVE SMOOTH",
"435 638 OFFCURVE",
"346 720 OFFCURVE",
"215 720 CURVE SMOOTH",
"139 720 OFFCURVE",
"83 680 OFFCURVE",
"51 645 CURVE SMOOTH",
"41 634 OFFCURVE",
"32 623 OFFCURVE",
"32 614 CURVE SMOOTH",
"32 606 OFFCURVE",
"40 598 OFFCURVE",
"50 598 CURVE SMOOTH",
"56 598 OFFCURVE",
"60 601 OFFCURVE",
"62 603 CURVE SMOOTH",
"94 640 OFFCURVE",
"141 685 OFFCURVE",
"215 685 CURVE SMOOTH",
"351 685 OFFCURVE",
"400 597 OFFCURVE",
"400 516 CURVE SMOOTH",
"400 437 OFFCURVE",
"342 383 OFFCURVE",
"278 326 CURVE SMOOTH",
"236 288 OFFCURVE",
"194 251 OFFCURVE",
"152 213 CURVE SMOOTH",
"148 209 OFFCURVE",
"146 205 OFFCURVE",
"146 200 CURVE SMOOTH",
"146 191 OFFCURVE",
"154 182 OFFCURVE",
"164 182 CURVE SMOOTH"
);
},
{
closed = 1;
nodes = (
"145 0 OFFCURVE",
"160 18 OFFCURVE",
"160 39 CURVE SMOOTH",
"160 53 OFFCURVE",
"149 66 OFFCURVE",
"137 66 CURVE SMOOTH",
"120 66 OFFCURVE",
"105 48 OFFCURVE",
"105 29 CURVE SMOOTH",
"105 14 OFFCURVE",
"115 0 OFFCURVE",
"128 0 CURVE SMOOTH"
);
}
);
};
layerId = master01;
paths = (
{
closed = 1;
nodes = (
"167 176 OFFCURVE",
"173 179 OFFCURVE",
"176 182 CURVE SMOOTH",
"213 214 OFFCURVE",
"262 258 OFFCURVE",
"298 290 CURVE SMOOTH",
"350 336 OFFCURVE",
"435 399 OFFCURVE",
"435 510 CURVE SMOOTH",
"435 632 OFFCURVE",
"346 714 OFFCURVE",
"215 714 CURVE SMOOTH",
"139 714 OFFCURVE",
"83 674 OFFCURVE",
"51 639 CURVE SMOOTH",
"41 628 OFFCURVE",
"32 617 OFFCURVE",
"32 608 CURVE SMOOTH",
"32 600 OFFCURVE",
"40 592 OFFCURVE",
"50 592 CURVE SMOOTH",
"56 592 OFFCURVE",
"60 595 OFFCURVE",
"62 597 CURVE SMOOTH",
"94 634 OFFCURVE",
"141 679 OFFCURVE",
"215 679 CURVE SMOOTH",
"351 679 OFFCURVE",
"400 591 OFFCURVE",
"400 510 CURVE SMOOTH",
"400 431 OFFCURVE",
"342 377 OFFCURVE",
"278 320 CURVE SMOOTH",
"244 290 OFFCURVE",
"182 234 OFFCURVE",
"152 207 CURVE SMOOTH",
"148 203 OFFCURVE",
"146 199 OFFCURVE",
"146 194 CURVE SMOOTH",
"146 185 OFFCURVE",
"154 176 OFFCURVE",
"164 176 CURVE SMOOTH"
);
},
{
closed = 1;
nodes = (
"145 -6 OFFCURVE",
"160 12 OFFCURVE",
"160 33 CURVE SMOOTH",
"160 47 OFFCURVE",
"149 60 OFFCURVE",
"137 60 CURVE SMOOTH",
"120 60 OFFCURVE",
"105 42 OFFCURVE",
"105 23 CURVE SMOOTH",
"105 8 OFFCURVE",
"115 -6 OFFCURVE",
"128 -6 CURVE SMOOTH"
);
}
);
userData = {
com.fontlab.hintData = {
hhints = (
{
position = 0;
width = 66;
},
{
position = 685;
width = 35;
}
);
vhints = (
{
position = 135;
width = 55;
},
{
position = 430;
width = 35;
}
);
};
};
width = 500;
},
{
background = {
paths = (
{
closed = 1;
nodes = (
"173 175 OFFCURVE",
"180 178 OFFCURVE",
"185 183 CURVE SMOOTH",
"207 202 OFFCURVE",
"259 249 OFFCURVE",
"302 287 CURVE SMOOTH",
"354 330 OFFCURVE",
"436 395 OFFCURVE",
"436 505 CURVE SMOOTH",
"436 628 OFFCURVE",
"347 711 OFFCURVE",
"215 711 CURVE SMOOTH",
"139 711 OFFCURVE",
"83 671 OFFCURVE",
"51 636 CURVE SMOOTH",
"39 623 OFFCURVE",
"30 612 OFFCURVE",
"30 602 CURVE SMOOTH",
"30 586 OFFCURVE",
"43 575 OFFCURVE",
"58 575 CURVE SMOOTH",
"64 575 OFFCURVE",
"71 578 OFFCURVE",
"75 582 CURVE SMOOTH",
"105 616 OFFCURVE",
"147 657 OFFCURVE",
"215 657 CURVE SMOOTH",
"339 657 OFFCURVE",
"383 578 OFFCURVE",
"383 505 CURVE SMOOTH",
"383 422 OFFCURVE",
"316 373 OFFCURVE",
"269 330 CURVE SMOOTH",
"223 287 OFFCURVE",
"169 239 OFFCURVE",
"149 222 CURVE SMOOTH",
"143 217 OFFCURVE",
"139 210 OFFCURVE",
"139 202 CURVE SMOOTH",
"139 187 OFFCURVE",
"151 175 OFFCURVE",
"166 175 CURVE SMOOTH"
);
},
{
closed = 1;
nodes = (
"153 0 OFFCURVE",
"172 21 OFFCURVE",
"172 47 CURVE SMOOTH",
"172 67 OFFCURVE",
"158 83 OFFCURVE",
"140 83 CURVE SMOOTH",
"119 83 OFFCURVE",
"100 61 OFFCURVE",
"100 38 CURVE SMOOTH",
"100 17 OFFCURVE",
"113 0 OFFCURVE",
"132 0 CURVE SMOOTH"
);
}
);
};
layerId = "218416E4-0B36-4DBB-8D0A-D6BB29FB6576";
paths = (
{
closed = 1;
nodes = (
"173 169 OFFCURVE",
"180 172 OFFCURVE",
"185 177 CURVE SMOOTH",
"204 194 OFFCURVE",
"263 248 OFFCURVE",
"302 281 CURVE SMOOTH",
"353 324 OFFCURVE",
"436 387 OFFCURVE",
"436 499 CURVE SMOOTH",
"436 622 OFFCURVE",
"347 705 OFFCURVE",
"215 705 CURVE SMOOTH",
"139 705 OFFCURVE",
"83 665 OFFCURVE",
"51 630 CURVE SMOOTH",
"39 617 OFFCURVE",
"30 606 OFFCURVE",
"30 596 CURVE SMOOTH",
"30 580 OFFCURVE",
"43 569 OFFCURVE",
"58 569 CURVE SMOOTH",
"64 569 OFFCURVE",
"71 572 OFFCURVE",
"75 576 CURVE SMOOTH",
"105 610 OFFCURVE",
"147 651 OFFCURVE",
"215 651 CURVE SMOOTH",
"339 651 OFFCURVE",
"383 572 OFFCURVE",
"383 499 CURVE SMOOTH",
"383 416 OFFCURVE",
"316 367 OFFCURVE",
"269 324 CURVE SMOOTH",
"223 281 OFFCURVE",
"169 233 OFFCURVE",
"149 216 CURVE SMOOTH",
"143 211 OFFCURVE",
"139 204 OFFCURVE",
"139 196 CURVE SMOOTH",
"139 181 OFFCURVE",
"151 169 OFFCURVE",
"166 169 CURVE SMOOTH"
);
},
{
closed = 1;
nodes = (
"153 -6 OFFCURVE",
"172 15 OFFCURVE",
"172 41 CURVE SMOOTH",
"172 61 OFFCURVE",
"158 77 OFFCURVE",
"140 77 CURVE SMOOTH",
"119 77 OFFCURVE",
"100 55 OFFCURVE",
"100 32 CURVE SMOOTH",
"100 11 OFFCURVE",
"113 -6 OFFCURVE",
"132 -6 CURVE SMOOTH"
);
}
);
userData = {
com.fontlab.hintData = {
hhints = (
{
position = 0;
width = 83;
},
{
position = 657;
width = 54;
}
);
vhints = (
{
position = 130;
width = 72;
},
{
position = 413;
width = 53;
}
);
};
};
width = 501;
},
{
background = {
paths = (
{
closed = 1;
nodes = (
"183 159 OFFCURVE",
"208 178 OFFCURVE",
"234 201 CURVE SMOOTH",
"252 217 OFFCURVE",
"288 250 OFFCURVE",
"325 284 CURVE SMOOTH",
"360 316 OFFCURVE",
"434 371 OFFCURVE",
"434 481 CURVE SMOOTH",
"434 607 OFFCURVE",
"344 691 OFFCURVE",
"211 691 CURVE SMOOTH",
"135 691 OFFCURVE",
"77 650 OFFCURVE",
"45 616 CURVE SMOOTH",
"33 602 OFFCURVE",
"20 586 OFFCURVE",
"20 570 CURVE SMOOTH",
"20 541 OFFCURVE",
"43 522 OFFCURVE",
"68 522 CURVE SMOOTH",
"80 522 OFFCURVE",
"92 526 OFFCURVE",
"100 535 CURVE SMOOTH",
"125 563 OFFCURVE",
"159 597 OFFCURVE",
"211 597 CURVE SMOOTH",
"307 597 OFFCURVE",
"341 537 OFFCURVE",
"341 481 CURVE SMOOTH",
"341 440 OFFCURVE",
"301 390 OFFCURVE",
"254 344 CURVE SMOOTH",
"211 301 OFFCURVE",
"162 264 OFFCURVE",
"136 242 CURVE SMOOTH",
"125 233 OFFCURVE",
"119 219 OFFCURVE",
"119 206 CURVE SMOOTH",
"119 180 OFFCURVE",
"140 159 OFFCURVE",
"166 159 CURVE SMOOTH"
);
},
{
closed = 1;
nodes = (
"166 0 OFFCURVE",
"194 29 OFFCURVE",
"194 65 CURVE SMOOTH",
"194 96 OFFCURVE",
"172 121 OFFCURVE",
"142 121 CURVE SMOOTH",
"112 121 OFFCURVE",
"83 90 OFFCURVE",
"83 57 CURVE SMOOTH",
"83 25 OFFCURVE",
"104 0 OFFCURVE",
"135 0 CURVE SMOOTH"
);
}
);
};
layerId = "BB1A411A-CAFC-47D3-A925-066104B707B4";
paths = (
{
closed = 1;
nodes = (
"183 153 OFFCURVE",
"208 172 OFFCURVE",
"234 195 CURVE SMOOTH",
"235 196 OFFCURVE",
"284 240 OFFCURVE",
"325 278 CURVE SMOOTH",
"360 310 OFFCURVE",
"434 365 OFFCURVE",
"434 475 CURVE SMOOTH",
"434 601 OFFCURVE",
"344 685 OFFCURVE",
"211 685 CURVE SMOOTH",
"134 685 OFFCURVE",
"73 641 OFFCURVE",
"45 610 CURVE SMOOTH",
"35 599 OFFCURVE",
"20 580 OFFCURVE",
"20 564 CURVE SMOOTH",
"20 535 OFFCURVE",
"43 516 OFFCURVE",
"68 516 CURVE SMOOTH",
"80 516 OFFCURVE",
"92 520 OFFCURVE",
"100 529 CURVE SMOOTH",
"125 557 OFFCURVE",
"159 591 OFFCURVE",
"211 591 CURVE SMOOTH",
"307 591 OFFCURVE",
"341 531 OFFCURVE",
"341 475 CURVE SMOOTH",
"341 434 OFFCURVE",
"301 384 OFFCURVE",
"254 338 CURVE SMOOTH",
"202 287 OFFCURVE",
"160 257 OFFCURVE",
"136 236 CURVE SMOOTH",
"125 227 OFFCURVE",
"119 213 OFFCURVE",
"119 200 CURVE SMOOTH",
"119 174 OFFCURVE",
"140 153 OFFCURVE",
"166 153 CURVE SMOOTH"
);
},
{
closed = 1;
nodes = (
"166 -6 OFFCURVE",
"194 23 OFFCURVE",
"194 59 CURVE SMOOTH",
"194 90 OFFCURVE",
"172 115 OFFCURVE",
"142 115 CURVE SMOOTH",
"112 115 OFFCURVE",
"83 84 OFFCURVE",
"83 51 CURVE SMOOTH",
"83 19 OFFCURVE",
"104 -6 OFFCURVE",
"135 -6 CURVE SMOOTH"
);
}
);
userData = {
com.fontlab.hintData = {
hhints = (
{
position = 0;
width = 121;
},
{
position = 597;
width = 94;
}
);
vhints = (
{
position = 120;
width = 111;
},
{
position = 378;
width = 93;
}
);
};
};
width = 499;
}
);
unicode = 003F;
},
